<ttFont>
          <CharString index="0">
            rmoveto
            157 callsubr
            6 -218 hvcurveto
            25 callsubr
            220 6 301 0 136 140 189 0 141 hflex1
            15 101 23 103 15 50 14 61 17 55 14 40 rrcurveto
            -46 hlineto
            -271 -108 -125 -92 -206 hhcurveto
            -76 214 callsubr
            7 33 11 43 hvcurveto
            104 389 rlineto
            75 hlineto
            144 31 -105 -95 -10 0 -10 -1 -9 hvcurveto
            45 hlineto
            23 135 12 41 20 74 19 75 13 57 39 118 rrcurveto
            -46 hlineto
            -104 -40 -92 -126 -136 hhcurveto
            -95 hlineto
            102 381 rlineto
            27 callgsubr
            return
          </CharString>
          <CharString index="1">
            -127 -57 73 142 79 17 99 32 119 hvcurveto
            180 678 -25 callsubr
            13 200 callsubr
            -115 52 callgsubr
            -132 2 -70 hflex1
            -12 -89 callsubr
            -170 -643 rlineto
            -28 -105 -15 -87 -73 vvcurveto
            -77 16 -62 37 -54 vhcurveto
            -99 65 131 -62 203 hhcurveto
            170 152 76 115 98 hvcurveto
            88 104 64 140 49 190 140 543 rcurveline
            52 198 37 54 136 18 11 41 rcurveline
            -45 -4 -71 -2 -64 -74 -95 2 -50 hflex1
            -12 -41 rlineto
            111 -12 44 -27 -82 vvcurveto
            -42 -11 -56 -20 -76 vhcurveto
            endchar
          </CharString>
          <CharString index="2">
            rmoveto
            -17 -1 -18 -1 -17 -18 -17 1 -17 hflex1
            -798 -997 -101 -127 -60 -66 -78 -29 rlinecurve
            -5 -41 rlineto
            40 4 58 2 53 75 85 -2 89 hflex1
            5 41 rlineto
            -115 13 -48 39 53 vvcurveto
            38 24 45 40 49 vhcurveto
            152 189 rlineto
            456 hlineto
            31 -254 rlineto
            2 -15 1 -14 -12 vvcurveto
            -104 -62 -22 -117 -5 vhcurveto
            -10 -41 rlineto
            66 4 118 2 123 100 127 -2 70 hflex1
            10 41 -41 2 -47 31 -12 98 rlinecurve
            -364 336 rmoveto
            -418 hlineto
            364 453 rlineto
            endchar
          </CharString>
          <CharString index="3">
            41 callgsubr
            11 41 rcurveline
            -88 -4 57 callsubr
            -131 -123 2 -68 hflex1
            -97 callgsubr
            71 4 119 2 131 124 132 -2 78 -87 callgsubr
            return
          </CharString>
          <CharString index="4">
            47 vvcurveto
            13 -3 14 -7 14 vhcurveto
            40 -21 -38 16 -40 hhcurveto
            -31 -32 -10 -14 -25 hvcurveto
            -110 -61 -76 -108 -203 -161 return
          </CharString>
          <CharString index="5">
            rmoveto
            -100 -70 -57 -74 -51 hvcurveto
            -113 -164 -107 -394 -88 -380 -423 975 rcurveline
            -47 -4 -58 -2 -61 -72 -67 2 -43 115 callgsubr
            119 -4 39 -13 -68 vvcurveto
            -13 -1 -15 -3 -18 vhcurveto
            -120 -622 -112 -483 -112 -175 rrcurveto
            -67 -42 -57 -44 -75 hhcurveto
            -14 -12 3 79 callsubr
            -90 -109 -77 -82 -105 -97 67 147 callsubr
            50 vhcurveto
            106 141 115 496 98 488 508 -1112 267 callsubr
            755 127 465 125 187 42 62 57 46 72 1 rrcurveto
            15 12 -4 -6 7 hvcurveto
            -87 -25 -67 -73 -92 vvcurveto
            -72 49 -51 91 108 78 82 106 96 -68 77 -125 vhcurveto
            return
          </CharString>
          <CharString index="6">
            rmoveto
            -75 -26 -19 -33 -22 hhcurveto
            hintmask 10101100
            -15 -26 16 16 -27 hvcurveto
            41 -67 -95 50 -162 hhcurveto
            -228 -275 -132 -278 hvcurveto
            -350 436 -142 -346 vvcurveto
            -135 -79 -80 -185 -218 -116 110 205 49 7 55 11 42 vhcurveto
            -40 hlineto
            hintmask 01101100
            -62 -284 -41 -119 -37 -88 rrcurveto
            41 hlineto
            82 35 16 28 36 hhcurveto
            hintmask 10101100
            16 25 -11 -19 30 hvcurveto
            -54 87 73 -41 195 hhcurveto
            235 329 117 292 hvcurveto
            338 -481 195 294 vvcurveto
            158 112 65 136 193 100 -110 -159 -33 -4 -43 -8 -38 vhcurveto
            41 hlineto
            hintmask 10011100
            41 215 51 131 28 71 rrcurveto
            endchar
          </CharString>
          <CharString index="7">
            -199 -604 rlineto
            -18 -54 -9 -48 -41 vvcurveto
            -107 61 -60 123 178 133 105 393 163 vhcurveto
            -55 -211 rlineto
            -13 -51 -8 -43 -38 vvcurveto
            -32 6 -29 13 -24 vhcurveto
            -44 25 51 -26 75 hhcurveto
            108 -11 callgsubr
            return
          </CharString>
          <CharString index="8">
            rmoveto
            -75 -85 2 4 -89 hvcurveto
            -9 -41 rlineto
            109 -11 48 -29 -56 vvcurveto
            -40 -23 -53 -43 -71 vhcurveto
            -371 -614 -112 702 rlineto
            -4 26 -3 21 19 vvcurveto
            84 47 17 116 5 vhcurveto
            8 41 rlineto
            -69 -4 -123 -2 -131 -95 -81 254 callsubr
            -8 -41 32 -2 34 -24 14 -105 rlinecurve
            36 -224 -297 -502 -99 685 rlineto
            -4 26 -3 23 20 vvcurveto
            63 24 32 70 8 vhcurveto
            8 41 rlineto
            -59 -4 -101 -2 -111 -106 -80 2 -77 hflex1
            -8 -41 44 -1 42 -36 15 -94 rlinecurve
            171 -1083 rlineto
            18 1 18 1 18 18 18 -1 17 hflex1
            474 798 130 -798 rlineto
            18 1 18 1 18 18 17 -1 17 hflex1
            604 987 96 157 62 40 80 30 268 callsubr
            -39 -58 -2 -55 hhcurveto
            endchar
          </CharString>
          <CharString index="9">
            rmoveto
            9 -10 -10 4 -12 hhcurveto
            -52 -66 -73 -46 -33 hvcurveto
            -33 -77 -59 -22 -81 hhcurveto
            hintmask 0011110011100000
            -229 -91 182 -235 hhcurveto
            -183 -114 -112 -152 -153 138 -64 129 -21 hvcurveto
            9 40 rlineto
            hintmask 0011101001100000
            -105 21 -44 40 56 vvcurveto
            55 34 28 58 vhcurveto
            hintmask 0011110011100000
            127 89 -90 184 hhcurveto
            149 115 97 87 176 hvcurveto
            -561 -459 rlineto
            -325 hlineto
            -15 -41 rlineto
            290 hlineto
            -566 -463 rlineto
            -72 -28 -81 -53 -45 vvcurveto
            -9 2 -8 6 -7 vhcurveto
            -11 9 11 -4 13 hhcurveto
            50 71 73 47 30 hvcurveto
            33 77 60 23 80 hhcurveto
            hintmask 0101110011100000
            229 91 -183 235 hhcurveto
            183 114 112 153 152 -137 64 -129 21 hvcurveto
            -9 -40 rlineto
            hintmask 1000110011100000
            106 -21 43 -40 -56 vvcurveto
            -55 -33 -28 -58 vhcurveto
            hintmask 0011110101100000
            -127 -89 91 -184 hhcurveto
            -153 -113 -97 -88 -176 hvcurveto
            571 467 rlineto
            312 hlineto
            16 41 rlineto
            -278 hlineto
            556 455 rlineto
            80 28 76 55 42 vvcurveto
            9 -4 9 -8 8 vhcurveto
            endchar
          </CharString>
          <CharString index="10">
            rmoveto
            -74 -140 2 4 -54 163 callgsubr
            108 -6 63 -23 -72 vvcurveto
            -37 -16 -49 -35 -66 vhcurveto
            -421 -775 -110 856 rlineto
            -3 20 -1 18 15 vvcurveto
            95 48 19 116 5 vhcurveto
            10 41 rlineto
            -71 -4 -117 -2 -131 -99 -104 2 -64 hflex1
            -9 -41 33 -2 42 -28 13 -101 rlinecurve
            43 -313 -375 -617 -99 889 rlineto
            -2 18 0 17 15 vvcurveto
            97 34 20 75 5 vhcurveto
            10 41 rlineto
            -61 -4 -95 -2 -110 -107 -112 244 callgsubr
            41 -2 55 -27 13 -102 rlinecurve
            162 -1288 rlineto
            105 hlineto
            553 914 126 -914 rlineto
            106 hlineto
            646 1202 87 160 71 35 82 22 296 callsubr
            -43 -50 -2 -62 hhcurveto
            endchar
          </CharString>
          <CharString index="11">
            rmoveto
            534 355 447 362 336 -238 158 -340 -533 -355 -447 -362 -336 238 -158 339 hvcurveto
            293 1266 rmoveto
            141 101 -119 -309 -391 -215 -410 -301 -142 -100 119 309 391 215 410 301 hvcurveto
            endchar
          </CharString>
          <CharString index="12">
            rmoveto
            -313 208 -179 347 558 372 564 450 315 -210 179 -347 -561 -367 -564 -452 vhcurveto
            909 979 rmoveto
            129 93 -160 -268 -494 -271 -512 -287 -129 -92 160 268 494 271 512 286 hvcurveto
            endchar
          </CharString>
          <CharString index="13">
            rmoveto
            -91 -89 -57 -74 -64 hvcurveto
            -81 -89 -106 -158 -84 -202 -15 92 rcurveline
            340 -57 -67 148 -213 hhcurveto
            -145 -77 -77 -131 -45 hvcurveto
            -57 -169 rlineto
            45 hlineto
            42 124 rlineto
            53 18 22 26 38 hhcurveto
            97 47 -247 -298 36 hvcurveto
            -87 -338 -37 -147 -31 -23 -143 -6 rlinecurve
            -11 -41 rlineto
            72 4 127 179 callsubr
            128 -2 76 hflex1
            10 -96 callgsubr
            98 382 133 330 131 162 83 74 rlinecurve
            51 48 51 19 43 1 rrcurveto
            15 10 -1 -6 10 hvcurveto
            -91 -29 -63 -81 -93 vvcurveto
            -80 46 -55 86 106 76 88 112 102 -64 84 -113 vhcurveto
            endchar
          </CharString>
          <CharString index="14">
            -47 callsubr
            -271 -1016 -78 callsubr
            -10 -41 rlineto
            return
          </CharString>
          <CharString index="15">
            -39 callsubr
            hintmask 10000111
            -81 -28 -33 -42 -52 hhcurveto
            -36 -17 24 36 5 0 5 1 5 hvcurveto
            23 215 rlineto
            3 28 1 25 24 vvcurveto
            177 -81 73 -211 24 vhcurveto
            277 63 -19 423 135 147 27 28 28 17 50 1 rrcurveto
            15 11 -3 -4 8 hvcurveto
            -94 -41 -59 -85 -80 vvcurveto
            -85 60 -50 77 124 62 113 91 vhcurveto
            hintmask 01110111
            107 -74 75 -119 vhcurveto
            -667 -246 rmoveto
            hintmask 00101011
            4 callsubr
            -84 -4 -120 -2 -119 -136 -128 2 -70 hflex1
            -93 callsubr
            74 4 124 2 136 119 127 -2 76 -87 callgsubr
            endchar
          </CharString>
          <CharString index="16">
            -32 callsubr
            hintmask 1000010110000000
            -89 -30 -33 -34 -51 hhcurveto
            -38 -22 25 47 4 hvcurveto
            18 179 rlineto
            2 15 0 14 14 vvcurveto
            162 -115 48 -171 24 vhcurveto
            247 45 -7 365 99 119 rrcurveto
            39 31 30 19 51 hhcurveto
            13 10 -3 -2 4 hvcurveto
            -80 -28 -58 -89 -81 vvcurveto
            -82 51 -51 90 110 72 94 106 vhcurveto
            hintmask 0111010110000000
            107 -71 67 -120 vhcurveto
            -630 -246 rmoveto
            hintmask 0010101000000000
            41 callgsubr
            11 41 rcurveline
            -77 callgsubr
            8 41 rlineto
            -99 4 -39 12 61 -48 callgsubr
            43 vhcurveto
            endchar
          </CharString>
          <CharString index="17">
            91 -8 -50 41 -71 hhcurveto
            -297 -339 -493 -370 -156 74 -97 155 130 117 77 214 95 hvcurveto
            -11 -45 -7 -42 -36 vvcurveto
            -41 8 -34 19 -28 vhcurveto
            -42 29 52 -23 71 hhcurveto
            97 113 43 169 60 180 callgsubr
            return
          </CharString>
          <CharString index="18">
            -52 callsubr
            -62 -75 callgsubr
            -42 vhcurveto
            return
          </CharString>
          <CharString index="19">
            rmoveto
            7 -9 -9 4 -10 hhcurveto
            -37 -45 -50 -70 -45 hvcurveto
            -54 -115 -122 -25 -110 -267 -89 206 -265 hhcurveto
            hintmask 11010100
            -194 -99 -112 -160 3 hvcurveto
            1 -183 152 -91 204 -17 4 39 rcurveline
            -161 15 -69 57 88 vvcurveto
            77 50 38 74 vhcurveto
            hintmask 11101000
            145 119 -103 175 hhcurveto
            202 107 110 71 211 hvcurveto
            -256 -167 -206 -154 -129 -271 rrcurveto
            -289 hlineto
            -6 -41 rlineto
            277 hlineto
            -23 -53 -20 -57 -17 -62 -109 -394 rcurveline
            -294 -80 -48 -200 -164 hhcurveto
            -20 296 callgsubr
            71 30 42 50 66 vvcurveto
            78 -1 -69 45 -89 hhcurveto
            -109 -64 -69 -85 -113 125 -43 162 360 175 238 280 72 hvcurveto
            127 496 7 27 7 27 8 26 rlinecurve
            209 hlineto
            7 41 rlineto
            -204 hlineto
            78 262 104 216 171 136 rrcurveto
            109 41 41 37 28 vvcurveto
            hintmask 11100100
            9 -5 298 callsubr
            endchar
          </CharString>
          <CharString index="20">
            rmoveto
            hintmask 01011110
            40 callsubr
            hintmask 01101110
            -73 callgsubr
            hintmask 10101110
            1 callsubr
            hintmask 01101110
            -335 -87 -131 -188 -85 hhcurveto
            -40 -17 35 93 368 231 435 141 44 25 -39 -67 -11 -1 -11 -1 -11 hvcurveto
            endchar
          </CharString>
          <CharString index="21">
            -66 callgsubr
            hintmask 10010010
            -89 callgsubr
            hintmask 11000010
            -53 callgsubr
            hintmask 10010100
            -100 callsubr
            return
          </CharString>
          <CharString index="22">
            rmoveto
            8 -8 -10 3 -9 hhcurveto
            -46 -56 -75 -44 -28 hvcurveto
            -54 -105 -117 -26 -100 -264 -87 207 -262 hhcurveto
            hintmask 11010100
            -192 -98 -110 -158 -186 151 -92 206 -17 hvcurveto
            5 38 rlineto
            -162 15 -69 58 88 vvcurveto
            76 50 38 74 vhcurveto
            hintmask 11101000
            135 110 -102 162 hhcurveto
            169 127 106 75 224 hvcurveto
            -265 -174 -208 -125 -129 -294 rrcurveto
            -270 hlineto
            -6 -41 rlineto
            259 hlineto
            -13 -33 -12 -34 -11 -37 -111 -368 rcurveline
            -227 -68 -45 -135 -163 hhcurveto
            -22 -23 2 5 -19 hvcurveto
            70 30 43 50 63 vvcurveto
            80 -68 46 -89 -112 -63 -70 -83 vhcurveto
            -116 1 128 -41 195 hhcurveto
            295 199 164 211 63 hvcurveto
            143 481 4 12 rlineto
            211 hlineto
            6 41 rlineto
            -205 hlineto
            87 285 78 183 182 147 rrcurveto
            65 25 84 43 39 vvcurveto
            hintmask 11100100
            8 -4 8 -7 7 vhcurveto
            endchar
          </CharString>
          <CharString index="23">
            38 37 21 39 36 vvcurveto
            23 -8 21 -19 19 vhcurveto
            20 -22 -26 9 -27 hhcurveto
            -39 -42 -20 -33 -31 hvcurveto
            -88 -88 -42 -126 -150 -211 return
          </CharString>
          <CharString index="24">
            -74 50 -47 86 110 89 94 98 78 -50 47 -88 -111 -86 -85 -111 vhcurveto
            return
          </CharString>
          <CharString index="25">
            127 47 23 26 28 hhcurveto
            29 10 -24 -74 13 hvcurveto
            161 -979 -93 -88 -89 -59 -84 -40 rlinecurve
            87 -61 -73 53 -85 hhcurveto
            -85 -58 -55 -71 -73 54 -42 89 34 51 9 21 59 hvcurveto
            188 64 172 141 130 157 rrcurveto
            210 254 194 384 257 vvcurveto
            return
          </CharString>
          <CharString index="26">
            294 callsubr
            -75 222 callgsubr
            -19 -4 -23 -7 -30 vhcurveto
            -839 -975 253 948 40 91 callgsubr
            -83 -4 -121 52 callgsubr
            -127 30 callsubr
            -271 -1016 -39 -149 -34 -21 -135 223 callsubr
            73 13 callgsubr
            9 41 rlineto
            -98 4 -40 12 61 vvcurveto
            20 4 25 8 31 vhcurveto
            838 972 -253 -949 -40 -1 callgsubr
            76 4 127 2 118 41 callsubr
            9 41 rlineto
            -99 4 -38 -85 callgsubr
            255 callsubr
            40 91 callgsubr
            -4 -73 118 callsubr
          </CharString>
          <CharString index="27">
            -136 -128 2 -70 hflex1
            -97 callgsubr
            74 4 123 -28 callgsubr
            return
          </CharString>
          <CharString index="28">
            -40 callsubr
            hintmask 10101100
            48 219 43 145 41 107 rrcurveto
            -46 179 callgsubr
            -11 -12 7 12 -12 hvcurveto
            hintmask 10110100
            73 -76 -82 60 -178 hhcurveto
            -586 -397 -576 -463 -299 207 -170 356 102 91 25 55 103 hvcurveto
            31 62 59 35 52 hhcurveto
            hintmask 01110100
            -69 callsubr
            hintmask 10110100
            -20 -76 -16 -43 -48 -31 rrcurveto
            -25 -38 -59 -18 -61 hhcurveto
            endchar
          </CharString>
          <CharString index="29">
            56 callsubr
            -134 -6 rlinecurve
            return
          </CharString>
          <CharString index="30">
            -55 callgsubr
            hintmask 10110100
            -47 callgsubr
            hintmask 10101100
            55 110 callgsubr
            -87 -30 -25 -36 -26 hhcurveto
            -12 -12 7 12 -12 hvcurveto
            hintmask 10110100
            73 -78 -103 60 -167 hhcurveto
            -579 -335 -490 -385 -274 203 -154 369 113 82 18 59 122 hvcurveto
            hintmask 01110100
            31 65 44 17 39 hhcurveto
            30 14 -25 -37 -10 -1 -12 -2 -12 hvcurveto
            endchar
          </CharString>
          <CharString index="31">
            98 -4 39 -37 callgsubr
            -218 -44 callsubr
            return
          </CharString>
          <CharString index="32">
            -662 221 callgsubr
            54 195 callgsubr
            -211 361 hintmask 00000000
            hintmask 01011010
            362 1391 rmoveto
            -76 54 -48 95 116 96 78 111 79 -54 49 -97 -117 -93 -70 -123 vhcurveto
            -277 -1094 rmoveto
            -20 -60 -11 -52 -45 vvcurveto
            -107 60 -62 126 103 115 44 167 59 vhcurveto
            52 123 callgsubr
            -37 -99 rlineto
            hintmask 10011010
            149 callsubr
            51 callsubr
            -57 vhcurveto
            -56 -156 rlineto
            39 hlineto
            40 105 rlineto
            hintmask 01100100
            116 43 39 45 50 hhcurveto
            22 13 -13 -28 -16 -4 -20 -9 -25 hvcurveto
            endchar
          </CharString>
          <CharString index="33">
            -91 238 9 107 -58 92 rrcurveto
            41 -25 -43 25 -43 hhcurveto
            -19 -19 -4 -10 -17 hvcurveto
            -31 -18 -17 -33 -37 vvcurveto
            -23 7 -25 15 -24 vhcurveto
            55 -91 94 -56 158 -195 rrcurveto
            return
          </CharString>
          <CharString index="34">
            -50 callsubr
            hintmask 10011010
            -132 -50 -43 -29 -37 hhcurveto
            -25 -15 13 29 16 4 19 9 25 hvcurveto
            hintmask 01011001
            -60 callgsubr
            hintmask 01101001
            116 44 39 45 50 hhcurveto
            22 13 -13 -28 -16 -4 -20 -9 -25 hvcurveto
            endchar
          </CharString>
          <CharString index="35">
            rmoveto
            -151 -129 -86 -67 -62 hvcurveto
            29 -25 rlineto
            78 83 70 27 68 hhcurveto
            52 36 -23 -54 -75 -68 -66 -98 -41 hvcurveto
            -53 2 -37 -10 -26 vvcurveto
            -21 20 -6 17 vhcurveto
            hintmask 11100000
            14 20 4 16 31 hvcurveto
            51 -5 37 -27 -74 vvcurveto
            -188 -256 -111 -223 -18 vhcurveto
            -37 vlineto
            276 18 400 115 205 vvcurveto
            108 -119 40 -154 3 vhcurveto
            hintmask 11010000
            135 27 199 90 117 vvcurveto
            75 -79 35 -109 vhcurveto
            endchar
          </CharString>
          <CharString index="36">
            -15 -66 -87 -44 -103 -9 6 -40 rcurveline
            163 19 119 93 147 vvcurveto
            85 -67 42 -73 return
          </CharString>
          <CharString index="37">
            -144 -95 -87 -262 -103 hvcurveto
            16 63 rlineto
            9 39 7 42 40 vvcurveto
            89 -35 76 -123 -118 -107 60 callsubr
            120 43 40 41 48 hhcurveto
            22 12 -12 -28 -15 -4 -21 -7 -26 75 callgsubr
            96 370 rlineto
            549 162 146 123 120 hhcurveto
            10 9 -3 -4 7 hvcurveto
            -93 -22 -77 -84 -98 vvcurveto
            -79 45 -43 80 111 85 98 115 return
          </CharString>
          <CharString index="38">
            39 19 -36 -56 -8 0 -8 -1 -9 hvcurveto
            41 hlineto
            109 406 41 151 18 18 92 7 181 callsubr
            -64 -5 -106 -2 -119 -111 -153 2 -84 115 callgsubr
            124 -5 48 -14 -72 vvcurveto
            -27 -6 -34 -12 -45 vhcurveto
            -47 -180 rlineto
            return
          </CharString>
          <CharString index="39">
            132 callsubr
            -24 -7 229 callgsubr
            10 callgsubr
            -9 -41 rlineto
            222 6 return
          </CharString>
          <CharString index="40">
            -249 -885 248 callgsubr
            19 73 rlineto
            465 129 226 447 130 hhcurveto
            29 10 -19 -28 -25 -8 -32 -10 -31 hvcurveto
            -184 -553 rlineto
            -22 -65 311 callsubr
            return
          </CharString>
          <CharString index="41">
            rmoveto
            -79 43 -56 89 -63 callgsubr
            -92 -85 -64 -110 vhcurveto
            491 hmoveto
            257 callgsubr
            -93 -84 -64 -110 vhcurveto
            return
          </CharString>
          <CharString index="42">
            431 194 callsubr
            973 114 -100 100 hstemhm
            32 1628 -1370 255 288 268 277 280 hintmask 0011010000000000
            1660 213 callgsubr
            hintmask 1001010000000000
            -135 -49 -44 -26 -35 hhcurveto
            -23 -17 10 32 15 3 20 9 25 hvcurveto
            hintmask 0011001110000000
            201 604 rlineto
            18 54 10 51 44 vvcurveto
            95 -47 65 -120 -175 -136 -104 -344 -143 vhcurveto
            39 139 rlineto
            16 54 9 52 45 vvcurveto
            93 -42 65 -119 -196 -130 -130 -336 -134 vhcurveto
            46 180 rlineto
            11 40 8 43 40 vvcurveto
            89 -39 74 -127 -109 -110 60 callsubr
            hintmask 0010101000000000
            116 42 40 45 47 hhcurveto
            26 9 -17 -26 -17 -4 -21 -6 -21 75 callgsubr
            57 223 rlineto
            hintmask 0011001110000000
            439 132 167 311 122 hhcurveto
            26 9 -15 -24 -22 -8 -29 -10 -33 hvcurveto
            -250 -850 rlineto
            293 hlineto
            53 190 rlineto
            -6 vlineto
            536 167 165 253 107 hhcurveto
            20 8 -16 -25 -22 -6 -28 -10 -32 hvcurveto
            -184 -553 rlineto
            -21 -61 -11 -54 -44 vvcurveto
            hintmask 0111010000000000
            -37 8 -31 15 -25 vhcurveto
            -47 29 55 -27 81 291 callgsubr
          </CharString>
          <CharString index="43">
            164 63 -63 -184 -23 -1 -25 -2 -27 hvcurveto
            46 hlineto
            5 32 9 46 13 49 19 74 23 72 36 96 rrcurveto
            return
          </CharString>
          <CharString index="44">
            10 26 30 4 16 hhcurveto
            44 21 -17 -30 -79 -121 -15 -63 -73 -69 16 7 -23 hvcurveto
            -13 -32 rlineto
            -17 38 85 -23 101 hhcurveto
            160 188 50 129 66 -56 31 -82 -39 -45 -8 -12 -34 hvcurveto
            return
          </CharString>
          <CharString index="45">
            -39 -49 callsubr
            return
          </CharString>
          <CharString index="46">
            194 -157 91 -332 vhcurveto
            -92 -90 -4 -125 hhcurveto
            -98 -142 2 4 -70 163 callgsubr
            104 -5 33 -22 -53 vvcurveto
            -25 -7 -31 -11 -40 vhcurveto
            -269 -1016 -4 callsubr
            9 41 rlineto
            -107 4 -33 22 50 vvcurveto
            26 9 32 11 42 vhcurveto
            127 479 rlineto
            hintmask 01110100
            213 -4 57 -62 -121 vvcurveto
            -20 -2 -23 -3 -24 vhcurveto
            hintmask 10111000
            -30 -232 rlineto
            -2 -14 -1 -14 -13 vvcurveto
            -117 80 -81 171 169 93 81 169 50 vhcurveto
            9 27 rlineto
            return
          </CharString>
          <CharString index="47">
            -171 167 -33 100 -84 53 rrcurveto
            14 -21 -27 8 -27 hhcurveto
            -37 -36 -14 -36 -21 hvcurveto
            -9 -16 -5 -17 -16 vvcurveto
            -42 27 -40 37 -23 vhcurveto
            return
          </CharString>
          <CharString index="48">
            161 -29 38 -38 150 1003 150 -38 38 hstemhm
            -72 314 992 314 hintmask 10011100
            1367 1274 rmoveto
            -65 -66 -21 -51 -60 hvcurveto
            -92 -77 -102 -152 -86 -168 -17 149 rcurveline
            170 -18 -70 150 -229 hhcurveto
            -141 -97 -71 -165 -55 hvcurveto
            -47 -141 rlineto
            41 hlineto
            34 100 rlineto
            hintmask 10101100
            82 29 38 45 73 hhcurveto
            91 33 -84 -112 13 hvcurveto
            48 -421 -131 -232 -138 -154 -94 -64 rlinecurve
            -45 -31 -43 -16 -48 -1 rrcurveto
            -17 -11 4 6 -7 hvcurveto
            92 32 62 81 92 vvcurveto
            79 -47 54 -84 -107 -76 -87 -113 -103 63 -83 118 66 65 23 47 60 vhcurveto
            107 81 124 151 98 166 17 -148 rcurveline
            -174 19 73 -146 234 hhcurveto
            139 92 78 141 47 hvcurveto
            53 158 rlineto
            -41 hlineto
            -34 -104 rlineto
            hintmask 01011100
            -78 -27 -37 -45 -76 hhcurveto
            -91 -33 81 115 -13 hvcurveto
            -47 418 114 232 117 156 85 65 rlinecurve
            42 31 45 16 46 1 rrcurveto
            17 11 -4 -6 7 hvcurveto
            -92 -31 -62 -82 -92 vvcurveto
            -79 48 -54 84 106 76 88 112 vhcurveto
            hintmask 10011100
            103 -63 83 -118 vhcurveto
            endchar
          </CharString>
          <CharString index="49">
            237 92 141 15 102 56 rrcurveto
            return
          </CharString>
          <CharString index="50">
            9 callgsubr
            hintmask 11101000
            12 callsubr
            hvcurveto
            hintmask 11010100
            -54 callsubr
          </CharString>
          <CharString index="51">
            rmoveto
            94 -101 41 -128 -197 -182 -99 -143 -88 65 -56 71 -54 vhcurveto
            hintmask 11101000
            -172 -68 -155 -101 -130 vvcurveto
            -119 129 -45 139 232 199 122 153 106 -93 63 -86 64 vhcurveto
            hintmask 11010100
            122 56 157 87 117 vvcurveto
            -315 -232 rmoveto
            -58 47 -47 50 70 vvcurveto
            85 73 72 89 54 24 -28 -56 -95 -65 -91 -70 -54 vhcurveto
            hintmask 11101000
            -191 -495 rmoveto
            -78 -24 43 67 114 75 107 98 63 hvcurveto
            71 -54 67 -57 -89 vvcurveto
            -106 -100 -88 -109 vhcurveto
            endchar
          </CharString>
          <CharString index="52">
            -106 -157 -181 -156 -202 -88 10 -29 rcurveline
            137 39 134 58 100 55 return
          </CharString>
          <CharString index="53">
            -72 callgsubr
            hintmask 11101000
            28 callsubr
            vhcurveto
            hintmask 11100100
            -36 -22 5 10 -22 hvcurveto
            endchar
          </CharString>
          <CharString index="54">
            vvcurveto
            -24 -6 -32 return
          </CharString>
          <CharString index="55">
            -41 rlineto
            -20 callsubr
            return
          </CharString>
          <CharString index="56">
            rmoveto
            -106 -79 -73 -90 -66 46 -33 77 48 246 callgsubr
            -14 -66 -87 -44 -103 -9 6 -40 rcurveline
            184 26 98 99 135 vvcurveto
            84 228 callgsubr
          </CharString>
          <CharString index="57">
            rmoveto
            -21 -60 -10 -53 -45 vvcurveto
            -107 59 -61 127 103 115 44 167 59 vhcurveto
            52 123 callgsubr
            -37 -99 rlineto
            return
          </CharString>
          <CharString index="58">
            -149 -33 -21 -139 -6 return
          </CharString>
          <CharString index="59">
            490 0 41 -30 -21 1226 41 -6 -20 hstemhm
            -88 2001 hintmask 00000000
            hintmask 10011000
            1485 1251 rmoveto
            -662 -945 rlineto
            hintmask 10101000
            -155 951 rlineto
            -69 -4 -86 -2 -91 -71 -68 2 -43 hflex1
            -47 callsubr
            -215 -809 -35 -129 -39 -55 -141 -6 rlinecurve
            -9 -41 rlineto
            45 4 77 2 71 71 109 293 callgsubr
            -134 4 -43 31 67 vvcurveto
            25 6 29 9 34 vhcurveto
            204 769 rlineto
            hintmask 01101000
            167 -1010 rlineto
            18 1 17 1 18 18 18 -1 18 hflex1
            698 995 -207 -768 rlineto
            hintmask 10101000
            -41 -149 -28 -21 -142 -6 -8 -41 rcurveline
            70 4 127 137 callsubr
            119 -2 85 hflex1
            9 251 callgsubr
            218 823 20 callgsubr
            hintmask 10011000
            -4 -87 -119 -2 -123 hhcurveto
            endchar
          </CharString>
          <CharString index="60">
            -10 -89 callsubr
            return
          </CharString>
          <CharString index="61">
            555 0 41 -30 143 callsubr
            hstemhm
            -86 2115 hintmask 10110000
            1539 272 callsubr
            -663 -1040 -116 1046 rlineto
            -51 -4 -69 -2 -65 -111 -107 2 -63 hflex1
            -47 callsubr
            -259 -970 -34 -129 -47 -87 -142 -6 rlinecurve
            -9 -41 rlineto
            46 4 77 2 71 71 110 -2 48 95 callgsubr
            -130 4 -40 46 73 vvcurveto
            29 6 33 10 37 vhcurveto
            259 983 rlineto
            hintmask 01110000
            165 -1256 rlineto
            45 hlineto
            850 1331 -297 -1104 rlineto
            hintmask 10110000
            -39 -149 -31 -21 -141 -6 -8 -41 rcurveline
            69 4 127 114 callgsubr
            118 -2 86 hflex1
            8 82 callgsubr
            255 callsubr
            38 149 31 131 callsubr
            -4 -88 -118 -2 -124 hhcurveto
            endchar
          </CharString>
          <CharString index="62">
            5 -30 -32 2 -34 hhcurveto
            -349 -176 -238 -176 -158 133 -70 183 -3 hvcurveto
            -242 -105 -126 -75 -105 vvcurveto
            -67 54 -44 69 -20 vhcurveto
            36 -11 rlineto
            return
          </CharString>
          <CharString index="63">
            -811 -65 callgsubr
            return
          </CharString>
          <CharString index="64">
            1376 rmoveto
            171 76 120 21 81 55 rrcurveto
            41 27 25 39 40 vvcurveto
            17 -4 17 -11 17 vhcurveto
            34 -21 -35 15 -36 hhcurveto
            -28 -27 -9 -16 -22 hvcurveto
            -81 234 callgsubr
            448 -22 rmoveto
            170 76 120 21 82 55 rrcurveto
            39 27 27 40 40 vvcurveto
            18 -5 17 -11 16 vhcurveto
            33 -23 -35 15 -35 hhcurveto
            -27 -27 -9 -16 -21 hvcurveto
            -82 234 callgsubr
            return
          </CharString>
          <CharString index="65">
            -127 -371 43 299 60 948 108 hstem
            834 299 vstem
            879 1087 rmoveto
            -127 -105 -91 -215 -101 hvcurveto
            177 625 -94 -31 -99 -19 -112 -8 rlinecurve
            -4 -15 -128 -328 -116 -131 -148 -156 rlinecurve
            22 -27 124 128 108 129 82 186 rlinecurve
            -372 -1335 rlineto
            -96 -26 -35 -31 -98 hhcurveto
            -13 -43 rlineto
            56 2 123 7 110 130 129 -7 65 hflex1
            12 43 rlineto
            -108 2 -62 20 79 vvcurveto
            20 4 24 8 29 vhcurveto
            55 196 rlineto
            -44 40 68 -27 77 hhcurveto
            390 222 275 callgsubr
            -439 -1056 rmoveto
            -39 -29 13 34 -25 hvcurveto
            140 494 rlineto
            231 84 112 176 83 hhcurveto
            41 27 -35 -136 -325 -191 -452 -203 hvcurveto
            endchar
          </CharString>
          <CharString index="66">
            1368 rmoveto
            119 124 207 123 229 71 -11 29 rcurveline
            -163 -31 -163 -48 -119 -43 -112 48 -103 40 -198 34 -8 -29 rcurveline
            153 -75 73 -100 59 -143 rrcurveto
            return
          </CharString>
          <CharString index="67">
            rmoveto
            -196 -97 115 246 383 224 686 422 149 112 -58 -102 54 hvcurveto
            24 -47 5 -45 -57 vvcurveto
            -50 -4 -51 -7 -53 vhcurveto
            45 hlineto
            return
          </CharString>
          <CharString index="68">
            rmoveto
            -48 -51 -13 -47 -48 hvcurveto
            -153 -154 47 -445 -316 -44 rrcurveto
            15 -54 -38 6 -27 hhcurveto
            -41 -14 -15 -26 -4 hvcurveto
            -1 -3 0 -4 -3 vvcurveto
            -21 15 -12 37 28 40 7 15 57 vhcurveto
            36 -28 16 -36 -71 vvcurveto
            -24 -1 -27 -4 -32 vhcurveto
            -40 -287 rlineto
            -2 -17 -2 -16 -15 vvcurveto
            -129 82 -82 155 121 102 67 152 52 vhcurveto
            53 158 rlineto
            -41 hlineto
            -35 -104 rlineto
            return
          </CharString>
          <CharString index="69">
            257 0 37 670 52 654 37 hstem
            1217 332 vstem
            931 1450 rmoveto
            -78 -156 -4 -2 -72 hvcurveto
            -21 -22 -1 -22 hhcurveto
            -100 -110 4 3 -61 hvcurveto
            -6 -41 rlineto
            102 -5 32 -27 -56 vvcurveto
            -24 -6 -29 -9 -35 vhcurveto
            -125 -474 rlineto
            -109 hlineto
            -12 -52 rlineto
            107 hlineto
            -129 -490 -39 -149 -35 -21 -131 -6 rlinecurve
            -6 -41 rlineto
            70 4 141 2 96 135 108 -6 66 hflex1
            682 328 514 447 324 -223 165 -395 hvcurveto
            -392 -1413 rmoveto
            -76 -26 17 46 27 9 37 13 49 hvcurveto
            129 494 rlineto
            387 hlineto
            13 52 rlineto
            -386 hlineto
            125 478 rlineto
            149 40 15 27 104 hhcurveto
            233 98 -135 -253 -466 -239 -522 -439 hvcurveto
            endchar
          </CharString>
          <CharString index="70">
            1575 rmoveto
            203 callgsubr
            -23 callsubr
            -38 -176 hhcurveto
            return
          </CharString>
          <CharString index="71">
            77 callgsubr
            hintmask 10110110
            -47 callgsubr
            hintmask 10101110
            55 110 callgsubr
            -87 -30 -25 -36 -26 hhcurveto
            -12 -12 7 12 -12 hvcurveto
            hintmask 10110110
            73 -78 -103 60 -167 hhcurveto
            -579 -335 -490 -385 -274 203 -154 369 113 82 18 59 122 hvcurveto
            hintmask 01110110
            31 65 44 17 39 hhcurveto
            30 14 -25 -37 -10 -1 -12 -2 -12 hvcurveto
            endchar
          </CharString>
          <CharString index="72">
            -705 -385 31 1341 100 0 -20 hstemhm
            -409 277 422 272 -207 360 hintmask 00000000
            hintmask 10110100
            355 1389 rmoveto
            -75 54 -47 94 118 94 79 112 77 -54 49 -96 -118 -92 -70 -125 vhcurveto
            -565 -1743 10 callsubr
            rrcurveto
            hintmask 10101000
            156 565 rlineto
            12 42 8 44 40 vvcurveto
            89 -40 71 -134 -114 -116 -49 -161 -56 vhcurveto
            -54 -156 rlineto
            38 hlineto
            39 105 rlineto
            hintmask 11001000
            118 43 40 43 46 hhcurveto
            25 11 -12 -27 -15 -4 -21 -7 -27 hvcurveto
            -286 -1018 rlineto
            hintmask 10110100
            187 callsubr
          </CharString>
          <CharString index="73">
            rmoveto
            -83 -81 -30 -67 -59 hvcurveto
            91 208 184 155 179 45 -11 37 rcurveline
            -263 -50 -435 -277 -351 vvcurveto
            -150 76 -75 159 247 198 178 190 121 -80 66 -122 vhcurveto
            -209 -510 rmoveto
            -47 -27 28 106 65 10 63 17 60 hvcurveto
            105 56 87 25 44 hhcurveto
            45 27 -28 -77 -139 -83 -208 -129 hvcurveto
            endchar
          </CharString>
          <CharString index="74">
            -135 -49 -44 -26 -35 hhcurveto
            -24 -16 12 31 15 4 19 8 25 hvcurveto
            return
          </CharString>
          <CharString index="75">
            rmoveto
            -63 -48 -15 -57 -52 hvcurveto
            -122 -128 33 -381 -274 -27 rrcurveto
            14 -49 -37 6 -25 hhcurveto
            -42 -14 -16 -23 -23 15 -15 42 25 34 5 13 47 hvcurveto
            29 -19 18 -40 -67 vvcurveto
            -20 -1 -23 -4 -26 vhcurveto
            -28 -187 rlineto
            -4 -24 -2 -23 -21 vvcurveto
            -141 84 -65 139 136 96 61 158 54 vhcurveto
            53 158 rlineto
            -41 hlineto
            -35 -104 rlineto
            return
          </CharString>
          <CharString index="76">
            -156 rlineto
            39 hlineto
            39 105 rlineto
            return
          </CharString>
          <CharString index="77">
            139 159 96 57 45 74 rrcurveto
            16 28 10 30 28 vvcurveto
            35 -15 31 -36 21 vhcurveto
            11 -20 -21 5 -20 hhcurveto
            -48 -44 -30 -44 -24 hvcurveto
            -46 -78 5 -109 -62 -206 rrcurveto
            return
          </CharString>
          <CharString index="78">
            -55 -165 rrcurveto
            -199 hlineto
            -13 -41 rlineto
            200 hlineto
            -9 -31 -373 -1371 90 18 91 9 115 2 rlinecurve
            375 1373 rlineto
            return
          </CharString>
          <CharString index="79">
            13 37 27 60 70 vvcurveto
            92 -42 68 -74 -76 -40 -71 -75 -181 166 -58 172 return
          </CharString>
          <CharString index="80">
            -131 -46 -46 -30 -36 hhcurveto
            -27 -10 18 26 17 4 20 6 22 hvcurveto
            return
          </CharString>
          <CharString index="81">
            229 callgsubr
            10 callgsubr
            -9 -41 rlineto
            72 4 125 2 136 135 146 -2 84 95 callgsubr
            -128 4 -49 13 69 vvcurveto
            23 6 29 10 38 vhcurveto
            return
          </CharString>
          <CharString index="82">
            -52 callgsubr
            rlinecurve
            return
          </CharString>
          <CharString index="83">
            1593 rmoveto
            -112 48 -103 40 -198 34 -8 -29 rcurveline
            153 -75 73 -100 59 -143 rrcurveto
            37 hlineto
            119 124 207 123 229 71 -11 29 rcurveline
            -163 -31 -163 -48 -119 -43 rrcurveto
            return
          </CharString>
          <CharString index="84">
            204 219 149 149 107 hvcurveto
            -23 20 rlineto
            -78 -131 -161 return
          </CharString>
          <CharString index="85">
            24 6 32 11 return
          </CharString>
          <CharString index="86">
            491 hmoveto
            -63 callgsubr
            -93 -84 -64 -110 188 callsubr
            hvcurveto
            return
          </CharString>
          <CharString index="87">
            98 -4 40 -12 return
          </CharString>
          <CharString index="88">
            rmoveto
            -76 -135 2 4 -39 hvcurveto
            -11 -41 rlineto
            104 -6 56 -25 -57 vvcurveto
            -30 -16 -38 -32 -49 vhcurveto
            -432 -656 -224 691 rlineto
            -14 43 -8 31 24 vvcurveto
            53 39 13 94 6 vhcurveto
            10 41 rlineto
            -70 -4 -82 -2 -123 -111 -124 311 callgsubr
            -10 -41 55 -16 47 -31 35 -104 rlinecurve
            343 -1036 rlineto
            -135 -89 -77 -79 -136 hhcurveto
            -31 -24 4 6 -15 hvcurveto
            90 21 70 63 93 vvcurveto
            76 -57 49 -87 -101 -82 -74 -101 -105 91 -69 151 188 82 129 172 109 vhcurveto
            615 938 92 140 65 41 76 18 79 callgsubr
            -4 -41 -50 -2 -54 hhcurveto
            endchar
          </CharString>
          <CharString index="89">
            rmoveto
            -61 hlineto
            -67 -56 -51 -21 -79 hhcurveto
            hintmask 0011001110000000
            -169 -59 105 -170 hhcurveto
            -201 -92 -129 -127 -113 79 -68 137 -31 hvcurveto
            12 31 rlineto
            hintmask 0011100110000000
            -23 callgsubr
            hintmask 0101001110000000
            174 64 -110 171 hhcurveto
            177 81 111 131 115 -70 70 -146 33 hvcurveto
            -12 -30 rlineto
            hintmask 1000001110000000
            63 -15 56 -38 -64 vvcurveto
            -39 -26 -33 -50 vhcurveto
            -81 -38 66 -99 hhcurveto
            hintmask 0011001110000000
            -97 -109 -111 -60 -129 hvcurveto
            endchar
          </CharString>
          <CharString index="90">
            -36 189 callgsubr
            hintmask 00111001
            201 604 rlineto
            17 51 10 49 44 vvcurveto
            96 -49 69 -137 -164 -126 -91 -317 -145 vhcurveto
            278 949 29 callsubr
            -406 -1366 31 callgsubr
            hintmask 01111010
            50 callsubr
            return
          </CharString>
          <CharString index="91">
            -56 -154 -54 -49 callgsubr
            return
          </CharString>
          <CharString index="92">
            -75 callgsubr
            -43 vhcurveto
            return
          </CharString>
          <CharString index="93">
            rmoveto
            -98 64 -104 49 -178 38 -9 -28 rcurveline
            142 -95 65 -119 37 -188 rrcurveto
            37 hlineto
            106 157 181 157 202 88 -10 28 rcurveline
            -137 -38 -134 -58 -100 -55 rrcurveto
            return
          </CharString>
          <CharString index="94">
            41 91 59 83 39 31 rrcurveto
            10 11 17 8 13 hhcurveto
            5 5 -1 -3 4 hvcurveto
            -46 -40 -23 -48 -42 vvcurveto
            -54 37 -40 59 90 72 88 87 vhcurveto
            return
          </CharString>
          <CharString index="95">
            -39 8 -31 18 -26 vhcurveto
            -44 30 56 -24 76 hhcurveto
            99 117 39 172 59 hvcurveto
            return
          </CharString>
          <CharString index="96">
            150 31 20 83 callsubr
            return
          </CharString>
          <CharString index="97">
            rmoveto
            324 -223 165 -395 -78 -156 -4 -2 -72 vhcurveto
            -21 -22 -1 -22 hhcurveto
            -100 -110 4 3 -61 hvcurveto
            -6 -41 rlineto
            102 -5 32 -27 -56 vvcurveto
            -24 -6 -29 -9 -35 vhcurveto
            -268 -1016 -39 -149 -35 -21 -131 -6 rlinecurve
            -6 -41 rlineto
            70 4 141 2 96 135 108 -6 66 hflex1
            682 328 514 447 hvcurveto
            -1010 -924 rmoveto
            -76 -26 17 46 27 9 37 13 49 hvcurveto
            268 1024 rlineto
            149 40 15 27 104 hhcurveto
            233 98 -135 -253 -466 -239 -522 -439 hvcurveto
            endchar
          </CharString>
          <CharString index="98">
            rmoveto
            129 73 -87 -179 -36 -3 -38 -6 -43 hvcurveto
            46 hlineto
            6 37 11 51 22 85 17 68 27 90 37 99 rrcurveto
            -119 -6 -159 0 -115 -133 -293 0 -213 hflex1
            hintmask 10110000
            25 callsubr
            73 4 124 2 136 136 145 -2 83 95 callgsubr
            -128 4 -48 237 callgsubr
            217 811 rlineto
            hintmask 11010000
            150 34 30 20 119 hhcurveto
            endchar
          </CharString>
          <CharString index="99">
            rlineto
            44 -18 -39 25 -68 hhcurveto
            -425 -256 -518 -310 -202 107 -86 136 164 107 107 229 103 hvcurveto
            -3 -10 rlineto
            -17 -58 -8 -49 -42 vvcurveto
            -33 5 -27 11 -23 vhcurveto
            -61 23 56 -33 83 hhcurveto
            98 117 42 169 56 hvcurveto
            49 150 rlineto
            return
          </CharString>
          <CharString index="100">
            26 -29 262 -241 -21 29 -21 175 170 385 41 376 170 -79 262 -8 -20 28 -20 hstemhm
            217 127 return
          </CharString>
          <CharString index="101">
            -74 51 -44 66 115 87 116 110 112 -98 85 -150 return
          </CharString>
          <CharString index="102">
            201 155 131 54 82 84 rrcurveto
            return
          </CharString>
          <CharString index="103">
            -39 -149 -33 -21 -39 callgsubr
            return
          </CharString>
          <CharString index="104">
            9 callgsubr
            hintmask 11110100
            12 callsubr
            hvcurveto
            hintmask 11101010
            -72 callgsubr
            hintmask 11110100
            28 callsubr
            vhcurveto
            hintmask 11110010
            -36 -22 5 10 -22 hvcurveto
            endchar
          </CharString>
          <CharString index="105">
            rmoveto
            181 154 124 194 76 hvcurveto
            -28 10 rlineto
            -88 -55 -75 -31 -79 hhcurveto
            hintmask 01100000
            -188 -88 160 -207 hhcurveto
            -181 -155 -123 -195 -76 hvcurveto
            29 -10 rlineto
            88 55 74 31 80 hhcurveto
            hintmask 10100000
            188 87 -160 208 hhcurveto
            endchar
          </CharString>
          <CharString index="106">
            -10 -41 rlineto
            98 -4 39 -12 -61 vvcurveto
            -25 -6 -32 -11 -42 vhcurveto
            -270 32 callgsubr
            75 4 138 2 104 171 103 -6 85 hflex1
            364 308 172 297 195 -140 106 -420 hvcurveto
            return
          </CharString>
          <CharString index="107">
            128 90 -38 95 hhcurveto
            127 62 63 79 35 -13 35 -20 29 hvcurveto
            -35 -14 rlineto
            6 -12 2 -15 -11 vvcurveto
            -40 -34 -20 -50 vhcurveto
            return
          </CharString>
          <CharString index="108">
            -27 callsubr
            -170 378 rmoveto
            10 51 rlineto
            return
          </CharString>
          <CharString index="109">
            -418 -42 rmoveto
            26 9 -40 -56 -127 -56 -135 -89 -104 hvcurveto
            -13 37 -6 43 44 vvcurveto
            171 72 167 57 vhcurveto
            endchar
          </CharString>
          <CharString index="110">
            2 119 41 callsubr
            8 41 rlineto
            -99 4 -39 12 return
          </CharString>
          <CharString index="111">
            -52 callgsubr
            10 41 rcurveline
            return
          </CharString>
          <CharString index="112">
            -137 -66 38 95 -63 hvcurveto
            -32 -14 rlineto
            -176 25 78 -144 152 hhcurveto
            184 202 161 161 96 hvcurveto
            return
          </CharString>
          <CharString index="113">
            rmoveto
            14 -167 88 -276 86 -105 -131 -110 -196 -283 -81 -175 rrcurveto
            37 hlineto
            210 65 callgsubr
            -128 201 rrcurveto
            -450 -49 rmoveto
            12 -152 78 -252 73 -95 -113 -100 -175 -259 -69 -160 rrcurveto
            37 hlineto
            188 192 194 172 229 142 7 26 rcurveline
            -175 134 -129 170 -120 182 rrcurveto
            endchar
          </CharString>
          <CharString index="114">
            -8 -41 rlineto
            100 -4 39 -12 -60 vvcurveto
            -24 -7 -33 -11 -43 vhcurveto
            144 callsubr
            rlineto
            -149 -39 -31 -27 -141 hhcurveto
            -203 hlineto
            -98 -40 14 62 25 6 32 12 43 hvcurveto
            241 callgsubr
            32 20 140 303 callsubr
            -119 -136 -128 2 -72 218 callgsubr
            144 callsubr
            -39 -149 -29 -21 -141 -6 rlinecurve
            -11 -41 rlineto
            return
          </CharString>
          <CharString index="115">
            1248 rmoveto
            61 callgsubr
            170 callsubr
            hvcurveto
            return
          </CharString>
          <CharString index="116">
            207 647 rlineto
            -39 hlineto
            -94 -67 -105 -78 -221 -60 -10 -39 rcurveline
            100 23 59 26 64 28 return
          </CharString>
          <CharString index="117">
            rmoveto
            243 callgsubr
            -45 51 -75 -87 -70 -69 -81 -76 61 -44 134 75 114 13 77 102 vhcurveto
            140 83 89 159 80 289 return
          </CharString>
          <CharString index="118">
            232 callgsubr
            -89 -19 -93 -8 -116 -2 rlinecurve
            -89 -311 rlineto
            -188 hlineto
            -10 -41 rlineto
            186 hlineto
            return
          </CharString>
          <CharString index="119">
            239 148 136 177 98 -41 87 -81 134 return
          </CharString>
          <CharString index="120">
            -65 callgsubr
            -8 -41 rlineto
            return
          </CharString>
          <CharString index="121">
            269 -29 37 1434 37 hstem
            86 352 779 354 vstem
            return
          </CharString>
          <CharString index="122">
            1661 rmoveto
            -31 27 -1706 -1774 31 -27 rlineto
            return
          </CharString>
          <CharString index="123">
            595 729 rmoveto
            80 299 140 callsubr
            -88 -4 -124 -2 -124 -131 -123 2 -68 hflex1
            -47 callsubr
            -216 96 callgsubr
            125 2 126 141 107 -6 104 hflex1
            348 280 154 271 188 -153 116 -403 hvcurveto
            return
          </CharString>
          <CharString index="124">
            -155 55 callsubr
            281 callsubr
            hstemhm
            -37 1112 -512 269 -36 276 hintmask 0011111000000000
            302 callsubr
            hintmask 1001110100000000
            -33 callsubr
            hintmask 0011110010000000
            201 604 rlineto
            17 51 10 49 44 vvcurveto
            96 -49 69 -137 -164 -126 -91 -317 -145 vhcurveto
            166 566 rlineto
            return
          </CharString>
          <CharString index="125">
            151 34 -149 204 hhcurveto
            125 136 81 203 79 hvcurveto
            -37 11 rlineto
            -86 -51 -50 -33 -57 hhcurveto
            return
          </CharString>
          <CharString index="126">
            -120 -29 45 -9 -21 1444 49 -15 -20 hstemhm
            266 313 123 358 return
          </CharString>
          <CharString index="127">
            39 150 32 20 136 callsubr
            return
          </CharString>
          <CharString index="128">
            1226 275 callsubr
            11 29 27 vvcurveto
            30 -14 266 callgsubr
            -25 hhcurveto
            -36 -36 -17 -33 -26 hvcurveto
            -55 -75 -14 -110 -98 -202 rrcurveto
            389 -15 275 callsubr
            10 28 27 vvcurveto
            31 -13 266 callgsubr
            -26 hhcurveto
            -36 -35 -17 -33 -26 hvcurveto
            -55 -75 -14 -110 -99 -202 rrcurveto
            return
          </CharString>
          <CharString index="129">
            vvcurveto
            -76 64 -46 113 96 99 34 78 99 vhcurveto
            -22 35 rlineto
            -27 -47 -59 -18 -43 hhcurveto
            -48 -21 23 39 return
          </CharString>
          <CharString index="130">
            12 callgsubr
            372 1373 rlineto
            return
          </CharString>
          <CharString index="131">
            1249 rmoveto
            106 157 181 157 202 88 -10 28 rcurveline
            -137 -38 -134 -58 -100 -55 -98 64 -104 49 -178 38 -9 -28 rcurveline
            142 -95 65 -119 37 -188 rrcurveto
            return
          </CharString>
          <CharString index="132">
            -10 -41 rlineto
            -76 callsubr
            -9 -41 rlineto
            return
          </CharString>
          <CharString index="133">
            hvcurveto
            86 26 68 72 93 vvcurveto
            72 -50 51 return
          </CharString>
          <CharString index="134">
            -305 -80 -143 -225 return
          </CharString>
          <CharString index="135">
            73 -111 40 -92 -89 vvcurveto
            -112 -72 -65 -99 return
          </CharString>
          <CharString index="136">
            -138 265 callgsubr
            -13 -43 rlineto
            102 37 -25 -54 -16 -3 -19 -6 -21 hvcurveto
            return
          </CharString>
          <CharString index="137">
            2 -71 hflex1
            -11 93 callsubr
            -24 -7 229 callgsubr
            return
          </CharString>
          <CharString index="138">
            58 callsubr
            hintmask 10110000
            15 callgsubr
            endchar
          </CharString>
          <CharString index="139">
            149 40 31 21 136 hhcurveto
            64 hlineto
            return
          </CharString>
          <CharString index="140">
            -94 callgsubr
            270 1016 -25 callsubr
            return
          </CharString>
          <CharString index="141">
            -126 -136 -81 -203 -78 hvcurveto
            37 -11 rlineto
            86 51 49 33 58 hhcurveto
            return
          </CharString>
          <CharString index="142">
            -116 -126 -82 -203 -73 hvcurveto
            37 -10 rlineto
            86 47 46 33 53 hhcurveto
            return
          </CharString>
          <CharString index="143">
            -334 -385 241 -220 -21 1365 107 0 -20 return
          </CharString>
          <CharString index="144">
            120 92 84 107 79 -54 47 -97 -121 -89 -77 -117 return
          </CharString>
          <CharString index="145">
            hhcurveto
            -147 -56 -170 -290 -75 hvcurveto
            -50 -197 -87 -401 -212 -16 rrcurveto
            -9 -8 1 3 -4 hvcurveto
            74 38 58 68 76 vvcurveto
            65 -44 47 -82 -96 -77 -69 -104 -89 57 -72 112 28 43 4 25 45 vhcurveto
            149 82 70 244 61 231 rrcurveto
            260 67 45 225 137 hhcurveto
            63 38 -64 -101 return
          </CharString>
          <CharString index="146">
            -6 -131 -174 0 -127 hhcurveto
            endchar
          </CharString>
          <CharString index="147">
            -89 -18 -93 -9 -115 -2 -29 -103 rcurveline
            return
          </CharString>
          <CharString index="148">
            136 128 -2 72 hflex1
            return
          </CharString>
          <CharString index="149">
            60 -1 -39 37 -65 hhcurveto
            -90 -65 -72 -93 -6 hvcurveto
            -1 -10 0 -10 -10 vvcurveto
            -76 24 -72 4 -153 vhcurveto
            28 hlineto
            80 162 131 117 120 vvcurveto
            return
          </CharString>
          <CharString index="150">
            -131 -123 2 return
          </CharString>
          <CharString index="151">
            -13 -50 -56 -12 -91 -18 -17 2 -21 hhcurveto
            -7 -43 rlineto
            21 6 -14 -25 -51 -33 -143 -92 -201 hvcurveto
            return
          </CharString>
          <CharString index="152">
            151 callsubr
            1016 100 0 -20 return
          </CharString>
          <CharString index="153">
            8 41 rlineto
            -122 6 -47 23 72 vvcurveto
            26 5 31 11 39 vhcurveto
            return
          </CharString>
          <CharString index="154">
            128 callsubr
            -89 -110 -76 -83 -103 -97 67 -79 125 64 63 20 52 57 vhcurveto
            211 191 185 537 124 462 rrcurveto
            146 39 34 30 103 hhcurveto
            29 hlineto
            72 40 -16 -66 -24 -5 -31 -11 -39 hvcurveto
            -270 -1016 rlineto
            return
          </CharString>
          <CharString index="155">
            -21 -140 -6 rlinecurve
            return
          </CharString>
          <CharString index="156">
            1491 rmoveto
            -77 53 -48 96 119 94 83 107 80 -55 47 -96 -121 -90 -75 -117 vhcurveto
            return
          </CharString>
          <CharString index="157">
            -184 -553 rlineto
            -19 -57 -11 -54 -47 vvcurveto
            -100 51 -68 135 99 117 39 172 59 vhcurveto
            return
          </CharString>
          <CharString index="158">
            -15 13 29 16 4 19 9 25 hvcurveto
            hintmask 01010100
            215 627 rlineto
            13 39 9 41 40 vvcurveto
            89 -45 77 -136 -118 -109 -49 -161 return
          </CharString>
          <CharString index="159">
            hlineto
            -370 -1245 31 callgsubr
            hintmask 0111110100000000
            161 callsubr
          </CharString>
          <CharString index="160">
            -65 callgsubr
            -9 -41 rlineto
            220 6 return
          </CharString>
          <CharString index="161">
            -24 0 94 callsubr
            return
          </CharString>
          <CharString index="162">
            -29 62 callsubr
            return
          </CharString>
          <CharString index="163">
            -39 -149 -34 -21 return
          </CharString>
          <CharString index="164">
            -125 -2 -123 return
          </CharString>
          <CharString index="165">
            30 callgsubr
            hintmask 01110000
            17 callgsubr
            return
          </CharString>
          <CharString index="166">
            rmoveto
            27 callsubr
            -306 hhcurveto
            return
          </CharString>
          <CharString index="167">
            -49 -161 -57 -49 callgsubr
            return
          </CharString>
          <CharString index="168">
            103 913 157 callgsubr
            return
          </CharString>
          <CharString index="169">
            101 -80 -21 50 247 callsubr
            return
          </CharString>
          <CharString index="170">
            469 -152 40 123 -21 1214 41 56 38 hstemhm
            -161 327 -327 2111 -327 327 hintmask 11110100
            return
          </CharString>
          <CharString index="171">
            27 211 rlineto
            2 16 1 15 14 vvcurveto
            178 -165 40 -217 19 vhcurveto
            -2 hlineto
            return
          </CharString>
          <CharString index="172">
            72 callgsubr
            hstemhm
            50 1112 -1107 275 -37 268 return
          </CharString>
          <CharString index="173">
            15 0 106 callsubr
            return
          </CharString>
          <CharString index="174">
            rmoveto
            -330 -104 -139 -177 -78 hhcurveto
            -47 -19 46 95 389 229 436 179 44 24 -23 -49 14 hvcurveto
            endchar
          </CharString>
          <CharString index="175">
            70 -29 90 -90 126 593 45 346 -20 22 -20 24 -20 return
          </CharString>
          <CharString index="176">
            rmoveto
            14 -167 88 -276 86 -105 -131 -110 -195 -283 -81 -175 rrcurveto
            37 hlineto
            209 65 callgsubr
            -129 201 rrcurveto
            endchar
          </CharString>
          <CharString index="177">
            39 -11 callsubr
            -86 -4 -122 -2 -129 -64 -80 6 -171 hflex1
            -78 0 -33 -6 -34 -82 -66 120 callgsubr
            rlineto
            98 -4 40 -11 -62 -15 callsubr
            return
          </CharString>
          <CharString index="178">
            20 callgsubr
            -81 -4 -120 -2 -123 -84 -93 6 -150 hflex1
            -86 0 -36 -6 -36 -82 -65 2 -43 115 callgsubr
            99 -4 40 -12 -61 vvcurveto
            -25 -7 -32 -11 -42 vhcurveto
            return
          </CharString>
          <CharString index="179">
            1714 rmoveto
            -137 90 callsubr
            134 109 callsubr
            hvcurveto
            -45 -356 rmoveto
            -73 -75 46 88 93 86 86 100 74 279 callsubr
            -99 hvcurveto
            return
          </CharString>
          <CharString index="180">
            1919 rmoveto
            -138 90 callsubr
            135 120 101 123 107 -87 68 -113 hvcurveto
            -45 -356 rmoveto
            -74 -75 45 89 93 87 86 100 73 81 -43 -91 -102 -94 -77 -98 hvcurveto
            return
          </CharString>
          <CharString index="181">
            41 9 -21 510 41 686 207 callsubr
            326 return
          </CharString>
          <CharString index="182">
            143 callgsubr
            43 vhcurveto
            return
          </CharString>
          <CharString index="183">
            -84 -18 -101 -9 -112 -2 rrcurveto
            -298 hlineto
            25 90 49 180 50 114 98 63 rlinecurve
            39 60 80 24 106 hhcurveto
            23 hlineto
            -76 -21 -55 -56 -4 -90 rrcurveto
            -82 -7 56 -52 99 hhcurveto
            117 95 78 112 hvcurveto
            return
          </CharString>
          <CharString index="184">
            134 -29 101 -72 41 655 37 676 35 hstemhm
            817 324 -286 319 -105 330 hintmask 01110010
            return
          </CharString>
          <CharString index="185">
            rrcurveto
            -35 hlineto
            -94 -207 -135 -119 -195 -57 195 -58 135 -118 94 -207 rrcurveto
            35 hlineto
            return
          </CharString>
          <CharString index="186">
            6 -7 26 callsubr
            return
          </CharString>
          <CharString index="187">
            106 -29 72 1161 41 222 callsubr
            return
          </CharString>
          <CharString index="188">
            0 122 callsubr
            return
          </CharString>
          <CharString index="189">
            rmoveto
            -47 -43 -15 -32 -41 hvcurveto
            -62 -48 -52 -83 -50 -99 rrcurveto
            return
          </CharString>
          <CharString index="190">
            141 159 callgsubr
            return
          </CharString>
          <CharString index="191">
            78 -385 34 1060 41 411 146 -43 249 hstemhm
            55 332 -200 131 hintmask 11100100
            return
          </CharString>
          <CharString index="192">
            20 callgsubr
            -87 133 callgsubr
            return
          </CharString>
          <CharString index="193">
            -85 -18 -100 -9 -112 -2 rrcurveto
            -330 hlineto
            24 90 rlineto
            270 74 113 150 268 hhcurveto
            23 -1 rlineto
            -80 -22 -55 -59 -97 vvcurveto
            -75 54 -47 94 117 95 78 112 vhcurveto
            return
          </CharString>
          <CharString index="194">
            150 31 20 return
          </CharString>
          <CharString index="195">
            -139 265 callgsubr
            -14 -43 rlineto
            103 37 -25 -53 -17 -4 -18 -6 -22 hvcurveto
            return
          </CharString>
          <CharString index="196">
            1473 rmoveto
            13 51 rlineto
            -820 hlineto
            -12 -51 rlineto
            return
          </CharString>
          <CharString index="197">
            -110 -97 -126 -110 83 -66 110 return
          </CharString>
          <CharString index="198">
            hstemhm
            50 1112 -1107 275 return
          </CharString>
          <CharString index="199" raw="1">
            bf1dfb14 8d0b  
          </CharString>
          <CharString index="200">
            -41 rlineto
            132 callsubr
            return
          </CharString>
          <CharString index="201">
            47 559 41 551 47 return
          </CharString>
          <CharString index="202">
            205 200 127 182 104 vvcurveto
            9 0 9 -3 4 vhcurveto
            return
          </CharString>
          <CharString index="203">
            -96 -34 -37 -51 -54 hhcurveto
            -46 -19 37 59 14 1 16 2 17 hvcurveto
            return
          </CharString>
          <CharString index="204">
            132 -2 78 hflex1
            return
          </CharString>
          <CharString index="205">
            22 115 rlineto
            4 22 2 21 19 vvcurveto
            171 -160 51 -183 3 vhcurveto
            225 59 -13 302 112 96 rrcurveto
            20 25 25 11 37 hhcurveto
            12 13 -6 -10 7 hvcurveto
            return
          </CharString>
          <CharString index="206">
            31 153 rlineto
            5 23 2 22 20 vvcurveto
            169 -163 50 -180 4 vhcurveto
            216 55 -11 274 108 89 rrcurveto
            20 25 26 11 36 hhcurveto
            12 14 -6 -10 7 hvcurveto
            return
          </CharString>
          <CharString index="207">
            202 604 rlineto
            16 50 9 48 41 vvcurveto
            101 -51 69 -123 -182 -132 -99 -321 -143 vhcurveto
            269 961 -130 -53 -139 -29 -184 -2 rlinecurve
            return
          </CharString>
          <CharString index="208">
            -12 callsubr
            endchar
          </CharString>
          <CharString index="209">
            124 50 -65 -119 -249 -140 -144 -261 hvcurveto
            return
          </CharString>
          <CharString index="210">
            689 11 143 callsubr
            hstem
            176 2058 vstem
            return
          </CharString>
          <CharString index="211">
            hstem
            6 307 421 225 vstem
            return
          </CharString>
          <CharString index="212">
            hstem
            25 274 446 275 vstem
            return
          </CharString>
          <CharString index="213">
            271 callsubr
            870 -20 return
          </CharString>
          <CharString index="214">
            -97 -25 -89 -88 -111 vvcurveto
            return
          </CharString>
          <CharString index="215">
            hvcurveto
            55 156 rlineto
            return
          </CharString>
          <CharString index="216">
            121 101 123 107 -88 68 -113 return
          </CharString>
          <CharString index="217">
            27 callgsubr
            -64 callgsubr
            return
          </CharString>
          <CharString index="218">
            72 0 41 1319 41 8 37 hstemhm
            177 307 954 319 hintmask 11011000
            return
          </CharString>
          <CharString index="219">
            111 111 123 43 168 60 vhcurveto
            50 123 callgsubr
            -35 -99 rlineto
            return
          </CharString>
          <CharString index="220">
            1758 40 callgsubr
            return
          </CharString>
          <CharString index="221">
            41 1163 41 return
          </CharString>
          <CharString index="222">
            -119 -136 return
          </CharString>
          <CharString index="223">
            rmoveto
            -54 -41 32 93 59 17 84 41 115 hvcurveto
            10 28 rlineto
            56 37 58 28 55 hhcurveto
            75 33 -50 -92 -192 -117 -161 -114 hvcurveto
            endchar
          </CharString>
          <CharString index="224">
            rmoveto
            -58 -19 26 42 28 8 35 10 39 hvcurveto
            128 477 rlineto
            32 hlineto
            201 58 -110 -151 -238 -109 -148 -251 hvcurveto
            endchar
          </CharString>
          <CharString index="225">
            -128 162 callsubr
          </CharString>
          <CharString index="226">
            95 callgsubr
            -105 return
          </CharString>
          <CharString index="227">
            rmoveto
            109 callgsubr
            138 518 rlineto
            44 hlineto
            218 63 297 callgsubr
            -132 -207 -250 hvcurveto
            endchar
          </CharString>
          <CharString index="228">
            41 1114 41 21 36 hstemhm
            132 307 return
          </CharString>
          <CharString index="229">
            188 callgsubr
            41 return
          </CharString>
          <CharString index="230">
            40 -21 -38 16 -40 hhcurveto
            -31 -32 -10 -14 -25 hvcurveto
            -110 -61 -76 -108 -203 -161 14 -24 rcurveline
            -58 callsubr
            return
          </CharString>
          <CharString index="231">
            -26 -119 rlineto
            -6 -28 -3 -26 -23 vvcurveto
            -108 66 -52 110 108 127 46 165 55 vhcurveto
            51 150 rlineto
            223 callgsubr
            return
          </CharString>
          <CharString index="232">
            -36 -157 rlineto
            -6 -28 -3 -25 -23 vvcurveto
            -106 61 -55 111 112 123 43 168 59 vhcurveto
            51 150 rlineto
            223 callgsubr
            return
          </CharString>
          <CharString index="233">
            184 552 rlineto
            20 59 10 53 45 vvcurveto
            107 -59 62 -127 -99 -117 -38 -172 -59 vhcurveto
            197 callgsubr
            39 hlineto
            36 99 rlineto
            return
          </CharString>
          <CharString index="234">
            1087 rmoveto
            -36 -47 -11 -36 -44 hvcurveto
            -130 -104 41 -288 -272 -37 285 1017 rcurveline
            -138 -53 -121 255 callgsubr
            rrcurveto
            return
          </CharString>
          <CharString index="235">
            3 3 -9 hvcurveto
            87 26 67 73 90 vvcurveto
            74 -51 51 return
          </CharString>
          <CharString index="236">
            -20 91 callsubr
            return
          </CharString>
          <CharString index="237">
            -373 -29 111 965 40 return
          </CharString>
          <CharString index="238">
            21 107 callgsubr
            return
          </CharString>
          <CharString index="239">
            -20 callsubr
            -61 vvcurveto
            return
          </CharString>
          <CharString index="240">
            102 285 rlineto
            23 65 11 55 46 vvcurveto
            107 -62 53 -119 -100 -118 -42 -168 -57 vhcurveto
            -52 -150 rlineto
            39 hlineto
            37 99 rlineto
            return
          </CharString>
          <CharString index="241">
            hmoveto
            -270 hlineto
            359 308 rlineto
            endchar
          </CharString>
          <CharString index="242">
            vhcurveto
            -217 -811 rlineto
            -148 -39 -28 -28 -132 hhcurveto
            -117 hlineto
            -88 -37 14 62 25 6 32 11 43 hvcurveto
            217 811 return
          </CharString>
          <CharString index="243">
            141 69 callgsubr
            return
          </CharString>
          <CharString index="244">
            2 131 123 return
          </CharString>
          <CharString index="245">
            46 7 37 11 44 24 96 28 107 38 100 rrcurveto
            return
          </CharString>
          <CharString index="246">
            -39 155 callsubr
            return
          </CharString>
          <CharString index="247">
            39 150 30 20 107 callgsubr
            return
          </CharString>
          <CharString index="248">
            191 0 188 123 197 -80 180 hintmask 00000000
            hintmask 11010100
            return
          </CharString>
          <CharString index="249">
            336 0 41 668 41 659 41 hstem
            -85 1895 vstem
            return
          </CharString>
          <CharString index="250">
            -21 1419 41 return
          </CharString>
          <CharString index="251">
            -215 -811 return
          </CharString>
          <CharString index="252">
            -78 -131 -161 -38 -176 hhcurveto
            203 callgsubr
            return
          </CharString>
          <CharString index="253">
            -1 rlinecurve
            -78 -74 10 22 -38 hvcurveto
            return
          </CharString>
          <CharString index="254">
            -78 125 109 61 64 65 return
          </CharString>
          <CharString index="255">
            166 callgsubr
            101 -80 -21 return
          </CharString>
          <CharString index="256">
            -132 -50 -42 -29 -37 hhcurveto
            -26 return
          </CharString>
          <CharString index="257">
            hstemhm
            -210 287 13 276 return
          </CharString>
          <CharString index="258">
            -29 101 -80 -21 return
          </CharString>
          <CharString index="259">
            -14 249 callgsubr
            -90 -109 -77 -82 -102 -98 67 -80 125 65 return
          </CharString>
          <CharString index="260">
            258 callsubr
            -24 -6 return
          </CharString>
          <CharString index="261">
            54 callsubr
            hstem
            310 callgsubr
            vstem
            return
          </CharString>
          <CharString index="262">
            -149 -31 -21 -141 223 callsubr
            return
          </CharString>
          <CharString index="263">
            -68 120 callgsubr
            return
          </CharString>
          <CharString index="264">
            -136 -301 0 return
          </CharString>
          <CharString index="265">
            -349 -21 341 return
          </CharString>
          <CharString index="266">
            -2 -119 171 callsubr
            return
          </CharString>
          <CharString index="267">
            -94 -62 60 144 93 callgsubr
            175 callsubr
            return
          </CharString>
          <CharString index="268">
            50 callsubr
            endchar
          </CharString>
          <CharString index="269">
            -2 -136 hhcurveto
            endchar
          </CharString>
          <CharString index="270">
            -13 -50 -57 -12 -91 -21 -21 2 -27 hhcurveto
            -6 -43 rlineto
            31 8 -14 -25 -50 -29 -138 -83 -195 hvcurveto
            return
          </CharString>
          <CharString index="271">
            20 callsubr
            -84 -4 return
          </CharString>
          <CharString index="272">
            98 42 48 63 rrcurveto
            return
          </CharString>
          <CharString index="273">
            41 14 21 29 return
          </CharString>
          <CharString index="274">
            1566 rmoveto
            119 94 83 107 79 -55 48 -97 -120 -90 -75 -117 -78 53 -47 96 hvcurveto
            return
          </CharString>
          <CharString index="275">
            333 42 207 143 210 vvcurveto
            return
          </CharString>
          <CharString index="276">
            46 30 -15 -26 21 hvcurveto
            return
          </CharString>
          <CharString index="277">
            -79 42 -57 90 return
          </CharString>
          <CharString index="278">
            -136 -128 2 -70 hflex1
            -47 callsubr
            return
          </CharString>
          <CharString index="279">
            hhcurveto
            306 callgsubr
            -36 16 rlineto
            -126 -108 -114 -42 -73 hhcurveto
            return
          </CharString>
          <CharString index="280">
            91 callsubr
            -37 268 hintmask 10011100
            return
          </CharString>
          <CharString index="281">
            1407 rmoveto
            12 51 rlineto
            -688 hlineto
            -12 -51 rlineto
            return
          </CharString>
          <CharString index="282">
            169 callsubr
            107 callsubr
            return
          </CharString>
          <CharString index="283">
            151 callsubr
            1530 43 return
          </CharString>
          <CharString index="284">
            193 228 203 150 return
          </CharString>
          <CharString index="285">
            228 callsubr
            10 41 rlineto
            return
          </CharString>
          <CharString index="286">
            2 130 125 return
          </CharString>
          <CharString index="287">
            -92 -85 -63 -110 return
          </CharString>
          <CharString index="288">
            rlinecurve
            11 41 rlineto
            return
          </CharString>
          <CharString index="289">
            -40 14 16 -25 vhcurveto
            106 30 102 85 111 vvcurveto
            73 -46 39 -79 -120 -103 -93 -119 return
          </CharString>
          <CharString index="290">
            -120 -43 -40 -41 -48 hhcurveto
            -26 -10 12 23 17 5 22 8 28 hvcurveto
            257 913 rlineto
            return
          </CharString>
          <CharString index="291">
            -171 hlineto
            -13 -41 rlineto
            173 12 callgsubr
            return
          </CharString>
          <CharString index="292">
            149 callsubr
            -13 13 29 15 3 20 8 25 hvcurveto
            269 913 rlineto
            return
          </CharString>
          <CharString index="293">
            rmoveto
            -1125 hlineto
            -60 -204 rlineto
            1124 hlineto
            endchar
          </CharString>
          <CharString index="294">
            -43 -154 -58 -55 -102 -12 rrcurveto
            endchar
          </CharString>
          <CharString index="295">
            -79 42 -56 90 return
          </CharString>
          <CharString index="296">
            1133 rmoveto
            -20 59 -1131 -465 799 -430 33 65 -678 357 rlineto
            return
          </CharString>
          <CharString index="297">
            85 43 98 41 85 7 rrcurveto
            -53 31 66 -34 76 hhcurveto
            405 232 485 316 return
          </CharString>
          <CharString index="298">
            -45 -25 293 callsubr
            152 hvcurveto
            return
          </CharString>
          <CharString index="299">
            hlineto
            126 55 -47 -130 -40 -5 return
          </CharString>
          <CharString index="300">
            236 hlineto
            6 41 rlineto
            return
          </CharString>
          <CharString index="301">
            151 callsubr
            50 -21 return
          </CharString>
          <CharString index="302">
            272.380004883 return
          </CharString>
          <CharString index="303">
            -61 vvcurveto
            -24 -7 return
          </CharString>
          <CharString index="304">
            377 rmoveto
            20 -60 1076 445 -879 473 -33 -59 758 -406 rlineto
            return
          </CharString>
          <CharString index="305">
            61 202 callgsubr
            return
          </CharString>
          <CharString index="306">
            -72 131 callgsubr
            88 103 68 80 101 99 -59 84 -130 vhcurveto
            return
          </CharString>
          <CharString index="307">
            41 rlineto
            -84 -4 return
          </CharString>
          <CharString index="308">
            -240 -29 41 1028 41 -11 -20 hstemhm
            25 299 397 299 hintmask 11011000
            return
          </CharString>
          <CharString index="309">
            1555 rmoveto
            30 -40 -72 16 -79 hhcurveto
            -190 -164 -29 -93 -140 hvcurveto
            return
          </CharString>
          <CharString index="310">
            1546 rmoveto
            42 -47 -84 14 -74 hhcurveto
            -187 -159 -31 -92 -140 hvcurveto
            return
          </CharString>
          <CharString index="311">
            102 37 -25 -54 -16 -3 -19 -6 -21 hvcurveto
            -406 137 callgsubr
            return
          </CharString>
          <CharString index="312">
            238 callgsubr
            60 vvcurveto
            return
          </CharString>
          <CharString index="313">
            208 callsubr
            39 149 return
          </CharString>
          <CharString index="314">
            282 callsubr
            61 return
          </CharString>
          <CharString index="315">
            270 1016 return
          </CharString>
          <CharString index="316">
            231 callgsubr
            hintmask 0110011111100000
            return
          </CharString>
          <CharString index="317">
            -32 20 -102 -155 -164 -97 -171 -1 rlinecurve
            -54 -49 11 13 -25 hvcurveto
            return
          </CharString>
          <CharString index="318">
            hvcurveto
            7 -52 4 -56 -60 vvcurveto
            -360 -150 -490 -177 vhcurveto
            endchar
          </CharString>
          <CharString index="319">
            197 164 47 295 44 return
          </CharString>
          <CharString index="320">
            rmoveto
            -854 -852 854 hlineto
            return
          </CharString>
          <CharString index="321">
            201 callgsubr
            59 24 return
          </CharString>
          <CharString index="322">
            -180 0 41 1362 41 -41 47 hstemhm
            -88 1414 hintmask 11010000
            return
          </CharString>
          <CharString index="323">
            -131 -48 -42 -30 -36 hhcurveto
            -23 -14 10 31 12 2 14 4 18 hvcurveto
            return
          </CharString>
          <CharString index="324">
            232 callgsubr
            -81 -17 return
          </CharString>
          <CharString index="325">
            -4 -116 -2 -122 -117 -122 2 -70 hflex1
            -10 -41 rlineto
            return
          </CharString>
          <CharString index="326">
            hflex1
            -9 -41 rlineto
            83 -4 35 -12 -58 vvcurveto
            297 callsubr
            vhcurveto
            return
          </CharString>
          <CharString index="327" raw="1">
            85198262 05d78ff7 138d0b 
          </CharString>
          <CharString index="328" raw="1">
            1efba3fe 8cc30a0b  
          </CharString>
          <CharString index="329">
            hstem
            143 317 return
          </CharString>
          <CharString index="330">
            -6 283 callsubr
            return
          </CharString>
          <CharString index="331">
            129 80 32 31 57 vhcurveto
            hintmask 11111100
            94 52 82 82 101 vvcurveto
            78 return
          </CharString>
          <CharString index="332">
            -29 260 -239 -21 172 169 296 41 164 41 return
          </CharString>
          <CharString index="333">
            448 216 466 313 221 -121 116 -210 return
          </CharString>
          <CharString index="334">
            72 179 337 112 hvcurveto
            8 21 55 156 rlineto
            endchar
          </CharString>
          <CharString index="335">
            -2 76 hflex1
            return
          </CharString>
          <CharString index="336">
            13 hvcurveto
            hintmask 11111010
            -88 -34 -87 -77 -100 vvcurveto
            -75 51 -52 76 92 return
          </CharString>
          <CharString index="337">
            -663 221 callgsubr
            53 269 return
          </CharString>
          <CharString index="338">
            hstemhm
            296 252 33 280 -234 267 -35 303 return
          </CharString>
          <CharString index="339">
            -136 -128 2 -72 hflex1
            -8 -41 rlineto
            99 -4 39 -12 return
          </CharString>
          <CharString index="340">
            -10 -41 rlineto
            98 -4 39 -37 callgsubr
            return
          </CharString>
          <CharString index="341">
            0 41 1157 47 -41 41 hstemhm
            return
          </CharString>
          <CharString index="342">
            -29 61 callsubr
            return
          </CharString>
          <CharString index="343">
            -368 -21 389 41 1163 return
          </CharString>
          <CharString index="344">
            -59 -57 -111 -131 -141 rrcurveto
            return
          </CharString>
          <CharString index="345">
            -131 -47 -43 -30 -36 hhcurveto
            return
          </CharString>
          <CharString index="346">
            vvcurveto
            -24 -4 -27 -8 -32 vhcurveto
            return
          </CharString>
          <CharString index="347">
            rmoveto
            -37 -47 -11 -36 -44 hvcurveto
            return
          </CharString>
          <CharString index="348">
            283 callgsubr
            441 21 return
          </CharString>
          <CharString index="349">
            vvcurveto
            9 0 8 -2 5 vhcurveto
            return
          </CharString>
          <CharString index="350">
            0 47 1362 41 return
          </CharString>
          <CharString index="351">
            48 44 23 36 37 vhcurveto
            return
          </CharString>
          <CharString index="352">
            6 33 12 43 hvcurveto
            return
          </CharString>
          <CharString index="353">
            11 60 24 6 32 return
          </CharString>
          <CharString index="354">
            -21 985 102 return
          </CharString>
          <CharString index="355">
            79 1 -21 480 33 98 32 438 -20 44 -20 hstemhm
            return
          </CharString>
          <CharString index="356">
            18 vhcurveto
            3 11 2 10 10 vvcurveto
            47 -34 35 -53 -61 -66 return
          </CharString>
          <CharString index="357">
            hlineto
            128 483 rlineto
            149 39 31 21 135 hhcurveto
            return
          </CharString>
          <CharString index="358">
            135 -58 190 328 193 196 200 vhcurveto
            return
          </CharString>
          <CharString index="359">
            6 109 110 126 -6 55 hflex1
            10 43 rlineto
            return
          </CharString>
          <CharString index="360">
            -72 260 callsubr
            return
          </CharString>
          <CharString index="361">
            2 -68 hflex1
            return
          </CharString>
          <CharString index="362">
            271 1016 return
          </CharString>
          <CharString index="363">
            -144 -54 -41 -57 -81 -115 -80 79 -160 hhcurveto
            return
          </CharString>
          <CharString index="364">
            hlineto
            102 381 rlineto
            150 39 31 20 135 hhcurveto
            return
          </CharString>
          <CharString index="365">
            2 -70 hflex1
            -10 -41 rlineto
            98 -4 39 -12 -61 vvcurveto
            return
          </CharString>
          <CharString index="366">
            hlineto
            140 303 rlineto
            -49 hlineto
            -140 -303 rlineto
            return
          </CharString>
          <CharString index="367">
            131 callgsubr
            87 104 68 80 101 return
          </CharString>
          <CharString index="368" raw="1">
            fb1cfb14 8d450c24 816205ed 870b
          </CharString>
          <CharString index="369">
            hlineto
            -138 -299 rlineto
            49 hlineto
            138 299 rlineto
            return
          </CharString>
          <CharString index="370">
            vstem
            1008 956 rmoveto
            -813 -852 813 hlineto
            return
          </CharString>
          <CharString index="371">
            158 callsubr
            101 -80 -21 return
          </CharString>
          <CharString index="372">
            332 rmoveto
            -39 hlineto
            -37 -99 rlineto
            return
          </CharString>
          <CharString index="373">
            hvcurveto
            -37 10 rlineto
            -86 return
          </CharString>
          <CharString index="374">
            rcurveline
            45 hlineto
            160 return
          </CharString>
          <CharString index="375">
            rlinecurve
            9 41 rlineto
            -4 return
          </CharString>
          <CharString index="376">
            -385 102 283 return
          </CharString>
          <CharString index="377">
            54 341 53 vstem
            return
          </CharString>
          <CharString index="378">
            41 508 41 return
          </CharString>
          <CharString index="379">
            1444 rmoveto
            return
          </CharString>
          <CharString index="380">
            92 129 40 171 60 224 callgsubr
            return
          </CharString>
          <CharString index="381">
            35 96 rrcurveto
            -6 -130 -172 0 -124 hhcurveto
            return
          </CharString>
          <CharString index="382">
            rmoveto
            206 callgsubr
            return
          </CharString>
          <CharString index="383">
            -169 -617 -184 -407 -157 -141 return
          </CharString>
          <CharString index="384">
            84 -6 150 hflex1
            164 124 6 99 return
          </CharString>
          <CharString index="385">
            47 688 35 639 return
          </CharString>
          <CharString index="386">
            81 -43 -90 -102 -94 -78 return
          </CharString>
          <CharString index="387">
            -8 -21 1116 -20 hstem
            return
          </CharString>
          <CharString index="388">
            158 41 215 43 return
          </CharString>
          <CharString index="389">
            37 -29 -20 hstemhm
            return
          </CharString>
          <CharString index="390">
            rlinecurve
            -10 -41 rlineto
            return
          </CharString>
          <CharString index="391">
            -4 -116 -2 -119 -128 -130 2 return
          </CharString>
          <CharString index="392">
            -385 31 375 -21 1017 41 29 -20 return
          </CharString>
          <CharString index="393">
            146 146 -2 87 hflex1
            8 41 rlineto
            return
          </CharString>
          <CharString index="394">
            hvcurveto
            101 22 77 94 102 vvcurveto
            86 -57 45 -81 return
          </CharString>
          <CharString index="395">
            4 124 2 136 119 127 -2 return
          </CharString>
          <CharString index="396">
            -20 hstemhm
            79 249 -40 265 101 275 return
          </CharString>
          <CharString index="397">
            1241 rmoveto
            -152 101 -86 166 vhcurveto
            return
          </CharString>
          <CharString index="398">
            1132 hintmask 00000000
            hintmask 10100000
            return
          </CharString>
          <CharString index="399">
            -360 21 -21 1042 45 return
          </CharString>
          <CharString index="400">
            47 84 163 82 313 return
          </CharString>
          <CharString index="401">
            rmoveto
            -118 -127 2 4 return
          </CharString>
          <CharString index="402">
            47 1157 41 return
          </CharString>
          <CharString index="403">
            181 callsubr
            -4 return
          </CharString>
          <CharString index="404">
            -25 -6 -33 -12 -44 return
          </CharString>
          <CharString index="405">
            9 -8 7 vhcurveto
            return
          </CharString>
          <CharString index="406">
            43 313 43 return
          </CharString>
          <CharString index="407">
            69 callgsubr
            -74 -4 -128 -2 return
          </CharString>
          <CharString index="408">
            192 216 172 259 142 return
          </CharString>
          <CharString index="409">
            1075 213 callgsubr
            return
          </CharString>
          <CharString index="410">
            6 rlinecurve
            8 41 rlineto
            -76 -4 -127 -2 return
          </CharString>
          <CharString index="411">
            -49 -19 -45 -11 -33 rrcurveto
            45 hlineto
            311 return
          </CharString>
          <CharString index="412">
            hlineto
            17 36 14 40 12 45 11 43 rcurveline
            return
          </CharString>
          <CharString index="413">
            rlineto
            -471 hlineto
            -8 -39 rlineto
            166 hlineto
            return
          </CharString>
          <CharString index="414">
            rmoveto
            -13 -40 rlineto
            758 hlineto
            13 40 rlineto
            return
          </CharString>
          <CharString index="415">
            rlineto
            471 hlineto
            8 39 rlineto
            -166 hlineto
            return
          </CharString>
          <CharString index="416">
            hintmask 00000000
            hintmask 11100000
            return
          </CharString>
          <CharString index="417">
            hlineto
            -36 -99 rlineto
            return
          </CharString>
          <CharString index="418">
            -10 -53 -44 vvcurveto
            return
          </CharString>
        <CharString name=".notdef">
          -171 0 61 1459 61 hstem
          123 74 757 74 vstem
          1028 1581 rmoveto
          -905 -1581 905 hlineto
          -74 61 rmoveto
          -757 1459 757 hlineto
          endchar
        </CharString>
        <CharString name="A">
          66 callsubr
          hstem
          -189 1382 vstem
          1010 1460 -105 callgsubr
        </CharString>
        <CharString name="AE">
          531 0 41 -41 106 callgsubr
          -41 41 hstemhm
          -176 313 -313 2126 hintmask 01110010
          1524 272 callsubr
          -87 -149 0 1 -154 hvcurveto
          117 138 rlineto
          -53 hlineto
          -116 -137 -76 1 -75 1 -67 2 rlinecurve
          hintmask 01101010
          -10 -41 93 -4 41 -11 4 -54 rlinecurve
          -992 -1168 98 callgsubr
          438 516 rlineto
          328 267 callgsubr
          rlineto
          hintmask 01110010
          -62 callsubr
          -9 -41 rcurveline
          223 6 303 0 138 137 187 0 139 hflex1
          14 104 25 107 14 51 14 57 15 54 14 37 rrcurveto
          -45 hlineto
          -271 -92 -78 -92 -197 hhcurveto
          -149 hlineto
          -96 -38 246 callsubr
          11 83 callgsubr
          162 hlineto
          88 -6 19 -44 -53 -41 -11 -46 -40 vvcurveto
          45 hlineto
          25 135 12 56 17 59 22 139 callgsubr
          -110 -123 hhcurveto
          -159 250 callsubr
          129 192 callsubr
          -48 -10 -57 hvcurveto
          45 hlineto
          4 31 9 47 14 49 14 47 29 99 274 callsubr
          -677 -694 rmoveto
          -304 hlineto
          441 518 -9 -35 rlineto
          endchar
        </CharString>
        <CharString name="Aacute">
          66 callsubr
          hstem
          -189 1603 vstem
          1404 1903 116 callgsubr
          29 40 42 47 vvcurveto
          13 -3 14 -7 14 vhcurveto
          -394 -443 -105 callgsubr
        </CharString>
        <CharString name="Abreve">
          66 callsubr
          138 201 hstem
          -189 1677 vstem
          1465 1896 rmoveto
          146 callgsubr
          204 219 149 149 107 hvcurveto
          -478 -416 -105 callgsubr
        </CharString>
        <CharString name="Acircumflex">
          66 callsubr
          hstem
          -189 1580 vstem
          1070 1925 rmoveto
          -119 -124 -208 -122 -228 -72 10 -28 rcurveline
          164 30 163 48 118 44 112 -49 104 -40 197 -33 8 28 rcurveline
          -152 75 -74 100 -58 143 rrcurveto
          -97 -465 -105 callgsubr
        </CharString>
        <CharString name="Adieresis">
          66 callsubr
          hstem
          573 58 callgsubr
          vstem
          705 1569 87 callgsubr
          -231 -418 -105 callgsubr
        </CharString>
        <CharString name="Agrave">
          66 callsubr
          hstem
          -189 1382 vstem
          661 1740 rmoveto
          82 -55 98 200 callgsubr
          17 23 rcurveline
          -59 callgsubr
          349 -280 -105 callgsubr
        </CharString>
        <CharString name="Amacron">
          66 callsubr
          237 52 hstem
          -189 1564 vstem
          1375 1729 rmoveto
          -820 hlineto
          -12 -52 rlineto
          819 hlineto
          -352 -217 -105 callgsubr
        </CharString>
        <CharString name="Aogonek">
          15 269 callsubr
          106 callsubr
          hstem
          677 231 vstem
          1116 3 rmoveto
          26 -1 24 -1 19 -1 8 41 rcurveline
          -41 2 -51 31 -9 98 -82 1288 rcurveline
          -15 -2 -18 0 -18 -18 -18 0 -17 hflex1
          -854 -1202 -105 -147 -57 -52 -70 -18 rlinecurve
          -9 -41 rlineto
          43 4 36 2 62 74 79 -2 115 119 callsubr
          6 -66 28 68 vvcurveto
          37 20 50 45 64 vhcurveto
          181 255 rlineto
          443 hlineto
          18 -336 rlineto
          -8 1 -8 -7 vvcurveto
          -119 -54 -24 -123 -6 vhcurveto
          -9 -41 rlineto
          4 66 119 2 123 hhcurveto
          55 63 -1 -1 58 hvcurveto
          -188 -47 -199 -90 -130 22 callgsubr
          90 89 88 119 46 hvcurveto
          -371 587 rmoveto
          -412 hlineto
          382 541 rlineto
          endchar
        </CharString>
        <CharString name="Aring">
          66 callsubr
          80 269 callgsubr
          774 270 callsubr
          967 1520 rmoveto
          135 120 101 123 107 -87 68 -113 -138 90 callsubr
          hvcurveto
          48 356 rmoveto
          73 81 -43 -91 -102 -94 -77 -98 -74 -75 45 89 93 87 86 100 hvcurveto
          -5 -416 -105 callgsubr
        </CharString>
        <CharString name="Atilde">
          66 callsubr
          132 177 254 callgsubr
          -189 1665 hintmask 11101100
          1439 1867 rmoveto
          hintmask 11110100
          -86 -51 -49 -32 -58 hhcurveto
          hintmask 11101100
          150 callgsubr
          35 callgsubr
          hintmask 11110100
          151 34 -150 204 hhcurveto
          126 136 82 203 78 hvcurveto
          -466 -397 -105 callgsubr
        </CharString>
        <CharString name="B">
          -46 callgsubr
        </CharString>
        <CharString name="C">
          38 callgsubr
          hintmask 00000000
          hintmask 10101000
          1484 1450 -99 callgsubr
        </CharString>
        <CharString name="CR">
          -1322 endchar
        </CharString>
        <CharString name="Cacute">
          38 callgsubr
          hintmask 10011000
          914 1581 rmoveto
          -58 callsubr
          52 29 40 42 -103 callsubr
          rrcurveto
          hintmask 10101000
          584 -155 -99 callgsubr
        </CharString>
        <CharString name="Cacute.loclPLK">
          38 callgsubr
          hintmask 10011000
          993 1554 rmoveto
          144 134 165 callsubr
          -74 callgsubr
          rrcurveto
          hintmask 10101000
          514 -119 -99 callgsubr
        </CharString>
        <CharString name="Ccaron">
          38 callgsubr
          hintmask 10011000
          1155 -24 callgsubr
          hintmask 10101000
          329 -347 -99 callgsubr
        </CharString>
        <CharString name="Ccedilla">
          97 193 callgsubr
          80 62 -12 -21 1430 20 -20 49 hstemhm
          87 365 210 210 hintmask 00000000
          hintmask 10101011
          1484 1450 rmoveto
          -83 -31 -26 -39 -26 hhcurveto
          -10 -10 6 12 -10 hvcurveto
          hintmask 11100111
          68 -61 -74 65 -169 hhcurveto
          -569 -411 -521 -480 -314 169 -183 351 -10 hvcurveto
          -82 -180 rlineto
          -63 callsubr
          46 100 157 6 113 56 106 71 rlinecurve
          12 17 14 6 11 hhcurveto
          hintmask 10010111
          17 8 -17 -35 -19 -2 -22 -4 -29 hvcurveto
          45 hlineto
          18 104 35 140 68 248 rrcurveto
          -45 hlineto
          -66 -160 -45 -87 -74 -77 rrcurveto
          hintmask 10100111
          -87 -83 -122 -48 -100 hhcurveto
          -170 -108 127 278 491 301 501 339 105 85 -39 -95 52 hvcurveto
          23 -42 10 -51 -61 vvcurveto
          -48 -6 -54 -10 -61 vhcurveto
          45 hlineto
          hintmask 10101011
          47 219 43 145 41 107 rrcurveto
          endchar
        </CharString>
        <CharString name="Ccircumflex">
          38 callgsubr
          hintmask 10011000
          1042 1701 rmoveto
          112 -49 104 -40 -103 callgsubr
          hintmask 10101000
          442 -251 -99 callgsubr
        </CharString>
        <CharString name="Cdotaccent">
          38 callgsubr
          439 362 hintmask 10011100
          891 51 callgsubr
          hintmask 10101100
          593 -241 rmoveto
          -83 -31 -26 -39 -26 hhcurveto
          -10 -10 6 12 -10 hvcurveto
          hintmask 10011100
          68 -61 -74 65 -169 hhcurveto
          -569 -411 -521 -480 -323 179 -184 371 170 120 58 75 111 hvcurveto
          12 17 14 6 11 hhcurveto
          hintmask 01011100
          17 8 -17 -35 -19 -2 -22 -4 -29 hvcurveto
          45 hlineto
          18 104 35 140 68 248 rrcurveto
          -45 hlineto
          -66 -160 -45 -87 -74 -77 rrcurveto
          hintmask 10011100
          -87 -83 -122 -48 -100 hhcurveto
          -170 -108 127 278 491 301 501 339 105 85 -39 -95 52 hvcurveto
          23 -42 10 -51 -61 vvcurveto
          -48 -6 -54 -10 -61 vhcurveto
          45 hlineto
          hintmask 10101100
          47 219 43 145 41 107 rrcurveto
          endchar
        </CharString>
        <CharString name="D">
          257 0 37 1376 37 hstem
          1217 332 vstem
          1549 961 -10 callsubr
        </CharString>
        <CharString name="Dcaron">
          257 0 37 1376 37 hstem
          1217 332 vstem
          1040 -24 callgsubr
          509 -836 -10 callsubr
        </CharString>
        <CharString name="Dcroat">
          -38 callsubr
        </CharString>
        <CharString name="Delta">
          -176 0 61 1418 -20 hstem
          39 905 vstem
          548 256 callgsubr
          -32 hlineto
          -477 -1479 rlineto
          151 4 152 2 151 150 151 -2 150 hflex1
          -844 61 rmoveto
          287 902 247 -902 rlineto
          endchar
        </CharString>
        <CharString name="E">
          55 callgsubr
          hstem
          1227 43 vstem
          958 272 callsubr
          158 callgsubr
          6 -221 hvcurveto
          -11 -41 rlineto
          -106 callgsubr
          42 callgsubr
          39 callgsubr
        </CharString>
        <CharString name="Eacute">
          55 callgsubr
          hstem
          1227 43 vstem
          1239 1744 rmoveto
          52 29 40 42 47 vvcurveto
          13 -3 14 -7 14 vhcurveto
          123 callsubr
          -281 -300 rmoveto
          158 callgsubr
          6 -221 hvcurveto
          -11 -41 rlineto
          -106 callgsubr
          42 callgsubr
          39 callgsubr
        </CharString>
        <CharString name="Ebreve">
          55 callgsubr
          -41 41 128 201 hstemhm
          1227 43 hintmask 11101100
          875 1578 rmoveto
          204 219 149 149 107 hvcurveto
          -23 20 rlineto
          146 callgsubr
          hintmask 11011100
          -592 -169 rmoveto
          -106 callgsubr
          hintmask 11101100
          42 callgsubr
          -126 -6 -169 0 -122 158 callgsubr
          -221 hflex1
          endchar
        </CharString>
        <CharString name="Ecaron">
          55 callgsubr
          -41 41 hstemhm
          1227 43 hintmask 11101000
          901 -40 callgsubr
          hintmask 11011000
          -581 -164 rmoveto
          -106 callgsubr
          hintmask 11101000
          42 callgsubr
          -126 -6 -169 0 -122 158 callgsubr
          -221 hflex1
          endchar
        </CharString>
        <CharString name="Ecircumflex">
          55 callgsubr
          hstem
          1227 43 vstem
          887 1701 rmoveto
          112 -49 104 -40 -103 callgsubr
          71 -257 rmoveto
          158 callgsubr
          6 -221 hvcurveto
          -11 -41 rlineto
          -106 callgsubr
          42 callgsubr
          39 callgsubr
        </CharString>
        <CharString name="Edieresis">
          55 callgsubr
          hstemhm
          490 58 callgsubr
          -64 43 hintmask 11110100
          622 1569 rmoveto
          -63 callgsubr
          -92 -85 -64 -110 -79 43 -56 89 hvcurveto
          hintmask 11111000
          -21 callsubr
          -155 -125 rmoveto
          158 callgsubr
          6 -221 hvcurveto
          -11 -41 rlineto
          -106 callgsubr
          32 callsubr
          hintmask 11110100
          -64 callsubr
          hintmask 11111000
          39 callgsubr
        </CharString>
        <CharString name="Edotaccent">
          55 callgsubr
          hstem
          736 362 129 43 vstem
          885 167 callsubr
          73 -122 rmoveto
          158 callgsubr
          6 -221 hvcurveto
          -11 -41 rlineto
          -106 callgsubr
          42 callgsubr
          39 callgsubr
        </CharString>
        <CharString name="Egrave">
          55 callgsubr
          hstem
          1227 43 vstem
          578 1740 rmoveto
          82 -55 98 200 callgsubr
          17 23 rcurveline
          -59 callgsubr
          380 -296 rmoveto
          158 callgsubr
          6 -221 hvcurveto
          -11 -41 rlineto
          -106 callgsubr
          42 callgsubr
          39 callgsubr
        </CharString>
        <CharString name="Emacron">
          55 callgsubr
          227 52 hstem
          1227 43 vstem
          1279 89 callgsubr
          498 -233 rmoveto
          158 callgsubr
          6 -221 hvcurveto
          -11 -41 rlineto
          -106 callgsubr
          42 callgsubr
          39 callgsubr
        </CharString>
        <CharString name="Eng">
          155 -385 34 351 122 callsubr
          hstemhm
          -82 1727 -1137 331 hintmask 11110000
          1457 272 callsubr
          -71 -79 2 4 -47 hvcurveto
          -11 -41 rlineto
          105 -4 40 -16 -64 vvcurveto
          -26 -6 -32 -11 -42 vhcurveto
          -202 -767 -545 992 rlineto
          -47 -4 -57 -2 -62 -72 -67 120 callgsubr
          rlineto
          109 -4 43 -13 -64 vvcurveto
          -24 -6 -31 -11 -40 vhcurveto
          -268 -1008 -39 -149 -32 -29 -141 -6 rlinecurve
          -9 -41 rlineto
          46 4 77 2 70 71 73 293 callgsubr
          -105 4 -41 16 64 vvcurveto
          25 7 33 11 42 vhcurveto
          237 892 630 -1129 rlineto
          -169 -44 -76 -170 -163 hhcurveto
          -16 -17 3 4 -12 hvcurveto
          hintmask 11101000
          199 callgsubr
          118 208 92 169 264 57 vhcurveto
          312 1177 38 149 33 29 136 callsubr
          hintmask 11110000
          -4 -47 -71 -2 -70 hhcurveto
          endchar
        </CharString>
        <CharString name="Eogonek">
          -40 269 callsubr
          47 -41 41 132 callgsubr
          hstemhm
          589 231 407 43 hintmask 11011110
          958 272 callsubr
          158 callgsubr
          6 -221 hvcurveto
          -11 93 callsubr
          -24 -7 229 callgsubr
          10 callgsubr
          -9 -41 rlineto
          6 222 305 0 138 hhcurveto
          hintmask 10111110
          114 151 0 -3 127 hvcurveto
          -186 -48 -194 -89 -129 22 callgsubr
          hvcurveto
          hintmask 11011110
          89 86 86 116 47 vhcurveto
          20 -1 15 104 25 107 14 51 rlinecurve
          14 57 16 54 14 37 rrcurveto
          -46 hlineto
          -271 -120 -102 -92 -220 119 callgsubr
          60 24 6 32 12 83 callgsubr
          65 hlineto
          142 29 -103 -98 -15 -1 -15 -1 -15 hvcurveto
          46 hlineto
          27 143 10 46 21 77 21 79 13 61 42 126 rrcurveto
          -46 hlineto
          -110 -44 -86 -135 -151 hhcurveto
          -76 hlineto
          129 483 rlineto
          42 callgsubr
          39 callgsubr
        </CharString>
        <CharString name="Eth">
          -38 callsubr
        </CharString>
        <CharString name="Euro">
          17 -29 45 592 41 164 41 578 47 hstemhm
          227 323 270 307 -34 301 hintmask 11111010
          1310 1408 rmoveto
          30 -35 -61 41 -119 hhcurveto
          -361 -274 -305 -320 -136 hvcurveto
          -184 272 callgsubr
          179 hlineto
          -22 -55 -17 -55 -13 -54 rrcurveto
          -170 272 callgsubr
          173 hlineto
          -13 -62 -6 -59 -54 vvcurveto
          -316 167 -146 291 224 callsubr
          -42 52 -84 -96 -85 -84 -115 -60 34 -52 45 -24 vhcurveto
          -28 -33 -70 -20 -55 hhcurveto
          -134 -57 99 213 87 11 95 20 98 hvcurveto
          221 hlineto
          37 41 rlineto
          -249 hlineto
          13 55 15 55 18 54 rrcurveto
          338 hlineto
          35 41 rlineto
          -359 hlineto
          308 109 185 270 195 hhcurveto
          60 56 -27 -29 229 callsubr
          82 79 113 67 -30 65 -54 46 vhcurveto
          endchar
        </CharString>
        <CharString name="Euro.smcp">
          -67 -29 45 490 41 164 41 475 47 hstemhm
          190 324 237 307 -116 302 hintmask 11111010
          1160 1203 rmoveto
          30 -35 -61 41 -120 hhcurveto
          -315 -245 -255 -267 -117 hvcurveto
          -155 272 callgsubr
          150 hlineto
          -22 -55 -16 -56 -10 -53 rrcurveto
          -145 hlineto
          -13 -41 rlineto
          151 hlineto
          -3 -28 -2 -27 -26 vvcurveto
          -323 141 -131 285 224 callsubr
          -41 52 -84 -97 -85 -84 -115 -60 35 -52 44 -24 vhcurveto
          -28 -33 -70 -20 -55 hhcurveto
          -111 -47 96 221 56 5 58 8 59 hvcurveto
          222 hlineto
          37 41 rlineto
          -252 hlineto
          9 55 13 55 16 54 rrcurveto
          349 hlineto
          35 41 rlineto
          -371 hlineto
          259 85 153 216 165 hhcurveto
          59 57 -26 -30 229 callsubr
          83 80 112 67 -32 65 -52 46 vhcurveto
          endchar
        </CharString>
        <CharString name="F">
          -117 0 41 659 41 662 41 -41 47 hstemhm
          -88 1463 hintmask 11101000
          958 272 callsubr
          hintmask 11011000
          158 callgsubr
          6 -221 hvcurveto
          -11 93 callsubr
          -24 -7 -26 callsubr
          129 483 rlineto
          84 hlineto
          129 34 -96 -140 -15 0 -15 -1 -16 hvcurveto
          46 hlineto
          27 143 18 82 19 78 20 79 14 61 41 126 rrcurveto
          -46 hlineto
          -123 -53 -81 -123 -146 hhcurveto
          -94 hlineto
          86 callgsubr
          hintmask 11101000
          149 37 30 21 128 hhcurveto
          47 hlineto
          168 74 -67 -193 -36 -3 -41 -5 -46 hvcurveto
          46 hlineto
          9 48 15 62 20 70 rrcurveto
          hintmask 11011000
          20 76 23 74 37 100 rrcurveto
          hintmask 11101000
          39 callgsubr
        </CharString>
        <CharString name="G">
          191 -29 74 callgsubr
          hintmask 10110100
          696 12 -79 callsubr
        </CharString>
        <CharString name="Gacute">
          191 -29 74 callgsubr
          hintmask 10110100
          938 1581 rmoveto
          -58 callsubr
          52 29 40 42 -103 callsubr
          rrcurveto
          -228 -1593 -79 callsubr
        </CharString>
        <CharString name="Gbreve">
          191 -29 41 9 -21 582 41 819 37 -29 -20 148 201 hstemhm
          78 325 hintmask 10110110
          1093 -36 callgsubr
          -397 -1767 -40 callsubr
          hintmask 10101110
          48 219 43 145 41 107 rrcurveto
          -46 179 callgsubr
          -11 -12 7 12 -12 hvcurveto
          hintmask 10110110
          73 -76 -82 60 -178 hhcurveto
          -586 -397 -576 -463 -299 207 -170 356 102 91 25 55 103 hvcurveto
          31 62 59 35 52 hhcurveto
          hintmask 01110110
          -69 callsubr
          hintmask 10110110
          -20 -76 -16 -43 -48 -31 rrcurveto
          -25 -38 -59 -18 -61 hhcurveto
          endchar
        </CharString>
        <CharString name="Gcircumflex">
          191 -29 74 callgsubr
          hintmask 10110100
          1066 1701 rmoveto
          112 -49 104 -40 -103 callgsubr
          -370 -1689 -79 callsubr
        </CharString>
        <CharString name="Gcommaaccent">
          191 158 callsubr
          74 callgsubr
          95 325 hintmask 11011010
          696 12 -40 callsubr
          hintmask 11010110
          48 219 43 145 41 107 rrcurveto
          -46 179 callgsubr
          -11 -12 7 12 -12 hvcurveto
          hintmask 11011010
          73 -76 -82 60 -178 hhcurveto
          -586 -397 -576 -463 -299 207 -170 356 102 91 25 55 103 hvcurveto
          31 62 59 35 52 hhcurveto
          hintmask 10111010
          -69 callsubr
          hintmask 11011010
          -20 -76 -16 -43 -48 -31 rrcurveto
          -25 -38 -59 -18 -61 hhcurveto
          hintmask 11011011
          -198 -282 rmoveto
          -67 47 -33 76 49 166 callsubr
          vhcurveto
          -71 callsubr
          -101 -84 -68 -94 vhcurveto
          endchar
        </CharString>
        <CharString name="Gdotaccent">
          191 -29 74 callgsubr
          512 362 hintmask 10110110
          915 51 callgsubr
          -219 -1679 -40 callsubr
          hintmask 10101110
          48 219 43 145 41 107 rrcurveto
          -46 179 callgsubr
          -11 -12 7 12 -12 hvcurveto
          hintmask 10110110
          73 -76 -82 60 -178 hhcurveto
          -586 -397 -576 -463 -299 207 -170 356 102 91 25 55 103 hvcurveto
          31 62 59 35 52 hhcurveto
          hintmask 01110110
          -69 callsubr
          hintmask 10110110
          -20 -76 -16 -43 -48 -31 rrcurveto
          -25 -38 -59 -18 -61 hhcurveto
          endchar
        </CharString>
        <CharString name="H">
          142 callsubr
          1472 1444 -83 callgsubr
        </CharString>
        <CharString name="Hbar">
          338 0 41 668 41 301 41 317 41 hstem
          -82 1895 vstem
          1813 1450 rmoveto
          -75 -4 -127 210 callgsubr
          -62 vvcurveto
          -24 208 callgsubr
          -38 -141 rlineto
          -534 hlineto
          37 141 20 callgsubr
          -84 -4 -120 159 callsubr
          -38 -141 rlineto
          -169 hlineto
          -10 -41 rlineto
          168 hlineto
          -222 -834 -78 callsubr
          -10 -41 rlineto
          74 4 124 2 136 119 127 -2 76 -87 callgsubr
          86 callgsubr
          534 267 callgsubr
          -38 -149 -33 -21 -139 -6 rlinecurve
          -9 -41 rlineto
          76 4 127 3 callsubr
          61 -48 callgsubr
          43 vhcurveto
          222 834 rlineto
          184 hlineto
          11 41 rlineto
          -184 hlineto
          37 141 -25 callsubr
          -585 -358 rmoveto
          -80 -301 rlineto
          -534 hlineto
          80 301 rlineto
          endchar
        </CharString>
        <CharString name="Hcircumflex">
          142 callsubr
          1071 1701 rmoveto
          112 -49 104 -40 -103 callgsubr
          401 -257 -83 callgsubr
        </CharString>
        <CharString name="I">
          81 callsubr
          hstem
          -85 1034 vstem
          728 1233 rmoveto
          -104 callgsubr
          endchar
        </CharString>
        <CharString name="IJ">
          431 -385 34 351 41 668 41 316 -20 115 146 -43 249 hstemhm
          205 146 94 331 hintmask 11111011
          1932 1495 rmoveto
          7 -8 -9 4 -10 hhcurveto
          -37 -45 -50 -70 -45 hvcurveto
          -54 -132 -146 -25 -128 -334 -126 206 -353 hhcurveto
          hintmask 11110111
          -226 -128 -115 -161 -157 117 -85 153 -32 hvcurveto
          -226 -746 -45 -147 -28 -23 -134 223 callsubr
          72 4 118 -10 callgsubr
          9 41 rlineto
          -101 3 -40 15 58 vvcurveto
          25 7 33 13 42 vhcurveto
          227 749 63 15 54 23 51 28 rlinecurve
          -15 34 rlineto
          -46 -87 -86 -29 -137 hhcurveto
          -169 -125 53 105 79 64 36 101 hvcurveto
          hintmask 11111011
          237 161 -103 242 hhcurveto
          227 118 110 71 235 hvcurveto
          -248 -173 -191 -139 -119 -280 rrcurveto
          -276 hlineto
          -7 -41 rlineto
          267 hlineto
          -17 -45 -15 -48 -14 -52 -111 -421 rcurveline
          -295 -75 -44 -199 -164 hhcurveto
          -20 296 callgsubr
          68 29 43 49 64 vvcurveto
          80 -69 47 -91 -109 -62 -68 -84 -115 126 -43 162 360 173 240 278 67 vhcurveto
          126 523 13 53 rlineto
          216 hlineto
          7 41 rlineto
          -212 hlineto
          71 270 83 204 160 140 rrcurveto
          108 41 41 36 28 vvcurveto
          10 -5 9 -9 7 vhcurveto
          endchar
        </CharString>
        <CharString name="Iacute">
          81 callsubr
          hstem
          -85 1213 vstem
          556 1581 rmoveto
          -58 callsubr
          52 29 40 42 -103 callsubr
          rrcurveto
          186 -372 rmoveto
          -104 callgsubr
          endchar
        </CharString>
        <CharString name="Ibreve">
          81 callsubr
          128 201 hstem
          -85 1287 vstem
          711 -36 callgsubr
          17 -546 rmoveto
          -104 callgsubr
          endchar
        </CharString>
        <CharString name="Icircumflex">
          81 callsubr
          hstem
          -85 1190 vstem
          684 1701 rmoveto
          112 -49 104 -40 -103 callgsubr
          44 -468 rmoveto
          -104 callgsubr
          endchar
        </CharString>
        <CharString name="Idieresis">
          81 callsubr
          hstem
          287 58 callgsubr
          vstem
          287 1704 -66 callsubr
          -50 -471 rmoveto
          -104 callgsubr
          endchar
        </CharString>
        <CharString name="Idotaccent">
          81 callsubr
          hstemhm
          533 362 309 callsubr
          533 51 callgsubr
          195 -458 rmoveto
          -104 callgsubr
          endchar
        </CharString>
        <CharString name="Igrave">
          81 callsubr
          hstem
          -85 1034 vstem
          782 1602 rmoveto
          -59 callgsubr
          82 -55 98 200 callgsubr
          rrcurveto
          -37 -346 rmoveto
          -104 callgsubr
          endchar
        </CharString>
        <CharString name="Imacron">
          81 callsubr
          227 52 hstem
          -85 1174 vstem
          1076 89 callgsubr
          471 -444 rmoveto
          -104 callgsubr
          endchar
        </CharString>
        <CharString name="Iogonek">
          269 callsubr
          122 callsubr
          0 -20 hstemhm
          117 231 hintmask 11011000
          614 272 callsubr
          43 callsubr
          4 -68 hvcurveto
          hintmask 11101000
          -93 callsubr
          4 72 56 callgsubr
          hhcurveto
          90 96 -1 -2 75 hvcurveto
          -186 -48 -195 -89 -129 22 callgsubr
          89 86 86 117 47 hvcurveto
          20 -1 33 callsubr
          10 41 rlineto
          hintmask 11011000
          -4 -87 57 callsubr
          hhcurveto
          endchar
        </CharString>
        <CharString name="Itilde">
          81 callsubr
          122 177 254 callgsubr
          -85 1275 hintmask 11011000
          606 1898 rmoveto
          35 callgsubr
          hintmask 11101000
          18 callgsubr
          hintmask 11011000
          150 callgsubr
          122 -665 rmoveto
          -104 callgsubr
          endchar
        </CharString>
        <CharString name="J">
          84 callsubr
          1600 1495 -88 callsubr
        </CharString>
        <CharString name="Jcircumflex">
          84 callsubr
          1091 1701 rmoveto
          112 -49 104 -40 -103 callgsubr
          509 -206 -88 callsubr
        </CharString>
        <CharString name="K">
          78 callgsubr
          hintmask 00000000
          hintmask 01110111
          1395 1479 -92 callsubr
        </CharString>
        <CharString name="Kcommaaccent">
          193 158 callsubr
          150 -129 -21 29 41 672 84 612 41 -9 38 hstemhm
          418 325 133 302 87 323 hintmask 0000000000000000
          hintmask 1011101111000000
          1395 1479 -39 callsubr
          hintmask 1100101111000000
          -81 -28 -33 -42 -52 hhcurveto
          -36 -17 24 36 5 0 5 1 5 hvcurveto
          23 215 rlineto
          3 28 1 25 24 vvcurveto
          177 -81 73 -211 24 vhcurveto
          277 63 -19 423 135 147 27 28 28 17 50 1 rrcurveto
          15 11 -3 -4 8 hvcurveto
          -94 -41 -59 -85 -80 vvcurveto
          -85 60 -50 77 124 62 113 91 vhcurveto
          hintmask 1011101111000000
          107 -74 75 -119 vhcurveto
          hintmask 1001110111000000
          -816 -1438 rmoveto
          -92 callgsubr
          270 1016 20 callgsubr
          -84 -4 -120 -2 -119 -136 -128 2 -70 hflex1
          -93 callsubr
          74 13 callgsubr
          32 -108 rmoveto
          -101 -84 -68 -94 -67 47 -33 76 49 246 callgsubr
          -71 callsubr
          vhcurveto
          endchar
        </CharString>
        <CharString name="L">
          -84 243 callsubr
          hstem
          -88 1239 vstem
          -2 callgsubr
          endchar
        </CharString>
        <CharString name="Lacute">
          -84 243 callsubr
          hstem
          -88 1239 vstem
          520 1581 rmoveto
          -58 callsubr
          52 29 40 42 -103 callsubr
          rrcurveto
          599 -1175 -88 callgsubr
          endchar
        </CharString>
        <CharString name="Lcaron">
          -84 243 callsubr
          23 -20 hstemhm
          -88 1367 -236 236 hintmask 11010000
          951 985 rmoveto
          hintmask 10101000
          203 193 125 173 100 242 callsubr
          hintmask 11001000
          164 callgsubr
          182 -563 -88 callgsubr
          endchar
        </CharString>
        <CharString name="Lcommaaccent">
          -84 -349 -21 370 47 1362 41 hstem
          398 325 vstem
          -2 callgsubr
          -753 -700 rmoveto
          -67 47 -33 76 49 166 callsubr
          vhcurveto
          -71 callsubr
          -101 -84 -68 -94 vhcurveto
          endchar
        </CharString>
        <CharString name="Ldot">
          -50 243 callsubr
          hstemhm
          -88 1358 -335 335 hintmask 11100000
          -2 callgsubr
          hintmask 11010000
          -216 287 rmoveto
          -83 callsubr
          endchar
        </CharString>
        <CharString name="Lslash">
          -82 243 callsubr
          hstem
          -85 1239 vstem
          1108 430 rmoveto
          -285 -112 -151 -98 -185 hhcurveto
          -82 214 callsubr
          245 callsubr
          126 473 461 232 12 47 -460 -231 132 495 40 149 30 131 callsubr
          -83 -4 -117 52 callgsubr
          -130 30 callsubr
          -177 -664 -184 -92 -12 -47 183 92 -81 -305 21 callgsubr
          222 6 310 0 138 137 189 0 139 hflex1
          15 104 25 107 14 51 17 66 17 59 16 43 rrcurveto
          endchar
        </CharString>
        <CharString name="M">
          -46 callsubr
        </CharString>
        <CharString name="N">
          367 -152 39 124 143 callsubr
          56 38 hstemhm
          -163 326 1421 326 hintmask 00000000
          hintmask 11111100
          1717 1544 -102 callsubr
          endchar
        </CharString>
        <CharString name="NULL">
          -1322 endchar
        </CharString>
        <CharString name="Nacute">
          63 callgsubr
          1484 1744 rmoveto
          52 29 40 42 47 vvcurveto
          13 -3 14 -7 14 vhcurveto
          123 callsubr
          hintmask 11111010
          233 -200 -102 callsubr
          endchar
        </CharString>
        <CharString name="Nacute.loclPLK">
          63 callgsubr
          1373 1793 rmoveto
          -74 callgsubr
          23 -15 rcurveline
          144 134 165 callsubr
          hintmask 11111010
          344 -249 -102 callsubr
          endchar
        </CharString>
        <CharString name="Ncaron">
          63 callgsubr
          1146 -40 callgsubr
          hintmask 11111010
          608 -29 -102 callsubr
          endchar
        </CharString>
        <CharString name="Ncommaaccent">
          367 -349 -21 218 39 124 143 callsubr
          56 38 hstem
          -163 326 313 325 783 326 vstem
          1717 1544 -102 callsubr
          -1056 -1652 rmoveto
          -101 -84 -68 -94 -67 47 -33 76 49 246 callgsubr
          -71 callsubr
          vhcurveto
          endchar
        </CharString>
        <CharString name="Ntilde">
          367 -152 39 124 143 callsubr
          56 38 28 177 254 callgsubr
          -163 326 -326 2073 -326 326 hintmask 1111010100000000
          909 1722 rmoveto
          hintmask 1111100100000000
          18 callgsubr
          hintmask 1111010100000000
          150 callgsubr
          35 callgsubr
          hintmask 1111011010000000
          808 -178 -102 callsubr
          endchar
        </CharString>
        <CharString name="O">
          14 callsubr
          86 463 -95 callsubr
        </CharString>
        <CharString name="OE">
          715 -29 37 -2 41 -26 -21 709 41 653 41 -41 47 -8 37 hstemhm
          88 352 hintmask 01011001
          1726 272 callsubr
          -52 -89 0 -98 hhcurveto
          -98 -107 0 1 -92 hvcurveto
          hintmask 10010011
          21 -56 -66 13 -69 hhcurveto
          -550 -361 -564 -452 -313 201 -179 337 74 74 13 19 67 hvcurveto
          hintmask 01011001
          3 173 230 0 97 hhcurveto
          hintmask 00111001
          134 183 0 -6 137 hvcurveto
          14 104 25 107 15 51 15 57 12 54 16 37 rrcurveto
          -46 hlineto
          hintmask 01011001
          -271 -91 -79 -92 -196 hhcurveto
          -141 hlineto
          -97 -38 11 59 24 7 33 11 83 callgsubr
          154 hlineto
          88 -6 18 -44 264 callgsubr
          24 135 13 56 16 59 23 139 callgsubr
          -110 -123 hhcurveto
          -151 250 callsubr
          121 192 callsubr
          -48 -10 -57 hvcurveto
          45 hlineto
          3 32 9 46 14 49 rrcurveto
          hintmask 01010101
          20 74 21 72 37 96 rrcurveto
          hintmask 01011001
          -6 -124 -163 0 -120 hhcurveto
          -846 -1290 rmoveto
          hintmask 10010011
          -115 -30 -73 -31 -113 hhcurveto
          -138 -86 160 268 494 262 512 304 110 65 -24 -94 -25 -5 -30 -9 -36 hvcurveto
          endchar
        </CharString>
        <CharString name="Oacute">
          14 callsubr
          950 1581 rmoveto
          -58 callsubr
          52 29 40 42 -103 callsubr
          rrcurveto
          -850 -1142 -95 callsubr
        </CharString>
        <CharString name="Oacute.loclPLK">
          14 callsubr
          1029 1554 rmoveto
          144 134 165 callsubr
          -74 callgsubr
          rrcurveto
          -920 -1106 -95 callsubr
        </CharString>
        <CharString name="Obreve">
          269 -29 37 1434 37 99 201 hstem
          86 352 779 354 vstem
          1105 -36 callgsubr
          -1019 -1316 -95 callsubr
        </CharString>
        <CharString name="Ocircumflex">
          14 callsubr
          1078 1701 rmoveto
          112 -49 104 -40 -103 callgsubr
          -992 -1238 -95 callsubr
        </CharString>
        <CharString name="Odieresis">
          269 -29 37 1434 37 hstemhm
          86 352 243 58 callgsubr
          -265 354 hintmask 11110100
          681 1704 rmoveto
          -79 43 -56 89 -63 callgsubr
          -92 -85 -64 -110 vhcurveto
          hintmask 11111000
          491 hmoveto
          257 callgsubr
          -93 -84 -64 -110 vhcurveto
          -1086 -1241 rmoveto
          -313 208 -179 347 vhcurveto
          hintmask 11110100
          558 372 564 450 315 -210 179 -347 hvcurveto
          hintmask 11111000
          -561 -367 -564 -452 hvcurveto
          909 979 rmoveto
          hintmask 11110100
          129 93 -160 -268 -494 -271 -512 -287 -129 -92 160 268 hvcurveto
          hintmask 11111000
          494 271 512 286 vhcurveto
          endchar
        </CharString>
        <CharString name="Ograve">
          14 callsubr
          1176 1602 rmoveto
          -59 callgsubr
          82 -55 98 200 callgsubr
          rrcurveto
          -1073 -1116 -95 callsubr
        </CharString>
        <CharString name="Ohungarumlaut">
          14 callsubr
          752 -42 callgsubr
          -1083 -1140 -95 callsubr
        </CharString>
        <CharString name="Omacron">
          269 -29 37 1434 37 198 52 hstem
          86 352 779 354 vstem
          1470 89 callgsubr
          -565 -1214 -95 callsubr
        </CharString>
        <CharString name="Omega">
          416 0 47 1395 37 hstemhm
          229 315 -294 41 925 315 hintmask 11101000
          880 256 callgsubr
          -418 -233 -193 -319 -367 301 -194 215 -359 hvcurveto
          -110 hlineto
          hintmask 11011000
          -188 -111 93 274 -45 hvcurveto
          -47 hlineto
          4 -38 2 -52 -58 vvcurveto
          -52 -4 -108 -10 -106 vhcurveto
          78 6 113 0 76 84 94 -4 115 hflex1
          33 vlineto
          hintmask 11101000
          -86 149 -166 344 400 vvcurveto
          323 88 193 248 248 88 -193 -323 -400 -167 -344 -85 -149 vhcurveto
          -33 vlineto
          114 2 95 4 84 76 113 0 78 hflex1
          -11 106 -4 108 52 vvcurveto
          58 2 52 5 38 vhcurveto
          -48 hlineto
          -274 -44 -111 -93 -189 hhcurveto
          -109 hlineto
          215 359 301 194 367 vvcurveto
          319 -233 193 -418 vhcurveto
          endchar
        </CharString>
        <CharString name="Oslash">
          14 callsubr
          1647 1556 rmoveto
          -30 27 -210 -220 rlineto
          76 -95 -134 40 -164 hhcurveto
          -561 -367 -564 -452 -149 47 -118 86 -84 hvcurveto
          -224 -233 34 -29 225 233 rlineto
          -73 94 131 -39 162 hhcurveto
          558 372 564 450 148 -47 119 -85 83 hvcurveto
          -444 107 rmoveto
          102 79 -99 -174 29 hvcurveto
          -758 -866 rlineto
          -6 41 -3 44 48 vvcurveto
          494 271 512 286 vhcurveto
          -336 -1434 rmoveto
          -95 -75 86 153 -33 hvcurveto
          756 867 rlineto
          3 -32 2 -33 -35 vvcurveto
          -494 -271 -512 -287 vhcurveto
          endchar
        </CharString>
        <CharString name="Otilde">
          269 -29 37 1434 37 93 177 254 callgsubr
          86 352 779 354 hintmask 11011100
          1000 1898 rmoveto
          35 callgsubr
          hintmask 11101100
          18 callgsubr
          hintmask 11011100
          150 callgsubr
          -914 -1435 -95 callsubr
        </CharString>
        <CharString name="P">
          -22 callgsubr
        </CharString>
        <CharString name="Q">
          381 -385 175 42 35 217 143 271 59 885 37 hstemhm
          -79 44 229 344 552 50 45 353 -216 348 hintmask 0000000000000000
          hintmask 1101111110000000
          1369 211 rmoveto
          -107 -77 -75 -97 -94 68 -55 91 46 47 15 30 37 hvcurveto
          -79 -41 -78 -66 -144 hhcurveto
          -198 -163 109 109 -158 hvcurveto
          hintmask 1111111101000000
          468 241 510 445 369 vvcurveto
          253 -251 163 -362 -445 -418 -263 -354 -229 180 -135 262 295 209 172 237 137 -70 89 -114 -108 -86 -80 -108 -88 56 -65 90 67 85 35 88 30 vhcurveto
          2 -30 -3 -37 -8 -31 rrcurveto
          -133 -31 -131 -127 -171 hhcurveto
          -150 -60 92 162 300 185 331 291 200 108 -157 -259 -426 -299 -376 -366 -191 hvcurveto
          100 -145 -142 94 -162 hhcurveto
          -164 -123 -97 -133 -111 84 -54 129 77 94 19 35 103 hvcurveto
          -128 138 164 -143 257 hhcurveto
          hintmask 1101111110000000
          322 249 219 206 113 -72 58 -97 hvcurveto
          hintmask 1111111101000000
          -1218 -344 rmoveto
          -117 -69 42 75 63 51 37 70 104 89 -78 -92 99 hvcurveto
          -28 -84 -81 -19 -62 hhcurveto
          endchar
        </CharString>
        <CharString name="R">
          77 callsubr
          1341 248 rmoveto
          -10 -29 rlineto
          hintmask 10111000
          96 callsubr
          hintmask 01110100
          64 callsubr
          hintmask 01110010
          169 callgsubr
          -61 callsubr
          -794 485 140 callgsubr
          hintmask 01110010
          102 callgsubr
          endchar
        </CharString>
        <CharString name="Racute">
          77 callsubr
          1227 1744 rmoveto
          52 29 40 42 47 vvcurveto
          13 -3 14 -7 14 vhcurveto
          123 callsubr
          114 -1496 rmoveto
          -10 -29 rlineto
          hintmask 10111000
          96 callsubr
          hintmask 01110100
          64 callsubr
          hintmask 01110010
          169 callgsubr
          -61 callsubr
          -794 485 140 callgsubr
          hintmask 01110010
          102 callgsubr
          endchar
        </CharString>
        <CharString name="Rcaron">
          77 callsubr
          889 -40 callgsubr
          547 -410 rmoveto
          -61 callsubr
          -48 hlineto
          -10 -29 rlineto
          96 callsubr
          hintmask 01110100
          64 callsubr
          hintmask 01110010
          169 callgsubr
          -804 -430 140 callgsubr
          102 callgsubr
          endchar
        </CharString>
        <CharString name="Rcommaaccent">
          134 158 callsubr
          101 -72 41 655 37 676 35 hstemhm
          469 325 23 324 -286 319 -105 330 hintmask 1011110010000000
          1341 248 rmoveto
          -10 -29 rlineto
          hintmask 1101111000000000
          96 callsubr
          hintmask 1011110100000000
          64 callsubr
          hintmask 1011110010000000
          169 callgsubr
          194 -157 91 -332 vhcurveto
          -92 -90 -4 -125 hhcurveto
          -98 -142 2 4 -70 163 callgsubr
          104 -5 33 -22 -53 vvcurveto
          -25 -7 -31 -11 -40 vhcurveto
          -269 -1016 -4 callsubr
          9 41 rlineto
          -107 4 -33 22 50 vvcurveto
          26 9 32 11 42 vhcurveto
          127 479 rlineto
          hintmask 1011110100000000
          213 -4 57 -62 -121 vvcurveto
          -20 -2 -23 -3 -24 vhcurveto
          hintmask 1101111000000000
          -30 -232 rlineto
          -2 -14 -1 -14 -13 vvcurveto
          -117 80 -81 171 169 93 81 169 50 vhcurveto
          9 27 rlineto
          -794 485 140 callgsubr
          hintmask 1011110010000000
          102 callgsubr
          44 -841 rmoveto
          -101 -84 -68 -94 -67 47 -33 76 49 246 callgsubr
          -71 callsubr
          vhcurveto
          endchar
        </CharString>
        <CharString name="S">
          19 callsubr
          hintmask 00000000
          hintmask 10011100
          1228 1464 -101 callsubr
        </CharString>
        <CharString name="Sacute">
          19 callsubr
          hintmask 10101100
          704 1581 rmoveto
          -58 callsubr
          52 29 40 42 -103 callsubr
          rrcurveto
          hintmask 10011100
          538 -141 -101 callsubr
        </CharString>
        <CharString name="Sacute.loclPLK">
          19 callsubr
          hintmask 10101100
          783 1554 rmoveto
          144 134 165 callsubr
          -74 callgsubr
          rrcurveto
          hintmask 10011100
          468 -105 -101 callsubr
        </CharString>
        <CharString name="Scaron">
          19 callsubr
          hintmask 10101100
          945 -24 callgsubr
          hintmask 10011100
          283 -333 -101 callsubr
        </CharString>
        <CharString name="Scedilla">
          -120 193 callgsubr
          80 45 -43 43 -9 -21 1444 49 -15 -20 hstemhm
          266 313 -97 210 10 358 hintmask 0000000000000000
          hintmask 1010001101000000
          260 callgsubr
          hintmask 1010010101000000
          -15 -26 16 16 -27 hvcurveto
          41 -67 -95 50 -162 hhcurveto
          -228 -275 -132 -278 hvcurveto
          -350 436 -142 -346 vvcurveto
          -135 -79 -80 -185 -218 -116 110 205 49 7 55 11 42 vhcurveto
          -40 hlineto
          hintmask 1000110101000000
          -62 -284 -41 -119 -37 -88 rrcurveto
          41 hlineto
          82 35 16 28 36 hhcurveto
          hintmask 1101010011000000
          16 25 -11 -19 30 hvcurveto
          76 -47 65 -37 145 -9 -82 -182 rcurveline
          -63 callsubr
          hintmask 1010010011000000
          45 100 rlineto
          15 hlineto
          hintmask 1010010101000000
          235 329 117 292 hvcurveto
          338 -481 195 294 vvcurveto
          158 112 65 136 193 100 -110 -159 -33 -4 -43 -8 -38 vhcurveto
          41 hlineto
          hintmask 1010001101000000
          41 215 51 131 28 71 rrcurveto
          endchar
        </CharString>
        <CharString name="Scircumflex">
          19 callsubr
          hintmask 10101100
          832 1701 rmoveto
          112 -49 104 -40 -103 callgsubr
          hintmask 10011100
          396 -237 -101 callsubr
        </CharString>
        <CharString name="Scommaaccent">
          -120 158 callsubr
          45 -9 -21 1444 49 -15 -20 hstemhm
          266 313 -296 325 94 358 hintmask 00000000
          hintmask 11001101
          260 callgsubr
          hintmask 11010101
          -15 -26 16 16 -27 hvcurveto
          41 -67 -95 50 -162 hhcurveto
          -228 -275 -132 -278 hvcurveto
          -350 436 -142 -346 vvcurveto
          -135 -79 -80 -185 -218 -116 110 205 49 7 55 11 42 vhcurveto
          -40 hlineto
          hintmask 10110101
          -62 -284 -41 -119 -37 -88 rrcurveto
          41 hlineto
          82 35 16 28 36 hhcurveto
          hintmask 11010101
          16 25 -11 -19 30 hvcurveto
          -54 87 73 -41 195 hhcurveto
          235 329 117 292 hvcurveto
          338 -481 195 294 vvcurveto
          158 112 65 136 193 100 -110 -159 -33 -4 -43 -8 -38 vhcurveto
          41 hlineto
          hintmask 11001011
          41 215 51 131 28 71 rrcurveto
          -986 -1734 rmoveto
          -67 47 -33 76 49 166 callsubr
          vhcurveto
          -71 callsubr
          -101 -84 -68 -94 vhcurveto
          endchar
        </CharString>
        <CharString name="T">
          111 callsubr
          1600 1758 -68 callgsubr
        </CharString>
        <CharString name="Tbar">
          102 0 41 668 41 610 41 8 37 hstemhm
          179 307 954 319 hintmask 11101100
          1602 113 callsubr
          hintmask 11111100
          -215 -240 45 -252 hhcurveto
          -54 -125 -2 -46 -95 hvcurveto
          -104 -51 -29 -83 -67 vvcurveto
          -87 207 callgsubr
          77 94 83 -54 63 -70 20 vhcurveto
          26 48 90 9 93 hhcurveto
          74 85 -7 -8 87 hvcurveto
          -172 -644 rlineto
          -292 hlineto
          -10 -41 rlineto
          291 hlineto
          -125 -471 -41 -149 -47 -42 60 callgsubr
          78 4 141 2 141 147 146 -2 86 hflex1
          46 callsubr
          125 471 rlineto
          292 hlineto
          11 41 rlineto
          -293 hlineto
          hintmask 11101100
          163 615 rlineto
          -3 42 41 -2 37 hhcurveto
          145 116 21 39 81 hvcurveto
          88 41 54 65 87 vvcurveto
          75 -58 70 -99 vhcurveto
          endchar
        </CharString>
        <CharString name="Tcaron">
          111 callsubr
          1011 -40 callgsubr
          626 185 -68 callgsubr
        </CharString>
        <CharString name="Tcedilla">
          72 193 callgsubr
          109 41 -20 -21 1360 41 8 37 hstemhm
          177 307 152 210 592 319 hintmask 1001101110000000
          172 callgsubr
          hintmask 1101111110000000
          -215 -240 45 -252 hhcurveto
          -54 -125 -2 -46 -95 hvcurveto
          -104 -51 -29 -83 -67 vvcurveto
          -87 207 callgsubr
          77 94 83 -54 63 -70 20 vhcurveto
          26 48 90 9 93 hhcurveto
          74 85 -7 -8 87 hvcurveto
          -308 -1156 -41 -149 -47 -42 60 callgsubr
          4 73 130 2 132 hhcurveto
          -97 -215 rlineto
          -63 callsubr
          61 135 rlineto
          137 132 -2 -4 80 hvcurveto
          hintmask 1010101110000000
          46 callsubr
          298 1127 rlineto
          -3 42 41 -2 37 hhcurveto
          145 116 21 39 81 hvcurveto
          88 41 54 65 87 vvcurveto
          hintmask 1001101110000000
          75 -58 70 -99 vhcurveto
          endchar
        </CharString>
        <CharString name="Thorn">
          31 0 41 246 41 786 39 256 41 hstem
          1008 342 vstem
          477 287 rmoveto
          27 hlineto
          503 343 235 322 186 -155 123 -326 -55 -54 -1 -1 -54 hvcurveto
          22 82 85 callsubr
          -123 -131 -123 2 -68 hflex1
          -93 callsubr
          72 4 callgsubr
          144 callgsubr
          79 -87 callgsubr
          327 897 rmoveto
          150 73 -92 -145 -285 -143 -264 -340 hvcurveto
          -38 hlineto
          209 784 rlineto
          1 23 28 1 38 hhcurveto
          endchar
        </CharString>
        <CharString name="U">
          48 callgsubr
          1175 573 59 callsubr
          hintmask 11100000
          -106 callsubr
        </CharString>
        <CharString name="Uacute">
          48 callgsubr
          885 1581 rmoveto
          -58 callsubr
          52 29 40 42 -103 callsubr
          rrcurveto
          304 -1032 59 callsubr
          hintmask 11100000
          -106 callsubr
        </CharString>
        <CharString name="Ubreve">
          99 -29 72 1366 41 128 201 hstemhm
          155 307 -307 1449 hintmask 11101000
          1040 -36 callgsubr
          135 -1206 59 callsubr
          hintmask 11110000
          -106 callsubr
        </CharString>
        <CharString name="Ucircumflex">
          48 callgsubr
          1013 1701 rmoveto
          112 -49 104 -40 -103 callgsubr
          162 -1128 59 callsubr
          hintmask 11100000
          -106 callsubr
        </CharString>
        <CharString name="Udieresis">
          99 -29 72 1366 41 hstem
          155 307 154 58 callgsubr
          vstem
          616 1704 -66 callsubr
          68 -1131 59 callsubr
          -106 callsubr
        </CharString>
        <CharString name="Ugrave">
          48 callgsubr
          1111 1602 rmoveto
          -59 callgsubr
          82 -55 98 200 callgsubr
          rrcurveto
          81 -1006 59 callsubr
          hintmask 11100000
          -106 callsubr
        </CharString>
        <CharString name="Uhungarumlaut">
          48 callgsubr
          687 -42 callgsubr
          71 -1030 59 callsubr
          hintmask 11100000
          -106 callsubr
        </CharString>
        <CharString name="Umacron">
          99 -29 72 1366 41 227 52 hstemhm
          155 307 -307 1449 hintmask 11101000
          1405 89 callgsubr
          589 -1104 59 callsubr
          hintmask 11110000
          -106 callsubr
        </CharString>
        <CharString name="Uogonek">
          99 -385 102 254 72 1366 41 hstemhm
          155 307 -109 231 hintmask 11101000
          1424 272 callsubr
          -74 -95 2 4 -50 hvcurveto
          -12 -41 rlineto
          111 -12 44 -27 -82 vvcurveto
          -42 -11 -56 -20 -76 vhcurveto
          -142 -541 62 callgsubr
          -306 hhcurveto
          hintmask 11110000
          -127 -57 73 142 79 17 99 32 119 hvcurveto
          180 678 -25 callsubr
          13 200 callsubr
          -115 52 callgsubr
          -132 2 -70 hflex1
          -12 -89 callsubr
          -170 -643 rlineto
          -28 -105 -15 -87 -73 vvcurveto
          -77 16 -62 37 -54 vhcurveto
          -99 65 131 -62 203 hhcurveto
          23 hlineto
          hintmask 11101000
          -148 -51 -129 -78 -105 22 callgsubr
          87 83 85 113 47 hvcurveto
          98 32 86 58 63 74 88 104 64 140 49 190 140 543 rcurveline
          52 198 37 54 136 18 11 41 rcurveline
          -4 -45 -71 -2 -64 hhcurveto
          endchar
        </CharString>
        <CharString name="Uring">
          99 -29 72 1366 41 70 269 callgsubr
          155 307 355 270 callsubr
          1065 73 callsubr
          155 -990 59 callsubr
          -106 callsubr
        </CharString>
        <CharString name="Utilde">
          99 -29 72 1366 41 122 177 254 callgsubr
          155 307 -307 1449 hintmask 11010100
          935 1898 rmoveto
          35 callgsubr
          hintmask 11100100
          18 callgsubr
          hintmask 11010100
          150 callgsubr
          240 -1325 59 callsubr
          hintmask 11011000
          -106 callsubr
        </CharString>
        <CharString name="V">
          31 11 143 callsubr
          hstem
          189 1409 vstem
          1444 272 callsubr
          -74 -140 2 4 -54 163 callgsubr
          105 -6 65 -27 -68 vvcurveto
          -38 -19 -49 -42 -65 vhcurveto
          -540 -828 -103 909 rlineto
          -2 17 -1 16 14 vvcurveto
          103 53 17 114 5 vhcurveto
          11 41 rlineto
          -72 -4 -110 -2 -131 -107 -120 244 callgsubr
          39 -2 55 -31 13 -98 rlinecurve
          162 -1288 rlineto
          17 1 17 0 18 17 18 0 17 hflex1
          781 1202 98 152 65 43 82 22 79 callgsubr
          -4 -43 -49 -2 -62 hhcurveto
          endchar
        </CharString>
        <CharString name="W">
          103 callsubr
          2079 1444 -97 callsubr
        </CharString>
        <CharString name="Wacute">
          103 callsubr
          1646 1740 rmoveto
          52 29 40 42 47 vvcurveto
          13 -3 14 -7 14 vhcurveto
          123 callsubr
          433 -296 -97 callsubr
        </CharString>
        <CharString name="Wcircumflex">
          103 callsubr
          1294 1697 rmoveto
          112 -49 104 -40 -103 callgsubr
          785 -253 -97 callsubr
        </CharString>
        <CharString name="Wdieresis">
          689 11 143 callsubr
          hstem
          897 58 callgsubr
          vstem
          1029 1565 rmoveto
          -63 callgsubr
          -92 -85 -64 -110 -79 43 -56 89 hvcurveto
          -21 callsubr
          559 -121 -97 callsubr
        </CharString>
        <CharString name="Wgrave">
          103 callsubr
          985 1736 rmoveto
          82 -55 98 200 callgsubr
          17 23 rcurveline
          -59 callgsubr
          1094 -292 -97 callsubr
        </CharString>
        <CharString name="X">
          -57 callgsubr
        </CharString>
        <CharString name="Y">
          180 0 41 1400 38 hstemhm
          1342 327 309 callsubr
          1479 1479 -95 callgsubr
        </CharString>
        <CharString name="Yacute">
          112 callgsubr
          1349 1744 rmoveto
          52 29 40 42 47 vvcurveto
          13 -3 14 -7 14 vhcurveto
          123 callsubr
          hintmask 11010000
          130 -265 -95 callgsubr
        </CharString>
        <CharString name="Ycircumflex">
          112 callgsubr
          997 1701 rmoveto
          112 -49 104 -40 -103 callgsubr
          hintmask 11010000
          482 -222 -95 callgsubr
        </CharString>
        <CharString name="Ydieresis">
          180 0 41 1400 38 hstemhm
          600 58 callgsubr
          -59 327 hintmask 11110000
          732 1569 rmoveto
          -63 callgsubr
          -92 -85 -64 -110 -79 43 -56 89 hvcurveto
          -21 callsubr
          hintmask 11101000
          256 -90 -95 callgsubr
        </CharString>
        <CharString name="Ygrave">
          112 callgsubr
          688 1740 rmoveto
          82 -55 98 200 callgsubr
          17 23 rcurveline
          -59 callgsubr
          hintmask 11010000
          791 -261 -95 callgsubr
        </CharString>
        <CharString name="Z">
          -7 callsubr
          726 126 hintmask 0000000000000000
          hintmask 0011110101100000
          1466 1460 -98 callgsubr
        </CharString>
        <CharString name="Zacute">
          -7 callsubr
          726 126 hintmask 0011110011100000
          1259 1744 rmoveto
          52 29 40 42 47 vvcurveto
          13 -3 14 -7 14 vhcurveto
          123 callsubr
          hintmask 0011110101100000
          207 -284 -98 callgsubr
        </CharString>
        <CharString name="Zacute.loclPLK">
          -7 callsubr
          726 126 hintmask 0011110011100000
          1148 1793 rmoveto
          -74 callgsubr
          23 -15 rcurveline
          144 134 165 callsubr
          hintmask 0011110101100000
          318 -333 -98 callgsubr
        </CharString>
        <CharString name="Zcaron">
          -7 callsubr
          726 126 hintmask 0011110011100000
          921 -40 callgsubr
          hintmask 0011110101100000
          582 -113 -98 callgsubr
        </CharString>
        <CharString name="Zdotaccent">
          -7 callsubr
          412 362 -48 126 hintmask 0000000000000000
          hintmask 0011110101100000
          905 167 callsubr
          561 -106 rmoveto
          7 -9 -10 4 -11 hhcurveto
          -42 -59 -49 -70 -49 hvcurveto
          -33 -77 -60 -23 -80 hhcurveto
          hintmask 0011110011100000
          -229 -91 183 -235 hhcurveto
          -183 -114 -112 -153 -152 137 -64 129 -21 hvcurveto
          10 40 rlineto
          hintmask 0011101001010000
          -106 21 -43 40 56 vvcurveto
          55 34 28 57 vhcurveto
          hintmask 0011110011010000
          132 97 -91 196 hhcurveto
          142 144 73 112 130 hvcurveto
          -571 -561 rlineto
          -359 hlineto
          -14 -41 rlineto
          332 hlineto
          -576 -566 rlineto
          -110 -42 -43 -50 -34 vvcurveto
          -11 4 -9 8 -7 vhcurveto
          -7 8 10 -4 11 hhcurveto
          42 61 49 70 48 hvcurveto
          33 77 60 23 80 hhcurveto
          hintmask 0101110011010000
          229 91 -183 235 hhcurveto
          183 114 112 153 152 -137 64 -129 21 hvcurveto
          -8 -40 rlineto
          hintmask 1000110011010000
          105 -21 43 -40 -56 vvcurveto
          -55 -33 -28 -58 vhcurveto
          hintmask 0011110101010000
          -132 -97 91 -196 hhcurveto
          -143 -144 -73 -112 -130 hvcurveto
          580 570 rlineto
          336 hlineto
          16 41 rlineto
          -311 hlineto
          567 557 rlineto
          110 42 43 50 34 vvcurveto
          hintmask 0011110101100000
          11 -4 298 callsubr
          endchar
        </CharString>
        <CharString name="a">
          -33 callgsubr
        </CharString>
        <CharString name="a.smcp">
          66 callgsubr
          hstem
          -186 1373 vstem
          960 1260 -105 callsubr
        </CharString>
        <CharString name="aacute">
          29 callgsubr
          208 -20 192 callgsubr
          1079 1520 rmoveto
          38 37 21 39 36 vvcurveto
          23 -8 21 -19 19 vhcurveto
          125 callgsubr
          11 -433 -87 callsubr
        </CharString>
        <CharString name="aacute.smcp">
          66 callgsubr
          hstem
          -186 1526 vstem
          1330 1698 116 callgsubr
          30 40 41 47 vvcurveto
          13 -3 14 -7 14 vhcurveto
          -370 -438 -105 callsubr
        </CharString>
        <CharString name="abreve">
          29 callgsubr
          234 201 192 callgsubr
          1218 1614 rmoveto
          105 callgsubr
          5 callsubr
          -151 -507 -87 callsubr
        </CharString>
        <CharString name="abreve.smcp">
          66 callgsubr
          133 202 hstem
          -186 1576 vstem
          1367 1691 rmoveto
          145 callsubr
          204 219 149 149 107 hvcurveto
          -430 -411 -105 callsubr
        </CharString>
        <CharString name="acircumflex">
          29 callgsubr
          240 -20 192 callgsubr
          847 1679 rmoveto
          -55 callsubr
          98 -64 104 -49 179 -39 8 29 rcurveline
          -142 95 -65 119 -37 187 rrcurveto
          206 -592 -87 callsubr
        </CharString>
        <CharString name="acircumflex.smcp">
          66 callgsubr
          hstem
          -186 1515 vstem
          1008 1720 rmoveto
          -119 -124 -208 -122 -228 -72 10 -28 rcurveline
          164 30 163 48 118 44 112 -48 104 -41 197 -33 8 28 rcurveline
          -152 75 -74 100 -58 143 rrcurveto
          -85 -460 -105 callsubr
        </CharString>
        <CharString name="acute">
          -865 1246 -20 hstem
          260 494 vstem
          281 1227 rmoveto
          -5 callsubr
          -84 callsubr
          rrcurveto
          endchar
        </CharString>
        <CharString name="acute.case">
          -759 1581 378 hstem
          41 586 vstem
          55 1581 rmoveto
          -58 callsubr
          52 29 40 42 -103 callsubr
          rrcurveto
          endchar
        </CharString>
        <CharString name="acute.loclPLK">
          -865 1223 479 hstem
          219.270004272 271 callgsubr
          vstem
          196 1223 rmoveto
          -30 callsubr
          endchar
        </CharString>
        <CharString name="acute.loclPLK.case">
          -1007 1554 438 hstem
          54 348 vstem
          77 1554 rmoveto
          144 134 165 callsubr
          -74 callgsubr
          rrcurveto
          endchar
        </CharString>
        <CharString name="acute.loclPLK.smcp">
          -1007 1350 437 hstem
          54 348 vstem
          77 1350 rmoveto
          144 133 165 callsubr
          -74 callgsubr
          rrcurveto
          endchar
        </CharString>
        <CharString name="acute.smcp">
          -759 1376 378 hstem
          41 586 vstem
          55 1376 rmoveto
          -58 callsubr
          52 30 40 41 -103 callsubr
          rrcurveto
          endchar
        </CharString>
        <CharString name="adieresis">
          29 callgsubr
          283 callgsubr
          118 310 13 21 122 310 hintmask 00000000
          hintmask 01101111
          552 8 callsubr
          511 309 rmoveto
          180 callsubr
          170 callsubr
          -20 callgsubr
          hvcurveto
          27 -470 -19 callgsubr
        </CharString>
        <CharString name="adieresis.smcp">
          66 callgsubr
          hstem
          526 58 callgsubr
          vstem
          658 1364 87 callgsubr
          -234 -413 -105 callsubr
        </CharString>
        <CharString name="ae">
          182 -29 110 -110 123 908 53 -6 38 hstemhm
          -12 303 258 307 420 226 hintmask 01011110
          1502 917 rmoveto
          116 -99 54 -131 -120 -111 -39 -64 -97 vhcurveto
          hintmask 01101110
          58 -35 -63 13 -50 hhcurveto
          -382 -426 -470 -369 -152 74 -93 160 132 122 63 123 89 hvcurveto
          -123 41 118 -63 146 172 callsubr
          -96 -62 46 152 46 4 47 8 47 hvcurveto
          hintmask 01011110
          305 callgsubr
          -275 132 rmoveto
          31 18 -23 -45 -156 -66 -137 -112 -96 hvcurveto
          -56 -48 -81 -39 -87 -36 227 callgsubr
          -25 2 -23 5 -21 vhcurveto
          hintmask 10101110
          -82 -58 -59 -28 -52 hhcurveto
          -55 -41 44 88 405 322 384 219 25 34 -8 -31 23 hvcurveto
          hintmask 01011110
          -222 -163 -143 -296 -244 vvcurveto
          endchar
        </CharString>
        <CharString name="ae.smcp">
          549 0 41 -41 94 callsubr
          -41 41 hstemhm
          -167 313 -313 2065 hintmask 01110010
          1472 282 callgsubr
          -100 -186 0 2 -179 hvcurveto
          100 113 rlineto
          -54 hlineto
          -99 -112 -141 3 rlineto
          hintmask 01101010
          -11 -41 48 -2 34 -4 22 -10 rlinecurve
          -897 -1016 98 callgsubr
          366 413 rlineto
          365 hlineto
          -104 -389 rlineto
          hintmask 01110010
          -62 callsubr
          -8 -41 rcurveline
          223 6 303 0 138 137 186 0 139 hflex1
          15 104 24 107 15 51 14 57 14 54 15 37 rrcurveto
          -45 hlineto
          -271 -93 -77 -92 -197 hhcurveto
          -149 hlineto
          -97 -38 11 59 24 7 33 11 43 hvcurveto
          104 389 rlineto
          156 hlineto
          88 -6 18 -43 264 callgsubr
          25 135 12 55 16 60 23 139 callgsubr
          -111 -123 hhcurveto
          -153 257 callsubr
          129 192 callsubr
          -47 -10 -57 hvcurveto
          45 hlineto
          4 30 8 47 14 50 15 47 28 98 274 callsubr
          -651 -592 rmoveto
          -340 hlineto
          454 512 rlineto
          3 -8 2 -11 -13 -15 callsubr
          endchar
        </CharString>
        <CharString name="agrave">
          29 callgsubr
          283 callgsubr
          134 195 callsubr
          34.6199951172 21 hintmask 01101110
          790 1240 rmoveto
          -74 callsubr
          248 -894 rmoveto
          -36 -100 rlineto
          hintmask 10101110
          -27 callsubr
          268 912 rlineto
          hintmask 01011110
          40 callsubr
          hintmask 01101110
          -90 callsubr
          -400 220 rmoveto
          10 51 rlineto
          -335 -87 -131 -188 -85 hhcurveto
          -40 -17 35 93 368 231 435 141 44 25 -39 -67 -11 -1 -11 -1 -11 hvcurveto
          endchar
        </CharString>
        <CharString name="agrave.smcp">
          66 callgsubr
          hstem
          -186 1373 vstem
          627 1535 rmoveto
          81 -55 99 200 callgsubr
          17 23 rcurveline
          -60 callsubr
          333 -275 -105 callsubr
        </CharString>
        <CharString name="amacron">
          29 callgsubr
          369 51 192 callgsubr
          1154 1458 rmoveto
          -688 hlineto
          -12 -51 rlineto
          688 hlineto
          -52 -320 -87 callsubr
        </CharString>
        <CharString name="amacron.smcp">
          66 callgsubr
          233 51 hstem
          -186 1510 vstem
          1324 1524 rmoveto
          -820 hlineto
          -12 -51 rlineto
          819 hlineto
          -351 -213 -105 callsubr
        </CharString>
        <CharString name="ampersand">
          446 -29 176 135 39 584 86 139 37 208 63 7 34 hstemhm
          59 326 45 187 39 108 278 45 209 331 -230 42 362 66 hintmask 1111011111011000
          1589 256 callgsubr
          -47 -65 -6 -23 -54 hvcurveto
          hintmask 1111011111101000
          -73 -28 -54 -53 -74 vvcurveto
          -78 62 -52 86 91 92 58 91 51 -29 43 -59 25 vhcurveto
          9 13 21 3 25 hhcurveto
          112 91 -65 -105 -124 -132 -50 -117 -44 hvcurveto
          -170 -63 -220 -69 -148 -48 rrcurveto
          -235 -76 -123 -117 -169 vvcurveto
          -171 125 -62 121 141 80 85 65 32 vhcurveto
          -31 16 rlineto
          -43 -23 -70 -84 -121 hhcurveto
          -74 -72 32 82 87 83 52 109 35 hvcurveto
          hintmask 1111101111011000
          108 38 134 43 123 42 rrcurveto
          55 -59 21 -73 -72 vvcurveto
          -257 -269 -124 -279 -286 -178 129 251 194 106 175 146 54 vhcurveto
          -14 29 61 -31 51 hhcurveto
          31 33 13 30 28 -26 15 -48 -25 -55 -4 -8 -49 hvcurveto
          -16 34 -6 36 35 vvcurveto
          173 132 118 146 88 59 -42 -65 -60 -48 -41 -64 vhcurveto
          -1 -37 rlineto
          71 87 45 98 97 -86 68 -172 -191 -208 -87 -171 -88 55 -82 125 -43 hvcurveto
          -333 -71 -218 -210 -265 vvcurveto
          -296 272 -154 367 498 243 281 257 92 -30 80 -57 62 vhcurveto
          45 16 43 15 39 15 rrcurveto
          253 90 135 112 215 vvcurveto
          hintmask 1111011111011000
          202 -120 71 -158 vhcurveto
          endchar
        </CharString>
        <CharString name="ampersand.smcp">
          371 -29 176 104 37 475 86 126 36 201 62 62 31 hstemhm
          35 325 -4 189 132 133 152 46 134 332 -97 48 212 103 hintmask 1111111011011000
          1452 1367 rmoveto
          -56 -70 -10 -24 -57 hvcurveto
          hintmask 1111111011101000
          -70 -29 -57 -53 -68 vvcurveto
          -71 63 -45 86 95 88 58 83 53 -35 39 -53 23 vhcurveto
          7 11 25 6 37 hhcurveto
          111 67 -56 -98 -94 -67 -66 -145 -62 hvcurveto
          -140 -61 -178 -71 -97 -41 rrcurveto
          -192 -80 -141 -79 -169 vvcurveto
          -146 105 -62 116 57 44 16 39 40 vhcurveto
          -20 25 rlineto
          -32 -30 -42 -11 -36 hhcurveto
          -49 -52 23 66 67 55 35 124 53 hvcurveto
          hintmask 1111111011011000
          137 60 103 39 98 40 rrcurveto
          37 -47 13 -55 -54 vvcurveto
          -270 -328 -98 -249 -261 -179 109 219 147 85 134 118 47 vhcurveto
          -13 30 52 -27 46 hhcurveto
          31 32 12 31 27 -25 16 -43 hvcurveto
          hintmask 1111110111011000
          -27 -50 -7 -11 -44 hvcurveto
          -17 36 -3 37 28 vvcurveto
          169 126 111 145 93 53 -46 -57 -58 -49 -40 -64 vhcurveto
          1 -36 rlineto
          74 84 44 93 95 -87 67 -169 -191 -205 -88 -162 -80 51 -79 130 -46 hvcurveto
          hintmask 1111111011011000
          -296 -66 -206 -159 -225 vvcurveto
          -256 272 -142 356 477 285 254 270 71 -20 67 -43 53 vhcurveto
          65 28 rlineto
          210 93 103 131 168 vvcurveto
          186 -127 75 -161 vhcurveto
          endchar
        </CharString>
        <CharString name="aogonek">
          -178 -385 102 -81 -21 356 110 931 75 -29 -20 283 callgsubr
          117 231 93 21 hintmask 01110101
          1013 333 rmoveto
          -36 -100 rlineto
          -27 callsubr
          268 912 rlineto
          hintmask 01101101
          40 callsubr
          hintmask 01110111
          91 -8 -50 41 -71 hhcurveto
          -297 -339 -493 -370 -156 74 -97 155 130 117 77 214 95 hvcurveto
          -11 -45 -7 -42 -36 vvcurveto
          -41 8 -34 19 -28 vhcurveto
          24 -35 41 -22 55 -6 rrcurveto
          -149 -52 -131 -78 -105 122 callgsubr
          hintmask 10110111
          90 callgsubr
          78 67 77 92 48 hvcurveto
          74 21 74 56 44 125 51 150 rcurveline
          -693 -252 rmoveto
          -40 -17 35 93 368 231 435 141 44 25 -39 -67 -11 -1 -11 -1 -11 hvcurveto
          -89 -320 10 51 rlineto
          -335 -87 -131 -188 -85 hhcurveto
          endchar
        </CharString>
        <CharString name="aogonek.smcp">
          12 269 callsubr
          108 callgsubr
          hstem
          607 231 vstem
          1103 3 rmoveto
          28 -1 26 -1 20 -1 10 41 rcurveline
          -41 2 -47 31 -12 98 -127 1088 rcurveline
          -17 -2 -18 0 -17 -18 -17 0 -17 hflex1
          -798 -997 -101 -127 -60 -66 -78 -29 rlinecurve
          -5 -41 rlineto
          40 4 58 2 53 75 85 -2 89 hflex1
          5 41 rlineto
          -115 13 -48 39 53 vvcurveto
          38 24 45 40 49 vhcurveto
          152 189 rlineto
          456 hlineto
          31 -254 rlineto
          2 -15 1 -14 -12 vvcurveto
          -104 -62 -22 -117 -5 vhcurveto
          -10 -41 rlineto
          4 66 118 2 123 hhcurveto
          50 58 -1 -1 53 hvcurveto
          -251 -43 -183 -94 -130 22 callsubr
          90 106 91 159 43 hvcurveto
          -380 505 rmoveto
          -418 hlineto
          364 453 rlineto
          endchar
        </CharString>
        <CharString name="approxequal">
          76 360 220 -37 220 -45 220 -36 219 -35 -20 hstemhm
          69 1332 hintmask 10101100
          977 718 rmoveto
          154 172 145 223 98 hvcurveto
          -32 8 rlineto
          -114 -80 -91 -42 -90 hhcurveto
          hintmask 10010100
          -204 -69 183 -219 hhcurveto
          -166 -185 -149 -231 -101 hvcurveto
          31 -7 rlineto
          122 90 107 46 104 hhcurveto
          hintmask 10101100
          200 67 -184 214 hhcurveto
          -124 -358 rmoveto
          166 185 149 231 101 hvcurveto
          -31 8 rlineto
          -123 -89 -108 -45 -104 hhcurveto
          hintmask 01001100
          -200 -67 183 -214 hhcurveto
          -154 -172 -144 -224 -97 hvcurveto
          31 -8 rlineto
          114 80 92 42 89 hhcurveto
          hintmask 10101100
          205 68 -183 219 hhcurveto
          endchar
        </CharString>
        <CharString name="aring">
          29 callgsubr
          195 299 callsubr
          283 callgsubr
          293 54 94 21 226 54 hintmask 0110111111000000
          788 73 callgsubr
          177 -1256 rmoveto
          -36 -100 rlineto
          hintmask 1010111111000000
          -27 callsubr
          268 912 rlineto
          hintmask 0101111111000000
          40 callsubr
          hintmask 0110111111000000
          -90 callsubr
          -400 220 rmoveto
          10 51 rlineto
          -335 -87 -131 -188 -85 hhcurveto
          -40 -17 35 93 368 231 435 141 44 25 -39 -67 -11 -1 -11 -1 -11 hvcurveto
          endchar
        </CharString>
        <CharString name="aring.smcp">
          66 callgsubr
          75 269 callgsubr
          734 270 callsubr
          927 1315 rmoveto
          134 109 callsubr
          -137 90 callsubr
          hvcurveto
          47 356 rmoveto
          74 279 callsubr
          -99 -73 -75 46 88 93 86 86 100 hvcurveto
          -14 -411 -105 callsubr
        </CharString>
        <CharString name="arrowboth">
          60 524 33 hstem
          51 1280 vstem
          872 924 rmoveto
          58 -122 29 -120 2 -125 rrcurveto
          -539 hlineto
          2 125 29 120 57 122 78 callsubr
          -56 121 -29 120 -3 125 rrcurveto
          539 hlineto
          -3 -125 -29 -120 -57 -121 rrcurveto
          35 hlineto
          94 207 136 118 194 58 -194 57 -136 119 -94 207 rrcurveto
          endchar
        </CharString>
        <CharString name="arrowdown">
          -310 1 -21 hstem
          489 33 vstem
          506 829 rmoveto
          262 callgsubr
          207 -94 119 -135 57 -195 57 195 119 135 207 94 252 callgsubr
          -184 vmoveto
          262 callgsubr
          188 -86 116 -119 62 -168 rrcurveto
          -258 vlineto
          -125 3 -120 29 -121 56 rrcurveto
          -35 vlineto
          207 -94 119 -135 57 -194 57 194 119 135 207 94 rrcurveto
          35 vlineto
          -122 -57 -120 -29 -125 -2 rrcurveto
          256 vlineto
          62 169 116 120 189 86 252 callgsubr
          endchar
        </CharString>
        <CharString name="arrowdownleft">
          79 1 -21 490 32 98 33 hstem
          624 32 98 33 vstem
          735 582 rmoveto
          35 76 17 76 83 vvcurveto
          89 -20 96 -42 112 vhcurveto
          -25 -24 rlineto
          36 -95 18 -89 -85 vvcurveto
          -105 -28 -100 -54 -98 vhcurveto
          54 99 100 28 105 hhcurveto
          84 88 -17 -36 95 hvcurveto
          25 24 rlineto
          42 -112 -97 20 -89 hhcurveto
          -82 -76 -17 -34 -77 hvcurveto
          -131 -131 rmoveto
          35 77 17 77 83 vvcurveto
          89 -20 96 -40 110 vhcurveto
          -25 -25 rlineto
          35 -94 18 -88 -84 vvcurveto
          -87 -19 -84 -38 -83 vhcurveto
          -183 -185 -86 92 -64 104 -48 126 rlinecurve
          -24 -24 rlineto
          36 -95 17 -88 -84 vvcurveto
          -105 -28 -100 -54 -99 vhcurveto
          54 98 100 28 105 hhcurveto
          85 89 -18 -36 95 hvcurveto
          24 25 -126 47 -105 64 -91 87 rlinecurve
          183 182 rlineto
          38 84 85 19 89 hhcurveto
          83 87 -17 -35 94 hvcurveto
          25 24 rlineto
          40 -110 -97 20 -89 hhcurveto
          -83 -77 -17 -34 -77 hvcurveto
          endchar
        </CharString>
        <CharString name="arrowdownright">
          79 1 -21 491 32 98 33 456 -20 hstem
          614 33 98 32 vstem
          729 519 rmoveto
          -54 98 -28 100 105 vvcurveto
          84 18 89 36 95 vhcurveto
          -25 24 rlineto
          -42 -112 -20 -96 -89 vvcurveto
          -82 17 -76 35 -77 vhcurveto
          35 -77 -76 17 -83 hhcurveto
          -89 -96 -20 -42 -112 hvcurveto
          25 -25 rlineto
          36 95 89 18 84 hhcurveto
          105 100 -28 -54 98 hvcurveto
          486 57 rmoveto
          -48 -126 -64 -105 -86 -92 -183 185 rcurveline
          -38 83 -19 84 88 vvcurveto
          84 18 88 35 94 vhcurveto
          -25 24 rlineto
          -40 -110 -20 -96 -88 vvcurveto
          -84 17 -77 35 -77 vhcurveto
          35 -77 -78 17 -83 hhcurveto
          -89 -96 -20 -40 -110 hvcurveto
          25 -25 rlineto
          35 94 88 18 83 hhcurveto
          89 84 -20 -38 83 hvcurveto
          184 -182 -91 -87 -105 -64 -126 -47 rlinecurve
          24 -24 rlineto
          35 95 88 18 85 hhcurveto
          105 100 -28 -54 99 hvcurveto
          -54 99 -28 100 105 vvcurveto
          84 17 88 36 95 vhcurveto
          endchar
        </CharString>
        <CharString name="arrowleft">
          73 524 33 hstem
          51 1221 vstem
          717 541 rmoveto
          164 61 110 115 96 207 rrcurveto
          -34 hlineto
          -87 -189 -120 -116 -169 -62 rrcurveto
          -255 hlineto
          2 125 29 120 57 122 78 callsubr
          -56 121 -29 120 -3 125 rrcurveto
          258 hlineto
          167 -63 119 -114 87 -189 rrcurveto
          34 hlineto
          -96 207 -110 114 -164 62 rrcurveto
          184 hmoveto
          164 61 111 115 96 207 78 callsubr
          -96 207 -111 114 -164 62 rrcurveto
          endchar
        </CharString>
        <CharString name="arrowright">
          73 524 33 hstem
          123 1221 vstem
          582 541 rmoveto
          286 callgsubr
          -35 hlineto
          96 -207 111 -115 164 -61 -164 -62 -111 -114 -96 -207 259 callgsubr
          rrcurveto
          303 383 rmoveto
          57 -122 29 -120 2 -125 rrcurveto
          -255 hlineto
          -169 62 -120 116 -87 189 rrcurveto
          -34 hlineto
          96 -207 110 -115 164 -61 -164 -62 -110 -114 -96 -207 rrcurveto
          34 hlineto
          87 189 119 114 167 63 rrcurveto
          258 hlineto
          -3 -125 -29 -120 -56 -121 259 callgsubr
          286 callgsubr
          endchar
        </CharString>
        <CharString name="arrowup">
          -310 1 -21 hstem
          489 33 vstem
          889 776 rmoveto
          -207 94 -119 136 -57 194 -57 -194 115 callsubr
          -207 -94 rrcurveto
          -35 vlineto
          121 57 120 29 125 2 rrcurveto
          -257 vlineto
          -62 -168 -116 -119 -188 -86 rrcurveto
          -35 vlineto
          207 96 114 111 62 164 61 -164 115 -111 207 -96 rrcurveto
          35 vlineto
          -189 86 -116 120 -62 169 rrcurveto
          255 vlineto
          125 -2 120 -28 122 -58 rrcurveto
          -383 -303 rmoveto
          -57 -194 -119 -135 -207 -95 rrcurveto
          -34 vlineto
          207 96 114 110 62 164 61 -164 115 -110 207 -96 rrcurveto
          34 vlineto
          -207 95 -119 135 -57 194 rrcurveto
          endchar
        </CharString>
        <CharString name="arrowupleft">
          248 callsubr
          624 32 98 33 hintmask 11101110
          1112 676 rmoveto
          -35 -94 -88 -18 -83 hhcurveto
          -89 -84 20 38 -83 hvcurveto
          -184 182 rlineto
          hintmask 11110110
          91 87 105 64 126 47 rrcurveto
          hintmask 11101110
          -24 24 rlineto
          -35 -95 -88 -18 -85 hhcurveto
          -105 -100 28 54 -99 hvcurveto
          54 -99 28 -100 -105 vvcurveto
          -84 -17 -88 -36 -95 vhcurveto
          24 -25 48 126 64 105 86 92 rlinecurve
          183 -185 rlineto
          38 -83 19 -84 -88 vvcurveto
          -84 -18 -88 -35 -94 vhcurveto
          25 -24 rlineto
          40 110 20 96 88 vvcurveto
          84 -17 77 -35 77 vhcurveto
          -35 77 78 -17 83 hhcurveto
          89 96 20 40 110 hvcurveto
          106 -104 rmoveto
          -36 -95 -89 -18 -84 hhcurveto
          -105 -100 28 54 -98 hvcurveto
          54 -98 28 -100 -105 vvcurveto
          -84 -18 -89 -36 -95 vhcurveto
          25 -24 rlineto
          42 112 20 96 89 vvcurveto
          82 -17 76 -35 77 vhcurveto
          -35 77 76 -17 83 hhcurveto
          89 96 20 42 112 hvcurveto
          endchar
        </CharString>
        <CharString name="arrowupright">
          248 callsubr
          614 33 98 32 hintmask 11101110
          1268 1114 rmoveto
          -54 -99 -100 -28 -105 hhcurveto
          -85 -88 18 35 -95 hvcurveto
          hintmask 11110110
          -24 -24 126 -47 105 -64 91 -87 rlinecurve
          -184 -182 rlineto
          -38 -83 -84 -20 -89 hhcurveto
          -83 -88 18 35 -94 hvcurveto
          -25 -25 rlineto
          -40 110 96 -20 89 hhcurveto
          83 78 17 35 77 hvcurveto
          -35 -77 -17 -77 -84 vvcurveto
          -88 20 -96 40 -110 vhcurveto
          25 24 rlineto
          -35 94 -18 88 84 vvcurveto
          88 19 84 38 83 vhcurveto
          183 185 86 -92 64 -105 48 -126 rlinecurve
          24 25 rlineto
          -36 95 -17 88 84 vvcurveto
          hintmask 11101110
          105 28 100 54 99 vhcurveto
          -1135 -592 rmoveto
          -42 112 96 -20 89 hhcurveto
          83 76 17 35 77 hvcurveto
          -35 -77 -17 -76 -82 vvcurveto
          -89 20 -96 42 -112 vhcurveto
          25 24 rlineto
          -36 95 -18 89 84 vvcurveto
          105 28 100 54 98 vhcurveto
          -54 -98 -100 -28 -105 hhcurveto
          -84 -89 18 36 -95 hvcurveto
          endchar
        </CharString>
        <CharString name="asciicircum">
          -241 1081 -20 hstem
          138 845 vstem
          544 807 rmoveto
          113 -72 154 -65 155 -35 17 30 rcurveline
          -170 91 -101 162 -25 163 rrcurveto
          -37 hlineto
          -109 -163 -192 -164 -211 -90 9 -29 rcurveline
          142 41 154 65 101 66 rrcurveto
          endchar
        </CharString>
        <CharString name="asciicircum.case">
          -417 1075 -20 424 -20 hstem
          37 926 vstem
          499 1217 rmoveto
          120 -71 164 -66 162 -35 18 30 rcurveline
          -186 89 -107 157 -28 158 rrcurveto
          -37 hlineto
          -121 -158 -212 -159 -235 -88 284 callgsubr
          65 rrcurveto
          endchar
        </CharString>
        <CharString name="asciicircum.smcp">
          -187 1074 -20 425 -20 hstem
          235 925 vstem
          697 1217 rmoveto
          120 -72 164 -66 162 -35 17 30 rcurveline
          -185 89 -107 157 -28 159 rrcurveto
          -37 hlineto
          -121 -159 -212 -158 -235 -89 284 callgsubr
          66 rrcurveto
          endchar
        </CharString>
        <CharString name="asciitilde">
          0 436 209 -49 209 hstemhm
          100 291 callsubr
          821 436 -2 callsubr
        </CharString>
        <CharString name="asciitilde.case">
          -212 575 209 -49 209 hstemhm
          43 291 callsubr
          764 575 -2 callsubr
        </CharString>
        <CharString name="asciitilde.smcp">
          -3 436 209 -49 209 hstemhm
          97 291 callsubr
          818 436 -2 callsubr
        </CharString>
        <CharString name="asterisk">
          -330 1059 -20 23 -20 29 -20 25 -20 hstemhm
          183 861 hintmask 00011000
          1038 1277 rmoveto
          29 -9 -22 22 -39 hhcurveto
          -19 -23 -5 -14 -28 hvcurveto
          -71 -38 -80 -87 -121 -108 79 144 65 87 16 75 rrcurveto
          3 14 2 13 11 vvcurveto
          53 -36 20 -41 -49 -58 -29 -82 -19 vhcurveto
          -4 -19 -2 -19 -22 vvcurveto
          hintmask 00101000
          -65 16 -81 13 -105 vhcurveto
          -77 116 -34 82 -58 38 rrcurveto
          14 -21 -20 6 -20 hhcurveto
          -36 -32 -22 -28 -22 hvcurveto
          -18 -22 -12 -26 -25 vvcurveto
          hintmask 10001000
          -25 11 -25 31 -20 vhcurveto
          54 -37 107 -8 136 -30 -158 -30 -97 -6 -77 -38 rrcurveto
          -62 -32 -23 -40 -37 vvcurveto
          -11 2 -10 4 -10 vhcurveto
          -29 9 23 -22 38 hhcurveto
          19 24 5 14 27 hvcurveto
          hintmask 00101000
          72 38 82 88 123 111 -84 -147 -64 -88 -17 -76 rrcurveto
          -3 -14 -2 -13 -11 vvcurveto
          -53 37 -19 41 49 57 28 82 21 vhcurveto
          4 18 1 19 20 vvcurveto
          hintmask 01001000
          64 -15 80 -9 103 vhcurveto
          74 -111 34 -80 56 -37 rrcurveto
          -14 21 20 -6 19 hhcurveto
          37 32 22 28 22 hvcurveto
          18 22 12 26 25 vvcurveto
          25 -12 25 -31 20 vhcurveto
          -53 37 -106 8 -135 29 156 31 98 5 75 38 rrcurveto
          62 31 23 41 37 vvcurveto
          hintmask 00011000
          11 -2 11 -4 10 vhcurveto
          endchar
        </CharString>
        <CharString name="at">
          445 -305 175 callgsubr
          57 111 callgsubr
          1085 53 -84 callgsubr
        </CharString>
        <CharString name="at.case">
          447 -129 175 callgsubr
          104 111 callgsubr
          1132 229 -84 callgsubr
        </CharString>
        <CharString name="at.smcp">
          438 -244 175 callgsubr
          67 111 callgsubr
          1095 114 -84 callgsubr
        </CharString>
        <CharString name="atilde">
          29 callgsubr
          246 176 -26 176 241 callsubr
          hintmask 00000000
          hintmask 01100111
          579 1434 rmoveto
          hintmask 01101011
          1 callgsubr
          147 callgsubr
          hintmask 01100111
          35 callsubr
          hintmask 01101011
          511 -347 -19 callgsubr
        </CharString>
        <CharString name="atilde.smcp">
          66 callgsubr
          128 176 254 callgsubr
          -186 1562 hintmask 11101100
          1339 1663 rmoveto
          hintmask 11110100
          -86 -51 -50 -33 -57 hhcurveto
          hintmask 11101100
          148 callgsubr
          34 callsubr
          hintmask 11110100
          151 34 -149 204 hhcurveto
          125 136 81 203 79 hvcurveto
          -416 -392 -105 callsubr
        </CharString>
        <CharString name="b">
          -203 -29 60 -43 -21 36 -21 997 108 414 43 hstemhm
          761 299 hintmask 10011100
          807 1087 rmoveto
          -125 -101 -87 -206 -100 hvcurveto
          240 834 -138 -53 -142 255 callgsubr
          rlinecurve
          -12 -43 rlineto
          102 36 -25 -54 -16 -3 -19 -6 -21 hvcurveto
          -370 -1264 rlineto
          hintmask 00111100
          -10 -43 -14 -41 -18 -36 rrcurveto
          hintmask 01011100
          30 -15 rlineto
          hintmask 10011100
          190 callsubr
          205 -88 110 -165 hvcurveto
          -440 -1056 rmoveto
          -39 -28 13 32 -25 hvcurveto
          154 537 rlineto
          211 82 104 155 78 hhcurveto
          43 25 -37 -104 -322 -191 -485 -203 hvcurveto
          endchar
        </CharString>
        <CharString name="b.smcp">
          -45 callgsubr
        </CharString>
        <CharString name="backslash">
          -317 -8 -21 1508 -20 hstem
          269 531 vstem
          800 -29 rmoveto
          -467 1508 rlineto
          -64 hlineto
          463 -1508 rlineto
          endchar
        </CharString>
        <CharString name="bar">
          -566 -378 -21 hstem
          308 180 vstem
          488 -399 rmoveto
          2156 -180 -2156 vlineto
          endchar
        </CharString>
        <CharString name="blacksquare">
          -82 104 852 hstem
          195 813 263 callsubr
          endchar
        </CharString>
        <CharString name="blacksquare.case">
          -38 303 852 hstem
          254 854 vstem
          1108 1155 213 callsubr
          endchar
        </CharString>
        <CharString name="blacksquare.smcp">
          -25 197 852 hstem
          228 854 vstem
          1082 1049 213 callsubr
          endchar
        </CharString>
        <CharString name="braceleft">
          -582 -385 39 932 37 hstemhm
          58 274 -168 261 hintmask 11100000
          449 -346 rmoveto
          -77 2 -40 17 84 vvcurveto
          -2 63 21 103 41 166 rrcurveto
          hintmask 11010000
          20 82 13 72 61 vvcurveto
          156 -79 93 -227 52 vhcurveto
          270 47 168 100 93 369 101 403 36 37 133 2 10 39 rcurveline
          -322 -157 -92 -389 -96 hvcurveto
          -94 -383 -58 -105 -129 -10 rrcurveto
          -10 hlineto
          -6 -37 rlineto
          10 hlineto
          64 -4 30 -33 2 -84 rrcurveto
          -75 -22 -119 -45 -182 vhcurveto
          hintmask 11100000
          -23 -93 -16 -80 -66 vvcurveto
          -155 87 -82 294 2 vhcurveto
          endchar
        </CharString>
        <CharString name="braceleft.case">
          -609 -152 39 818 36 hstemhm
          115 262 -174 245 hintmask 11100000
          494 -113 rmoveto
          -77 2 -40 17 84 vvcurveto
          51 14 94 33 133 vhcurveto
          hintmask 11010000
          15 63 9 56 49 vvcurveto
          150 -79 89 -211 48 vhcurveto
          262 36 156 92 84 372 69 310 27 28 92 2 10 39 rcurveline
          -270 -131 -73 -306 -80 hvcurveto
          -99 -381 -48 -90 -117 -11 rrcurveto
          -10 hlineto
          -7 -36 rlineto
          11 hlineto
          61 -5 33 -32 2 -84 rrcurveto
          -64 -26 -98 -35 -154 vhcurveto
          hintmask 11100000
          -17 -71 -10 -62 -53 vvcurveto
          -157 90 -78 279 1 vhcurveto
          endchar
        </CharString>
        <CharString name="braceleft.smcp">
          -604 -114 39 700 18 hstemhm
          76 299 -221 287 hintmask 11010000
          816 1356 rmoveto
          -290 -132 -70 -289 -82 hvcurveto
          -292 -84 -8 -62 -144 hhcurveto
          -10 hlineto
          -6 -37 rlineto
          10 hlineto
          49 -4 34 -45 1 -113 rrcurveto
          hintmask 11100000
          -124 -78 -164 -88 vvcurveto
          -123 129 -59 277 vhcurveto
          10 39 rlineto
          -78 2 -39 12 84 vvcurveto
          hintmask 11010000
          116 66 117 115 vvcurveto
          168 -158 55 -162 31 vhcurveto
          202 4 218 89 76 279 80 290 16 28 92 2 rrcurveto
          endchar
        </CharString>
        <CharString name="braceright">
          -583 -364 -21 979 37 932 39 hstemhm
          317 261 -168 274 hintmask 11101000
          293 302 callgsubr
          2 -63 -21 -103 -41 -166 rrcurveto
          hintmask 11110000
          -20 -82 -13 -72 -61 vvcurveto
          -156 79 -93 227 -52 vhcurveto
          -270 -47 -168 -100 -93 -369 -101 -403 -36 -37 -133 -2 -10 -39 rcurveline
          322 157 92 389 96 hvcurveto
          94 383 58 105 129 10 rrcurveto
          10 hlineto
          6 37 rlineto
          -10 hlineto
          -64 4 -30 33 -2 84 rrcurveto
          75 22 119 45 182 vhcurveto
          hintmask 11101000
          23 93 16 80 66 vvcurveto
          155 -87 82 -294 -2 vhcurveto
          endchar
        </CharString>
        <CharString name="braceright.case">
          -614 709 36 818 39 hstemhm
          328 245 -174 262 hintmask 11010000
          282 302 callgsubr
          -51 -14 -94 -33 -133 vhcurveto
          hintmask 11100000
          -15 -63 -9 -56 -49 vvcurveto
          -150 79 -89 211 -48 vhcurveto
          -262 -36 -156 -92 -84 -372 -69 -310 -27 -28 -92 -2 -10 -39 rcurveline
          270 131 73 306 80 hvcurveto
          99 381 48 90 117 11 rrcurveto
          10 hlineto
          7 36 rlineto
          -11 hlineto
          -61 5 -33 32 -2 84 rrcurveto
          64 26 98 35 154 vhcurveto
          hintmask 11010000
          17 71 10 62 53 vvcurveto
          157 -90 78 -279 -1 vhcurveto
          endchar
        </CharString>
        <CharString name="braceright.smcp">
          -596 606 19 692 39 hstemhm
          285 299 -234 312 hintmask 11100000
          233 1317 rmoveto
          hintmask 11010000
          78 -2 39 -17 -84 vvcurveto
          hintmask 11100000
          -116 -65 -117 -115 vvcurveto
          -153 164 -60 167 -28 vhcurveto
          -206 -4 -224 -88 -77 -293 -79 -290 -18 -28 -92 -2 -10 -39 rcurveline
          297 142 69 290 77 hvcurveto
          308 82 10 58 144 hhcurveto
          10 hlineto
          6 37 rlineto
          -10 hlineto
          -50 4 -32 47 -2 99 rrcurveto
          hintmask 11010000
          104 78 184 103 vvcurveto
          108 -133 64 -285 vhcurveto
          endchar
        </CharString>
        <CharString name="bracketleft">
          -580 -371 39 1874 39 hstem
          -46 957 vstem
          439 1581 rmoveto
          -485 -1952 308 callsubr
          469 1874 rlineto
          166 hlineto
          9 39 rlineto
          endchar
        </CharString>
        <CharString name="bracketleft.case">
          -574 -131 39 1634 39 hstem
          20 895 vstem
          444 1581 rmoveto
          -424 -1712 308 callsubr
          408 1634 rlineto
          166 hlineto
          8 39 rlineto
          endchar
        </CharString>
        <CharString name="bracketleft.smcp">
          303 callgsubr
          14 848 vstem
          854 1317 rmoveto
          8 39 rlineto
          -484 hlineto
          -364 -1467 rlineto
          483 hlineto
          8 39 rlineto
          -165 hlineto
          348 1389 rlineto
          endchar
        </CharString>
        <CharString name="bracketright">
          -579 -371 39 1874 39 hstem
          -168 957 vstem
          304 -371 rmoveto
          485 1952 306 callsubr
          -469 -1874 rlineto
          -166 hlineto
          -9 -39 rlineto
          endchar
        </CharString>
        <CharString name="bracketright.case">
          -577 -131 39 1634 39 hstem
          -104 895 vstem
          367 -131 rmoveto
          424 1712 306 callsubr
          -408 -1634 rlineto
          -166 hlineto
          -8 -39 rlineto
          endchar
        </CharString>
        <CharString name="bracketright.smcp">
          303 callgsubr
          -107 848 vstem
          -99 -72 rmoveto
          -8 -39 rlineto
          484 hlineto
          364 1467 rlineto
          -483 hlineto
          -8 -39 rlineto
          165 hlineto
          -348 -1389 rlineto
          endchar
        </CharString>
        <CharString name="breve">
          -95 1272 201 hstem
          300 737 vstem
          598 1473 rmoveto
          5 callsubr
          -23 20 rlineto
          -93 -119 -152 -48 -145 hhcurveto
          endchar
        </CharString>
        <CharString name="breve.case">
          -404 1578 201 hstem
          138 856 vstem
          503 -36 callgsubr
          endchar
        </CharString>
        <CharString name="breve.smcp">
          -404 1373 202 hstem
          138 856 vstem
          503 -37 callsubr
          endchar
        </CharString>
        <CharString name="brevecy">
          -366 1317 45 hstem
          346 321 vstem
          528 1386 rmoveto
          100 callgsubr
          161 189 79 199 129 vhcurveto
          210 callsubr
          endchar
        </CharString>
        <CharString name="brevecy.case">
          -299 1544 43 hstem
          349 333 vstem
          543 1619 rmoveto
          79 23 60 64 70 vvcurveto
          84 -57 39 -95 -103 -78 -67 -93 -132 168 -63 204 201 223 85 201 162 vhcurveto
          -29 23 -135 -159 -189 -106 -221 146 callsubr
          endchar
        </CharString>
        <CharString name="brevecy.smcp">
          -326 1339 43 hstem
          297 334 vstem
          492 1414 rmoveto
          79 23 60 64 70 vvcurveto
          83 -57 40 -95 -103 -79 -67 -93 -132 169 -63 204 191 213 84 198 154 vhcurveto
          -30 23 -128 -157 -179 -104 -209 146 callsubr
          endchar
        </CharString>
        <CharString name="brokenbar">
          -559 -378 -21 hstem
          312 180 vstem
          492 786 rmoveto
          971 -180 -971 vlineto
          -118 vmoveto
          -1067 180 1067 vlineto
          endchar
        </CharString>
        <CharString name="bullet">
          -440 219 584 hstem
          123 587 vstem
          125 510 16 callgsubr
        </CharString>
        <CharString name="bullet.case">
          -445 454 584 hstem
          177 587 vstem
          179 745 16 callgsubr
        </CharString>
        <CharString name="bullet.smcp">
          -440 338 584 hstem
          154 587 vstem
          156 629 16 callgsubr
        </CharString>
        <CharString name="c">
          130 callsubr
          156 callgsubr
          734 1047 rmoveto
          46 30 -15 -26 21 hvcurveto
          -80 callgsubr
          93 callgsubr
          hvcurveto
          endchar
        </CharString>
        <CharString name="c.smcp">
          37 callgsubr
          hintmask 10101000
          610 -29 -100 callgsubr
        </CharString>
        <CharString name="cacute">
          130 callsubr
          157 -20 156 callgsubr
          601 1225 rmoveto
          -5 callsubr
          -84 callsubr
          rrcurveto
          154 -197 rmoveto
          46 30 -15 -26 21 hvcurveto
          -80 callgsubr
          93 callgsubr
          hvcurveto
          endchar
        </CharString>
        <CharString name="cacute.loclPLK">
          130 callsubr
          hstemhm
          17 306 322 319 -299.729995728 271 callgsubr
          hintmask 11101000
          641 1221 rmoveto
          -30 callsubr
          118 -186 rmoveto
          169 callsubr
          hintmask 11110000
          -80 callgsubr
          hvcurveto
          hintmask 11101000
          93 callgsubr
          vhcurveto
          endchar
        </CharString>
        <CharString name="cacute.loclPLK.smcp">
          37 callgsubr
          hintmask 10101000
          909 1350 rmoveto
          144 133 165 callsubr
          -74 callgsubr
          rrcurveto
          -276 -1393 -100 callgsubr
        </CharString>
        <CharString name="cacute.smcp">
          37 callgsubr
          hintmask 10101000
          829 1376 rmoveto
          -58 callsubr
          52 30 40 41 -103 callsubr
          rrcurveto
          -205 -1429 -100 callgsubr
        </CharString>
        <CharString name="caron">
          -499 1249 430 hstem
          252 770 vstem
          641 1528 -14 callsubr
          endchar
        </CharString>
        <CharString name="caron.case">
          -458 1573 346 hstem
          147 877 vstem
          568 -24 callgsubr
          endchar
        </CharString>
        <CharString name="caron.smcp">
          -458 1368 347 hstem
          147 877 vstem
          568 -24 callsubr
          endchar
        </CharString>
        <CharString name="ccaron">
          130 callsubr
          156 callgsubr
          814 1526 -14 callsubr
          -80 -479 rmoveto
          46 30 -15 -26 21 hvcurveto
          -80 callgsubr
          93 callgsubr
          hvcurveto
          endchar
        </CharString>
        <CharString name="ccaron.smcp">
          37 callgsubr
          hintmask 10101000
          1093 -24 callsubr
          -483 -1622 -100 callgsubr
        </CharString>
        <CharString name="ccedilla">
          -373 -385 49 330 -21 1074 40 hstemhm
          17 306 -30 222 130 319 hintmask 11110100
          645 782 rmoveto
          -6 callsubr
          -430 -269 -462 -339 -195 113 -101 165 -17 vhcurveto
          -123 -182 rlineto
          hintmask 11101100
          -16 callgsubr
          71 112 206 4 147 136 84 135 rlinecurve
          -41 16 rlineto
          -137 -93 -90 -43 -87 hhcurveto
          hintmask 11110100
          160 callsubr
          endchar
        </CharString>
        <CharString name="ccedilla.smcp">
          68 193 callgsubr
          80 40 10 -21 1237 207 callsubr
          340 231 210 hintmask 00000000
          hintmask 10100111
          1391 1245 rmoveto
          -81 -30 -27 -41 -27 hhcurveto
          -10 -9 6 12 -10 hvcurveto
          hintmask 11101011
          69 -59 -80 64 -164 hhcurveto
          -563 -351 -469 -404 -267 193 -153 323 -10 hvcurveto
          -82 -180 rlineto
          -63 callsubr
          46 100 158 5 106 56 103 72 rlinecurve
          12 18 14 6 10 hhcurveto
          hintmask 10011011
          18 8 -17 -35 -19 -2 -22 -4 -29 hvcurveto
          45 hlineto
          18 104 35 140 68 248 rrcurveto
          -45 hlineto
          -66 -160 -43 -86 -76 -78 rrcurveto
          hintmask 10101011
          -96 -99 -135 -55 -117 -6 1 3 rcurveline
          -55 hlineto
          -120 18 -74 121 210 vvcurveto
          388 251 489 304 123 107 -53 -107 51 vhcurveto
          23 -45 10 -39 -61 vvcurveto
          -39 -4 -49 -9 -70 vhcurveto
          46 hlineto
          hintmask 10100111
          57 238 41 133 35 100 rrcurveto
          endchar
        </CharString>
        <CharString name="ccircumflex">
          130 callsubr
          189 -20 156 callgsubr
          675 1399 -71 callgsubr
          59 -352 rmoveto
          46 30 -15 -26 21 hvcurveto
          -80 callgsubr
          93 callgsubr
          hvcurveto
          endchar
        </CharString>
        <CharString name="ccircumflex.smcp">
          37 callgsubr
          hintmask 10101000
          969 1496 rmoveto
          112 -48 104 -41 -103 callgsubr
          -359 -1525 -100 callgsubr
        </CharString>
        <CharString name="cdotaccent">
          130 callsubr
          hstemhm
          17 306 240 361 -279 319 hintmask 11110000
          563 1392 rmoveto
          -76 53 -47 96 37 callsubr
          vhcurveto
          171 -345 rmoveto
          169 callsubr
          hintmask 11101000
          -80 callgsubr
          hvcurveto
          hintmask 11110000
          93 callgsubr
          vhcurveto
          endchar
        </CharString>
        <CharString name="cdotaccent.smcp">
          37 callgsubr
          443 362 hintmask 10101100
          844 49 callsubr
          -234 -1520 rmoveto
          170 111 58 75 108 hvcurveto
          12 18 14 6 10 hhcurveto
          hintmask 01101100
          18 8 -17 -35 -19 -2 -22 -4 -29 hvcurveto
          45 hlineto
          18 104 35 140 68 248 rrcurveto
          -45 hlineto
          -66 -160 -43 -86 -76 -78 rrcurveto
          hintmask 10101100
          -105 -102 -145 -55 -121 hhcurveto
          -140 -88 123 229 388 251 489 304 123 107 -53 -107 51 hvcurveto
          23 -45 10 -39 -61 vvcurveto
          -39 -4 -49 -9 -70 vhcurveto
          46 hlineto
          hintmask 10011100
          57 110 callgsubr
          -81 -30 -27 -41 -27 hhcurveto
          -10 -9 6 12 -10 hvcurveto
          hintmask 10101100
          69 -59 -80 64 -164 hhcurveto
          -563 -351 -469 -404 -276 206 -154 343 hvcurveto
          endchar
        </CharString>
        <CharString name="cedilla">
          -855 -385 49 hstem
          204 222 vstem
          282 hmoveto
          -58 hlineto
          -141 -209 rlineto
          -16 callgsubr
          endchar
        </CharString>
        <CharString name="cedilla.case">
          -818 193 callgsubr
          -86 207 hstemhm
          311 210 hintmask 10110000
          329 12 rmoveto
          -55 hlineto
          -100 -221 rlineto
          10 26 30 4 16 hhcurveto
          44 21 -17 -30 -79 -121 -15 -63 -73 -69 16 7 -23 hvcurveto
          -13 -32 rlineto
          -17 38 85 -23 101 hhcurveto
          160 188 50 129 hvcurveto
          hintmask 11010000
          66 -56 31 -82 -39 -45 -8 -12 -34 vhcurveto
          endchar
        </CharString>
        <CharString name="cedilla.smcp">
          -818 -385 49 141 206 hstem
          311 210 vstem
          329 11 rmoveto
          -55 hlineto
          -100 -220 rlineto
          -63 callsubr
          endchar
        </CharString>
        <CharString name="cent">
          -344 -350 -21 363 -21 1076 40 363 -20 hstem
          19 306 322 319 vstem
          647 782 rmoveto
          -6 callsubr
          vhcurveto
          -14 -14 -1 -14 hhcurveto
          98 364 rlineto
          -45 hlineto
          -99 -370 rlineto
          -379 -58 -232 -421 -315 vvcurveto
          -208 129 -102 183 -5 vhcurveto
          -92 -342 rlineto
          45 hlineto
          92 343 195 12 140 132 81 130 rlinecurve
          -41 16 rlineto
          -137 -93 -90 -43 -87 hhcurveto
          -26 -24 5 10 -21 hvcurveto
          251 934 rlineto
          10 25 25 6 25 hhcurveto
          175 callsubr
          -275 -657 rmoveto
          -30 32 -17 53 76 vvcurveto
          303 128 299 155 112 vhcurveto
          endchar
        </CharString>
        <CharString name="cent.smcp">
          -135 95 48 919 -20 72 36 304 -20 hstem
          54 334 vstem
          1160 1143 rmoveto
          -53 -22 -27 -28 -29 hhcurveto
          -10 -11 3 8 -11 hvcurveto
          -47 36 -56 36 -103 5 87 304 rcurveline
          -41 hlineto
          -87 -303 rlineto
          -428 -7 -321 -348 -323 vvcurveto
          -245 156 -130 290 -4 vhcurveto
          -87 -303 rlineto
          41 hlineto
          87 304 112 5 79 38 74 36 rlinecurve
          8 17 13 4 11 hhcurveto
          24 10 -18 -33 -3 0 -2 -1 -3 hvcurveto
          -8 -1 -8 -1 -9 vhcurveto
          47 hlineto
          16 84 31 109 55 197 rrcurveto
          -47 hlineto
          -59 -136 -37 -63 -74 -64 rrcurveto
          -59 -68 -89 -27 -76 hhcurveto
          -7 -8 0 1 -7 hvcurveto
          278 970 78 -4 67 -35 37 -59 rlinecurve
          27 -47 10 -35 -70 vvcurveto
          -24 -2 -29 -2 -37 vhcurveto
          47 hlineto
          53 187 31 102 29 80 rrcurveto
          -820 -742 rmoveto
          260 153 424 251 28 vhcurveto
          -275 -960 rlineto
          -79 27 -50 84 137 vvcurveto
          endchar
        </CharString>
        <CharString name="circumflex">
          -499 1278 -20 hstem
          72 770 vstem
          453 1401 -71 callgsubr
          endchar
        </CharString>
        <CharString name="circumflex.case">
          -458 1579 346 hstem
          -6 876 vstem
          449 1701 rmoveto
          112 -49 104 -40 -103 callgsubr
          endchar
        </CharString>
        <CharString name="circumflex.smcp">
          -458 1374 346 hstem
          12 876 vstem
          467 1496 rmoveto
          112 -48 104 -41 -103 callgsubr
          endchar
        </CharString>
        <CharString name="colon">
          -685 -8 -21 1117 -20 hstemhm
          29 335 -130 335 hintmask 00000000
          hintmask 11010000
          234 892 rmoveto
          -83 callsubr
          hintmask 11100000
          -205 -800 rmoveto
          -83 callsubr
          endchar
        </CharString>
        <CharString name="comma">
          -735 -8 -21 hstem
          249 93 vstem
          342 138 -30 callgsubr
          endchar
        </CharString>
        <CharString name="commaaccentcomb">
          -1322 -349 -21 hstem
          -96 325 vstem
          89 -108 -51 callsubr
        </CharString>
        <CharString name="commaaccentcomb.case">
          -1322 -349 -21 hstem
          29 325 vstem
          29 -270 rmoveto
          -67 47 -33 76 49 166 callsubr
          vhcurveto
          -71 callsubr
          -101 -84 -68 -94 vhcurveto
          endchar
        </CharString>
</ttFont>
